<?xml version="1.0" encoding="utf-8"?>
<!-- Generator: Adobe Illustrator 15.1.0, SVG Export Plug-In . SVG Version: 6.00 Build 0)  -->
<!DOCTYPE svg PUBLIC "-//W3C//DTD SVG 1.1//EN" "http://www.w3.org/Graphics/SVG/1.1/DTD/svg11.dtd">
<svg version="1.1" id="Layer_1" xmlns="http://www.w3.org/2000/svg" xmlns:xlink="http://www.w3.org/1999/xlink" x="0px" y="0px"
	 width="792px" height="612px" viewBox="0 0 792 612" enable-background="new 0 0 792 612" xml:space="preserve">
<g opacity="0.82">
	<path fill="#A3BFA4" d="M255.229,196.605c-0.035-0.032-0.047-0.113-0.047-0.22C255.105,196.426,255.112,196.5,255.229,196.605z"/>
	<path fill="#A3BFA4" d="M111.689,3.819c-1.241,0.199-1.982,1.104-1.646,2.028c1.192,3.305,2.831,6.513,4.417,9.614l0.344,0.672
		c0.055,0.11,0.125,0.212,0.205,0.31l-0.874,0.37c-0.746,2.385,3.134,5.032,4.088,7.778c0.232,0.665-1.368,0.765-0.915,1.646
		c0.515,1.007,2.972,0.607,2.982,1.958c0.024,2.721,4.01,4.231,4.227,6.07c0.083,0.706-2.486,0.536-1.697,1.583
		c2.057,2.73,7.093,3.515,9.688,6.505c-1.495,0.135-4.641-1.15-3.992,0.828c2.388,3.227,9.047,3.83,12.028,6.694
		c-2.661-0.465-4.391-0.126-6.287,0.069c1.899,4.971,11.52,5.199,15.792,8.714c-4.154-0.124-8.275-0.221-10.324,1.468
		c5.049,3.938,13.641,5.702,21.344,8.01c-5.437-0.416-8.451,1.251-13.444,1.218c3.021,6.63,16.893,6.593,25.933,9.524
		c-4.486,0.839-15.083,0.43-15.922,2.74c-1.702,4.686,22.557,8.24,28.412,8.002c-5.199,2.081-20.275,0.269-21.521,4.012
		c-1.217,3.66,13.033,7.92,21.301,8.581c6.6,0.528,13.161-1.992,17.208,0.802c-6.873-0.005-30.114,2.625-30.972,4.403
		c-3.294,6.814,30.453,9.893,35.341,9.702c6.551-0.255,12.439-4.538,14.133-0.016c-2.909-0.285-2.17-0.818-4.68-0.375
		c-0.396,1.105,1.471,1.686-0.183,2.278c-4.141,1.481-14.215-0.173-20.511,1.227c-5.384,1.197-8.616,3.178-11.423,5.392
		c9.981,5.388,19.022,8.494,30.751,8.19c2.226-0.058,4.165-1.244,6.378-1.21c0.472,0.007,2.498,1.333,3.03,1.388
		c9.486,0.989,16.049-7.523,18.034,0.296c-2.484,0.081-2.672-1.249-5.415-1.007c-1.219,1.715,1.657,3.592-0.319,3.987
		c-18.742-0.902-29.222,5.301-44.556,7.331c9.847,6.41,21.143,10.503,33.001,9.515c2.344-0.195,5.596-2.35,8.031-2.225
		c1.361,0.072,1.423,1.548,3.029,1.389c2.671-0.265,4.973-1.82,8.029-2.224c0.653-0.087,2.951,0.908,3.856,0.881
		c4.704-0.138,9.097-4.909,10.598-4.885c3.346,0.055,6.862,5.361,7.347,6.319c-2.229-0.798-4.393-1.633-7.712-1.763
		c-1.906,1.122,0.089,2.243-0.318,3.988c-3.182-0.136-6.176-2.722-10.052-1.95c-0.756,0.151-1.616,2.021-2.521,2.09
		c-3.137,0.248-6.593-2.05-9.361-0.747c-0.829,0.389,0.392,1.475-0.918,1.646c-4.984,0.647-9.731-0.697-14.179,0.586
		c-0.905,0.262-1.471,1.854-2.522,2.091c-1.539,0.347-4.006-0.733-5.462-0.437c-0.581,0.119-2.22,1.669-3.303,2.029
		c-4.467,1.491-9.052,1.235-12.801,2.989c8.233,2.705,16.337,6.167,23.73,7.628c1.776,0.352,6.13,1.192,7.757,1.194
		c1.607,0,4.035-1.524,5.598-1.272c2.221,0.356-0.464,1.981,2.203,1.896c3.506-0.112,5.216-1.823,9.591-2.1
		c-0.698,0.044,1.085,1.264,2.25,1.327c3.796,0.205,6.348-2.499,9.635-2.669c-0.852,0.044,0.634,1.691,1.425,1.832
		c4.268,0.771,6.718-1.954,9.634-2.667c1.67,5.739,11.958-3.56,12.847-3.559c4.146-0.002,6.831,5.256,9.595,7.646
		c-2.844-1.089-6.969-2.603-10.05-1.95c-1.22,1.55,1.895,3.064-0.274,3.418c-2.239-1.332-7.334-0.911-10.876-1.443
		c-1.124,1.333,1.521,2.903-0.228,2.849c-6.417-2.626-9.762,1.712-11.149,1.974c-2.065,0.391-5.185-0.908-7.022-0.561
		c-2.873,0.542-3.85,4.359-9.589,2.101c-0.083,4.043-4.796,1.431-8.03,2.223c-0.407,0.101-0.206,1.971-0.962,2.216
		c-1.02,0.331-2.869-0.629-3.901-0.311c-1.93,0.59-2.876,2.354-4.954,3.042c-4.391,1.455-10.468,0.593-12.848,3.559
		c11.4,1.87,18.943,6.432,27.125,4.46c-0.071,3.965,5.791,0.587,7.066-0.009c0.386,5.525,7.022-0.988,9.453-0.391
		c0.225,0.055-0.217,1.483-0.229,2.058c0.546-0.298,5.181,0.922,3.767,2.811c-3.794-0.138-6.153-1.756-9.364-0.749
		c-1.126,1.333,2.102,2.547-0.227,2.848c-2.522-0.075-3.22-1.271-6.196-1.067c1.283,4.191-2.752,1.546-4.863,1.903
		c-0.058,0.01-1.176,1.417-1.696,1.584c-5.273,1.682-12.013,2.632-16.059,4.448c14.75,3.128,19.623,7.074,32.539,5.466
		c-0.054,1.56-1.392,1.042-0.182,2.279c4.376,0.314,6.063-1.683,8.855-2.731c-0.075,0.948-0.151,1.898-0.227,2.847
		c2.66-0.001,6.147-1.059,5.324,2.146c-2.714-0.5-5.011-1.256-8.537-1.255c-1.125,1.331,1.52,2.903-0.227,2.847
		c-2.743-0.48-4.405-1.625-7.711-1.762c-1.037,1.436,1.228,3.473-0.273,3.417c-1.063-0.971-3.953-0.82-6.195-1.067
		c-0.832,1,2.185,2.088-0.181,2.277c-2.421,0.223-2.218-1.167-4.636-0.944c1.662,3.758-1.603,1.117-4.038,1.396
		c-0.063,0.008-1.037,1.437-1.696,1.584c-2.888,0.643-9.775,0.414-11.977,2.481c12.022,1.797,19.064,5.867,27.858,5.093
		c-0.747,5.514,7.616-0.728,8.582,0.687c-0.952,0.601-1.042,1.942-1.053,3.354c4.374,0.501,8.37-2.521,10.371-2.037
		c0.209,1.398-1.523,1.125-1.01,2.785c5.432,0.804,9.57-2.711,11.978-2.482c0.21,1.398-1.523,1.125-1.008,2.786
		c7.309,0.605,10.014-2.749,14.499-4.574c-0.953,0.601-1.044,1.943-1.055,3.355c8.391,1.129,10.772-2.91,15.326-5.081
		c-0.483,1.266-1.781,2.787-0.319,3.987c7.2,0.105,10.568-3.085,14.589-5.713c-0.111,1.514-0.554,3.229,0.463,4.05
		c7.771,0.193,10.588-3.879,14.679-6.852c-1.201,6.003,2.791,8.637,2.945,12.273c-3.223-3.003-12.823-5.008-18.588-3.205
		c-0.269,1.998,3.42,4.363,1.932,5.313c-3.133-2.53-12.235-4.248-17.073-2.51c-1.25,2.423,3.601,3.883,1.975,4.742
		c-4.03-1.987-10.457-3.067-16.293-2.447c-1.139,1.835,2.816,3.258,0.463,4.049c-2.656-1.605-9.722-2.547-12.483-0.999
		c-0.609,1.509,3.316,2.95,1.287,3.542c-1.762-1.753-7.924-2.016-10.878-1.443c-0.815,1.637,3.11,3.077,1.288,3.543
		c-2.282-0.945-5.921-1.056-9.315-1.317c-0.816,1.635,3.108,3.075,1.287,3.542c-1.907-0.634-4.12-1.08-6.976-1.131
		c-0.774,1.558,0.979,1.563,0.552,2.911c-1.063-0.971-3.955-0.821-6.197-1.068c-1.5,4.178-13.11,2.771-17.02,6.665
		c11.32,1.273,15.427,2.777,22.58,2.378c-0.689,4.855,5.038,0.221,7.802,0.624c-0.708,0.608-1.152,1.444-1.008,2.784
		c4.117-0.111,6.078-2.076,9.636-2.668c-0.953,0.602-1.044,1.943-1.055,3.355c5.678,0.419,7.591-2.399,11.288-3.683
		c-1.133,0.648-0.971,2.411-1.099,3.924c6.059,0.139,8.922-2.47,12.159-4.76c-0.121,1.52-0.243,3.038-0.364,4.557
		c6.332,0.171,9.484-2.394,12.937-4.699c1.408,6.624,11.67-1.972,14.363-2.864c-0.091,1.14-0.182,2.279-0.274,3.418
		c8.33,0.671,10.951-3.568,14.681-6.852c-0.136,2.07-0.797,4.461,1.151,5.25c5.657-1.018,9.7-3.424,13.074-6.407
		c1.591,8.435,13.46-0.357,15.188-3.372c-1.8,12.17,17.469,0.869,16.978-6.094c-0.149-2.079-2.336-1.308-1.288-3.543l0.121-0.731
		c5.294,2.848,10,6.48,14.551,10.004c4.88,3.779,9.925,7.672,15.757,10.659l-0.634,0.218c0.688,1.563,2.939,2.165,3.627,3.729
		c-5.519,1.313-3.756-1.303-5.968-3.917c-4.603-5.439-19.876-11.655-22.858-8.704c-3.823,3.78,4.707,7.987,4.595,11.258
		c-3.212-2.5-17.44-10.989-22.26-6.365c-3.278,3.147,3.789,6.631,3.955,9.487c-3.746-2.091-18.979-11.25-23.822-6.489
		c-2.859,2.808,4.647,6.319,4.778,8.979c-4.025-2.774-21.148-9.918-24.004-4.211c-0.854,1.704,6.189,5.195,4.961,6.701
		c-3.072-2.26-16.777-7.156-20.102-3.899c-2.35,2.298,4.877,4.268,2.665,5.945c-3.093-2.289-12.171-3.412-16.339-1.879
		c-0.665,2.595,4.901,4.184,3.493,5.438c-4.187-2.155-10.183-3.607-15.513-2.386c-0.764,2.301,4.319,3.809,2.756,4.805
		c-2.629-1.635-7.676-1.783-12.392-2.135c-1.203,2.044,2.992,3.519,1.242,4.109c-2.8-0.861-6.531-1.985-9.316-1.317
		c-0.816,1.636,3.108,3.077,1.288,3.541c-2.006-0.752-4.734-1.063-7.757-1.192c1.926,3.507-1.313,1.161-3.257,1.459
		c-0.542,0.083-0.99,1.397-1.698,1.585c-4.73,1.24-13.375,2.053-16.058,4.446c11.808,1.357,16.519,3.066,23.405,1.872
		c-0.061,0.759-0.121,1.519-0.182,2.277c3.32,0.799,5.881-2.204,7.158-1.146c0.089,1.09-0.98,1.186-0.963,2.216
		c5.271,0.677,6.701-1.948,10.416-2.607c-0.192,1.862-2.391,1.999-1.924,4.43c6.171,0.834,9.487-4.001,12.113-4.19
		c-0.493,1.808-1.741,2.966-1.971,5.001c7.721,0.349,10.632-3.434,14.635-6.282c-0.458,2.063-3.465,5.104-1.372,7.342
		c6.845-0.605,10.271-4.153,13.947-7.483c-0.137,1.708-0.273,3.417-0.409,5.125c9.049,0.279,12.398-4.35,16.377-8.434
		c-0.167,2.089-0.333,4.176-0.5,6.265c11.26,0.96,13.269-6.036,18.12-10.589c-2.294,2.082-0.134,5.274-0.637,7.974
		c10.521,0.325,13.446-5.884,17.384-11.221c-3.556,17.305,15.367,4.18,17.411-2.934c0.047-0.267,0.101-0.54,0.162-0.821
		c-0.025,0.263-0.082,0.538-0.162,0.821c-2.582,14.157,13.064,8.139,16.266,0.187c0.032-1.023,0.191-2.069,0.554-3.115
		c0.063,1.044-0.145,2.095-0.554,3.115c-0.128,3.919,1.688,7.459,1.938,9.032c-11.666-3.079-7.624,6.637-6.326,10.386
		c-4.359-2.962-20.225-11.646-24.601-6.552c-3.114,3.625,5.588,8.146,4.688,10.118c-5.018-3.122-15.019-7.166-21.481-6.302
		c-9.12,1.217,4.863,9.886,4.551,11.827c-4.75-3.221-24.091-9.769-26.388-3.829c-0.946,2.439,8.264,5.396,7.254,7.458
		c-5.313-2.979-18.487-6.305-23.406-1.869c1.976,2.047,7.78,4.595,7.348,6.317c-5.987-4.71-25.846-4.149-16.657,2.109
		c-2.475-1.759-8.032-1.902-11.657-1.506c-0.838,3.042,2.891,3.28,3.49,5.438c-3.26-1.245-7.338-1.99-12.391-2.136
		c-1.399,2.339,4.043,3.244,2.021,4.174c-2.838-0.605-5.157-1.526-8.491-1.826c-3.014,1.237,2.614,2.965,0.507,3.48
		c-1.907-0.634-4.119-1.08-6.976-1.133c2.649,3.971-5.316,1.79-8.03,2.227c-0.553,0.088-0.977,1.395-1.697,1.585
		c-4.11,1.074-10.181,0.282-12.022,3.052c10.265,1.188,17.832,3.967,24.967,1.994c-0.306,0.75-1.198,0.998-0.963,2.215
		c4.133,0.31,5.671-1.614,8.81-2.162c-0.196,0.858-3.197,3.676-0.274,3.418c4.096,0.463,6.845-3.424,8.856-2.73
		c-0.356,1.316-1.403,2.039-1.099,3.924c5.533,0.295,7.418-2.549,10.553-4.315c0.8,2.474-2.417,4.599,0.37,5.188
		c5.86-0.041,9.116-5.541,12.25-5.898c-1.078,0.933-1.927,5.193-0.501,6.266c5.714-0.771,8.78-3.812,12.295-6.469
		c0.025,1.845-1.571,2.298-1.144,4.492c9.392,0.37,12.294-4.843,16.423-9.006c-0.447,2.519-2.018,5.009-0.593,7.404
		c10.992-0.083,13.431-7.521,17.568-13.499c-0.812,2.968-2.174,7.276-0.819,10.251c12.741,0.207,14.682-8.88,19.309-15.651
		c0.558,4.438-2.597,9.711,0.65,11.515c8.089,4.498,17.456-11.079,18.529-15.714c-0.713,3.454-3.279,10.821-0.22,12.592
		c2.322,1.346,9.872-1.324,12.021-3.052c5.227-4.202,4.5-12.866,9.031-14.753c1.022,4.373-1.644,7.97-0.131,11.453
		c0.674,1.551,3.813,2.716,4.361,4.36c0.38,1.132-1.17,2.892-1.098,3.926c0.432,6.179,8.172,9.086,11.392,14.666
		c-9.651-2.848-17.247-12.759-28.827-12.621c-14.322,0.168,0.981,12.53,4.186,16.384c-8.781-2.945-16.655-12.013-28.965-10.91
		c-12.158,1.085,4.448,12.612,5.885,14.796c-4.342-1.328-11.744-7.656-18.914-8.961c-4.768-0.868-12.267-1.203-13.445,1.219
		c-1.265,2.6,8.558,6.732,7.944,8.659c-3.425-3.056-20.625-9.773-23.957-4.782c-1.67,2.505,7.74,6.007,6.43,7.967
		c-4.313-4.751-25.608-7.507-18.816-0.356c-3.82-0.962-9.882-4.228-12.391-2.138c-2.406,2.003,4.355,4.643,4.134,7.208
		c-4.215-1.923-7.933-4.152-14.549-4.602c-1.896,1.561,1.917,3.232,1.931,5.313c-3.134-1.324-5.554-3.088-10.741-3.148
		c-0.679,2.039,1.514,2.318,1.243,4.11c-2.293-0.939-4.095-2.18-7.666-2.333c-1.125,1.334,1.52,2.903-0.228,2.85
		c-2.554-0.238-2.853-1.859-6.149-1.639c-2.171-0.419,1.786,2.279-0.964,2.214c-7.002-1.331-15.398-0.058-23.723,2.118
		c9.496,2.528,17.361,5.125,25.563,4.334c-0.061,0.76-0.122,1.52-0.181,2.278c3.47,0.35,4.949-1.019,7.938-1.083
		c0.07,1.682-1.903,1.609-1.833,3.291c4.561,0.459,8.772-2.582,11.15-1.975c0.105,1.558-3.52,2.996-1.144,4.495
		c5.871-0.228,8.912-2.885,13.673-4.068c-1.15,2.26-3.201,3.742-3.667,6.586c9.458,0.831,11.67-4.571,17.801-6.601
		c-0.965,2.822-3.35,4.423-3.024,8.356c9.258,0.855,12.862-6.382,17.113-7.805c-1.377,2.266-2.376,4.857-2.245,8.418
		c12.239,0.991,14.415-6.673,19.771-11.602c-0.772,4.203-3.242,6.949-3.295,11.772c14.542,0.74,17.201-8.743,23.21-15.342
		c-0.708,5.459-6.721,13.98,2.074,13.35c12.387-0.886,13.545-13.248,19.445-17.361c-0.167,3.877-3.212,7.624-2.516,11.837
		c1.02,6.165,11.105,2.749,14.96-0.525c5.695-4.834,5.093-14.712,10.818-17.476c-1.702,11.161-2.092,21.601,10.564,15.174
		c7.429-3.771,7.977-16.1,12.652-20.771c-0.501,6.814-1.256,18.44,5.61,18.217c11.244-0.368,13.158-14.947,16.046-23.937
		c0.927,5.889-3.009,17.583,3.914,19.8c9.36,3,16.95-12.063,16.599-21.026c-0.143-3.688-2.543-5.605,1.972-5.002
		c-3.289,2.594-0.084,4.195,0.279,6.326c1.104,6.507-2.151,10.234,2.718,15.121c1.486,1.49,4.714,0.967,6.838,2.84
		c1.793,1.578,1.761,4.678,3.4,6.574c3.789,4.384,11.477,8.222,14.787,11.502c-4.701,2.675-4.834-1.212-6.841-2.84
		c-0.887-0.721-2.976-0.55-4.591-1.513c-2.069-1.233-3.014-3.539-5.097-4.995c-6.879-4.804-30.903-13.052-25.194,0.854
		c2.236,5.449,14.716,10.605,14.465,15.485c-10.565-3.709-21.504-16.028-34.105-15.336c-3.831,0.212-7.334,1.873-6.698,5.197
		c1.199,6.247,12.58,10.916,15.981,16.179c-9.326-1.439-15.243-9.407-24.192-11.678c-5.769-1.463-15.016-1.526-16.611,1.541
		c-3.306,6.352,13.211,11.929,14.466,15.484c-9.63-4.358-20.337-16.08-33.507-12.995c-1.82,0.426-2.92,3.432-2.016,5.571
		c1.886,4.468,12.464,9.315,13.132,12.513c-7.427-1.559-11.893-8.963-19.51-11.304c-4.82-1.481-15-1.921-16.567,0.969
		c-2.293,4.229,11.331,9.744,10.746,12.896c-4.96-3.646-17.673-10.81-26.714-9.586c-8.291,1.122,2.583,8.006,2.347,9.933
		c-2.429-3.632-19.104-10.19-22.351-5.228c-1.678,2.564,9.751,8.211,8.588,10.434c-4.265-2.119-12.585-7.366-18.224-7.763
		c-11.357-0.803,1.318,7.17,2.346,9.933c-6.157-2.357-9.581-6.392-19.094-6.687c-1.078,3.189,2.447,3.552,2.666,5.945
		c-3.476-1.656-7.066-3.242-12.255-3.847c-1.895,1.561,1.917,3.234,1.929,5.314c-3.197-1.286-5.918-2.862-10.74-3.149
		c-1.129,1.333,2.102,2.546-0.228,2.847c-2.652-0.357-3.633-1.74-6.929-1.7c-0.774,1.557,0.981,1.563,0.551,2.91
		c-7.316-1.473-17.708-0.73-26.064,1.929c11.114,2.036,19.159,5.6,26.298,4.968c-0.061,0.759-0.122,1.518-0.182,2.276
		c2.867,0.21,6.895-1.742,7.938-1.084c0.209,1.396-1.523,1.125-1.008,2.788c5.463,0.842,7.134-1.576,11.151-1.979
		c-0.194,1.864-2.393,2.001-1.925,4.434c6.72,0.705,8.881-2.506,13.628-3.498c-0.663,2.271-2.96,3.139-2.843,6.078
		c8.813,0.683,12.414-3.12,16.976-6.092c-0.794,3.372-4.018,4.657-3.849,8.861c11.513,1.58,14.659-7.273,20.324-8.693
		c-2.002,2.741-3.378,6.021-3.939,10.003c14.153,2.025,16.511-9.334,22.937-11.924c-1.563,3.575-4.422,8.431-2.607,12.975
		c14.607,0.798,15.995-9.777,22.477-15.973c-2.55,5.726-7.227,18.039,5.056,15.309c9.637-2.142,11.641-16.445,17.243-19.258
		c-1.212,2.496-6.334,14.702-2.926,16.964c3.634,2.407,13.04-1.966,15.232-3.942c5.746-5.18,5.074-15.716,11.69-18.556
		c-0.752,8.04-2.392,20.507,5.521,19.357c11.556-1.679,13.255-15.918,16.963-25.585c0.094,7.853-1.506,19.415,6.208,20.558
		c5.583,0.828,14.978-9.66,14.582-15.457c1.968,17.487,21.687,5.733,21.748-6.859c0.671,9.272,7.403,11.123,14.37,6.88
		c6.109-3.721,9.665-17.294,8.887-22.791c-0.447-3.15-4.32-4.585,1.189-5.063c0.677,6.732-2.697,22.375,6.716,24.037
		c12.673,2.236,14.241-17.434,16.092-24.507c2.627,8.251,1.248,17.497,10.065,21.438c1.398,0.626,4.883,0.173,6.196,1.068
		c0.695,0.476-0.196,1.866,0.551,2.909c2.984,4.155,14.462,10.092,17.769,13.457c1.976,2.01,2.262,4.114,6.705,4.548
		c-2.508,0.48-4.282,1.594-7.204,1.718c1.98-4.688-3.861-5.381-7.303-6.888c-2.365-1.036-3.168-3.734-5.097-4.993
		c-3.893-2.544-30-13.592-31.025-4.773c-1.229,10.592,17.399,17.905,24.018,23.701c-5.521,2.106-5.499-0.339-6.887-2.271
		c-1.87-2.603-2.954-1.471-6.793-3.408c-3.744-1.888-9.958-8.052-16.436-10.484c-3.301-1.238-16.656-2.926-18.861,0.213
		c-1.424,2.026,1.535,7.604,2.438,8.793c1.534,2.021,19.817,14.196,19.191,15.29c-2.093,3.654-6.722-4.255-5.233-3.285
		c-3.919-2.551-20.122-11.874-29.563-13.252c-8.12-1.187-13.742,1.713-12.247,5.898c2.904,8.142,17.472,13.062,19.743,18.2
		c-11.252-3.351-25.122-19.645-41.173-15.326c-2.187,0.587-3.833,3.83-3.532,4.876c2.048,7.079,14.4,11.764,19.012,17.568
		c-12.245-2.533-22.964-15.873-39.06-12.292c-6.55,1.455-1.994,7.833,1.476,11.008c3.899,3.571,9.653,5.099,11.889,8.402
		c-11.011-3.806-22.532-14.76-36.765-11.536c-3.64,0.825-4.074,3.513-2.797,5.508c2.575,4.019,12.941,8.529,14.007,11.437
		c-10.155-2.091-20.953-12.19-33.004-9.515c-3.546,0.788-3.765,2.697-2.704,4.369c2.757,4.344,9.725,7.019,12.489,10.742
		c-5.06-0.612-13.896-7.033-22.169-7.504c-15.12-0.857-7.825,6.737-3.16,10.066c-4.151-2.593-18.305-6.639-20.974-2.824
		c-2.025,2.894,7.019,4.828,5.741,6.765c-3.212-2.073-11.238-3.213-16.293-2.45c-1.397,2.34,4.043,3.246,2.022,4.176
		c-3.088-0.812-6.791-1.246-10.879-1.442c-1.005,2.272,3.675,3.837,1.979,4.743c-3.003-0.864-5.603-1.978-10.053-1.949
		c-1.137,2.003,3.296,3.332,1.243,4.111c-2.446-0.845-5.082-1.571-8.491-1.825c-1.4,1.826,3.115,2.693,0.506,3.479
		c-4.462-2.377-5.71,0.519-7.159,1.149c-1.875,0.813-5.896,0.237-8.716,1.022c-0.43,0.119-0.188,1.423-0.917,1.646
		c-4.862,1.487-11.862,1.434-12.939,4.698c5.545-1.22,11.895,1.282,16.43,0.738c1.065-0.127,2.297-1.6,3.257-1.457
		c0.422,0.061,0.665,1.889,1.424,1.833c1.709-0.128,3.502-1.851,4.862-1.906c0.065,0.864-0.446,2.081,0.598,2.343
		c2.215-0.734,3.789-2.021,6.469-2.35c0.211,1.397-1.522,1.123-1.006,2.784c4.74,0.426,5.749-2.358,9.634-2.669
		c-0.089,1.345-1.477,1.57-1.053,3.355c5.234,0.838,7.882-3.754,10.46-3.176c0.026,1.847-1.572,2.3-1.145,4.493
		c6.515,0.523,9.52-5.194,12.984-5.268c-1.469,0.968-0.868,3.717-1.234,5.634c8.406,0.528,11.257-6.949,15.553-7.929
		c-1.291,2.544-2.402,5.241-2.289,8.987c11,0.131,13.041-7.448,18.256-12.295c-0.493,4.418-3.846,8.665-1.001,12.528
		c11.735-0.659,13.355-10.02,19.308-15.652c-1.024,3.421-4.341,12.219-0.357,14.302c1.952,1.019,10.257-2.404,12.113-4.19
		c4.512-4.349,3.073-11.216,6.645-14.372c0.03,4.292-4.492,13.659-0.495,16.008c2.067,1.216,9.128-0.776,11.149-1.974
		c6.934-4.103,7.114-16.048,11.827-20.263c-0.794,5.859-4.492,17.033,1.617,19.044c6.156,2.026,15.409-6.161,17.568-13.498
		c1.414-4.801-0.557-11.12,4.949-12.786c-0.569,7.458-4.679,19.297,2.125,22.522c3.589,1.701,11.188-1.288,13.626-3.496
		c6.954-6.293,2.712-19.561,8.428-26.838c-0.48,6.756-4.842,26.201,8.273,24.161c12.015-1.869,13.773-17.224,16.368-27.926
		c0.545-2.256-2.517-5.389,2.059-6.14c3.249,8.078-1.492,18.461,3.507,24.927c5.824,7.532,17.235-1.709,19.361-6.478
		c2.777-6.237-0.219-13.478,0.673-18.288c0.263-1.398,1.909-2.069,1.836-3.293c-0.252-4.165-3.053-6.702,2.888-6.646
		c1.897,9.479-0.139,22.847,8.001,27.579c7.124,4.139,15.444-6.911,16.605-11.283c1.191-4.492,1.156-14.733,0.722-18.859
		c-0.36-3.419-4.887-4.713-4.227-6.068c0.222-0.448,6.763-2.017,7.206-1.716c-3.006,2.583,0.622,4.745,1.058,6.389
		c2.279,8.585-0.351,22.333,11.49,23.272c3.079,0.245,9.119-4.229,10.823-7.733c4.642-9.517,1.075-24.946-4.655-30.177
		c3.19-0.503,5.439-1.815,8.076-2.794l-0.23-0.177c1.521-0.375,2.936-0.868,4.305-1.351c1.627-0.579,3.186-1.114,4.824-1.428
		l-0.042,0.225c-1.128,1.558-3.17,2.858-2.842,6.077c0.102,0.999,2.314,1.365,2.938,2.527c0.871,1.626-0.117,3.803,0.325,5.759
		c2.219,9.882,14.067,24.926,21.396,17.185c2.597,4.171,3.979,7.722,7.764,10.938c4.55,3.868,11.55,5.659,16.569,8.775
		c1.956,1.213,1.055,3.391,3.583,4.298c3.252,1.166,3.665-0.905,6.976,1.133c-5.095,1.298-8.732,3.849-13.762,5.204
		c-0.357-4.141-3.48-7.463-7.899-9.229c-1.274-0.51-2.315,0.656-3.948,0.257c-3.017-0.739-7.953-5.335-13.543-7.387
		c-4.198-1.544-11.423-3.522-15.422-3.526c-13.053-0.01-13.518,8.252-6.644,14.373c4.465,3.976,17.856,7.798,21.164,10.288
		c1.818,1.37,2.226,4.021,5.968,3.917c-6.247,1.606-9.91,6.336-12.758,2.419c-3.21-4.42-5.008-3.722-9.823-4.797
		c-3.035-0.68-7.728-4.898-13.588-6.818c-7.214-2.362-20.202-3.617-25.057-0.855c0.547-0.311-2.672,3.078-2.658,3.801
		c0.039,2.142,5.988,7.849,10.148,10.553c6.297,4.095,11.999,4.294,15.974,6.438c-0.835-0.453,3.625,3.735,3.629,3.729
		c-1.578,3.91-9.485-3.376-10.696-3.722c-1.384-0.395-3.358,0.12-4.682-0.373c-9.294-3.472-17.462-9.034-28.365-8.572
		c-3.702,0.155-10.756,1.197-12.112,4.19c-1.145,2.523,6.078,9.702,9.278,11.631c6.332,3.819,16.172,4.823,19.692,9.026
		c-9.897-1.097-28.108-12.238-43.189-9.757c-4.317,0.71-10.015,4.006-7.657,7.413c3.833,5.542,17.6,9.132,24.053,13.384
		c-10.979,0.132-27.03-10.617-40.983-7.859c-5.205,1.029-8.96,4.867-6.146,8.109c4.136,4.755,16.552,7.491,22.677,10.981
		c-7.33,1.061-14.562-3.396-23.176-4.721c-8.308-1.271-22.819-0.027-23.127,4.46c-0.045,0.644,5.262,4.935,6.612,5.687
		c4.898,2.724,12.285,3.092,15.237,5.803c-8.165,0.542-16.787-3.543-26.433-3.259c-4.348,0.128-14.255,2.763-13.812,5.776
		c0.593,4.026,13.925,4.578,18.226,7.76c-8.255-1.744-31.001-3.847-30.011,2.187c0.472,2.884,10.884,3.387,13.633,6.249
		c-10-1.384-20.461-3.024-25.238,1.421c1.848,1.756,4.944,2.741,6.702,4.549c-6.551-0.967-11.244-0.338-15.006,1.094
		c-0.466,2.814,5.222,1.85,5.143,4.423c-5.103-0.533-10.085-0.965-12.62,0.711c-0.155,1.902,3.015,1.76,3.676,3.159
		c-4.039-0.632-5.872,0.633-9.453,0.392c-1.033,1.598,3.571,2.416,1.332,2.974c-1.067,0.704-3.434,0.293-5.508,0.133
		c-2.666,0.928,1.738,2.585-0.229,2.848c-0.974,0.582-2.808,0.426-4.725,0.195c2.308,3.352-1.675,1.84-3.349,2.599
		c-0.538,0.244,0.276,1.937-0.182,2.277c-0.376,0.278-2.717,0.102-3.167,0.321c-4.467,2.157-9.223,7.138-11.742,9.379
		c10.626-2.104,19.072-3.61,24.914-7.182c-0.119,0.977,0.483,1.509,1.424,1.834c1.441-1.193,2.528-2.694,4.219-3.675
		c-0.226,1.402-0.365,2.753,1.333,2.972c2.065-1.469,3.867-3.167,5.872-4.689c-0.125,1.342,1.21,1.785,0.505,3.48
		c4.487-0.404,5.663-3.653,8.306-5.642c1.014,0.82,0.573,2.536,0.459,4.049c5.151-0.646,6.56-4.504,9.22-7.287
		c1.268,1.387,0.03,4.313,1.105,5.819c6.405-0.58,7.037-6.12,10.183-9.504c1.079,2.227,0.307,5.59,0.923,8.099
		c8.492-0.405,8.843-7.813,12.013-12.796c-0.636,4.002,0.758,6.756,1.568,9.869c7.525-0.832,8.611-7.2,11.926-11.658
		c-0.787,3.193,1.029,4.783,0.967,7.528c10.107-0.841,12.543-8.283,14.627-16.025c1.348,5.533-0.293,13.909,6.158,11.384
		c11.787-4.617,11.566-17.285,15.493-26.849c0.181,7.019,0.079,24.085,10.156,20.299c8.686-3.261,9.345-11.634,9.485-20.449
		c0.049-3.083-1.165-7.862,3.114-9.494c-0.449,7.064,0.146,20.316,5.291,22.202c2.36,0.865,10.944-3.089,12.985-5.267
		c7.682-8.197-0.43-24.353,7.092-29.811c1.728,7.181-0.384,19.107,5.157,23.912c-0.404-0.353,4.464,2.143,3.766,2.019
		c2.812,0.496,10.646-3.496,13.119-6.977c6.984-9.829-1.502-26.023,2.593-32.462c4.643,5.715,1.836,16.135,6.026,22.834
		c0.531,0.847,3.168,3.99,3.582,4.299c3.35,2.496,11.064-0.165,13.537-2.355c0.536-0.475-0.274-1.754,0.185-2.279
		c0.214-0.25,2.262-0.205,2.382-0.383c0.739-1.056,1.535-3.892,2.019-5.569c1.811-6.309-1.848-13.353-1.575-19.615
		c0.066-1.524,1.388-3.328,1.147-4.494c-0.344-1.64-3.141-3.544-2.759-4.806c0.5-1.645,4.413-2.5,5.78-3.551
		c-1.042,2.706,2.303,3.131,2.756,4.808c1.549,5.717-0.928,13.402,2.354,19.676c0.963,1.842,5.516,6.547,8.039,7.52
		c3.353,1.296,9.858-1.993,13.027-5.837c3.575-4.339,4.216-11.912,3.749-17.469c-0.295-3.537-3.262-7.423-2.391-9.361
		c0.574-1.279,2.594-0.366,2.477-1.523c-0.355-3.543-5.228-7.046-7.899-9.228c6.518-1.498,10.753-4.954,17.022-6.665
		c-3.483,4.937,0.811,5.758,1.704,8.161c2.101,5.664,0.743,11.751,2.626,16.259c0.021,0.049,1.99,0.963,2.25,1.325
		c2.52,3.567,4.151,8.139,7.073,9.738c3.885,2.126,11.725-0.72,13.58-2.929c2.961-3.524,1.399-12.154,2.19-17.594
		c0.108-0.734,1.78-0.913,1.697-1.584c-0.371-3.004-5.49-7.944-4.642-10.688c0.254-0.813,2.883-0.29,2.523-2.09
		c-0.798-3.978-5.76-6.579-11.065-8.909c2.77-1.27,6.097-2.059,8.165-3.934l-0.298-0.169c6.125-1.776,11.811-4.137,16.624-6.915
		l-0.084,0.359c0.244,1.755-5.181,5.069-3.805,8.293c0.378,0.885,3.295,1.317,3.719,2.589c0.908,2.738-1.079,6.261,0.097,8.605
		c0.56,1.115,2.62,1.582,2.938,2.528c1.463,4.35,1.324,6.2,3.22,8.855c2.833,3.97,5.034,9.092,7.809,10.366
		c4.585,2.11,6.478-0.529,7.937-1.084c4.588-1.74,8.433-9.027,8.252-14.815c-0.06-1.927-2.252-4.209-1.931-5.313
		c0.104-0.355,2.48-0.352,2.43-0.952c-0.286-3.57-6.28-9.033-6.11-11.954c0.025-0.449,3.897-1.382,4.128-2.534
		c0.699-3.484-10.698-10.546-16.572-8.777l-0.387-0.071c1.551-1.107,3.613-1.842,5.786-2.61c2.169-0.77,4.394-1.564,6.271-2.788
		c23.353,8.732,44.548,17.885,63.003,27.222c1.127,0.568,2.625,0.384,3.343-0.415c0.232-0.256,0.354-0.542,0.379-0.835
		c0.05-0.617-0.349-1.253-1.112-1.64c-18.8-9.511-40.393-18.827-64.184-27.7c-3.636-4.218-10.364-6.677-15.817-8.664l-0.293-0.104
		l0.522-0.359c-2.021-1.316-3.839-2.755-4.906-4.658c0.184-1.012,0.131-2.013,0.078-2.93c-0.056-0.955-0.102-1.824,0.101-2.592
		l0.039,0.06c2.42,3.986,11.199,7.791,18.406,5.483c1.128-1.656-2.435-3.111-0.508-3.48c5.512-0.472,13.168,2.229,18.036,0.295
		c1.616-0.642,0.935-2.265,2.566-2.659c1.455-0.353,3.366,0.695,5.463,0.437c4.446-0.554,15.997-5.572,17.937-8.312
		c0.296-0.417,1.313-4.759,1.19-5.063c-2.636-6.616-24.522-8.184-34.146-5.021c-1.815-5.406-14.082,2.83-16.705,2.676
		c-1.765-0.103-2.893-2.214-4.542-2.081c-3.196,0.255-4.643,1.786-6.513,2.916c0.049-0.149,0.078-0.303,0.067-0.464
		c-0.067-1.036,0.1-2.141,0.278-3.307c0.106-0.699,0.219-1.427,0.277-2.173c0.115-1.441,0.027-2.948-0.651-4.44l0.846,0.135
		c2.027-2.238-0.17-5.741,2.108-6.71c1.778-0.758,5.623,2.279,9.224,2.455c4.597,0.229,4.476-2.32,6.516-2.918
		c5.405-1.581,13.35-1.807,19.18-4.197c4.169-1.713,10.563-5.876,11.604-7.673c4.546-7.825-5.549-11.748-14.004-11.435
		c-8.685,0.32-17.623,4.977-23.218,5.595c-5,0.555-6.276-1.112-7.984,1.655c1.052-3.528-0.329-7.301,2.245-8.418
		c1.52-0.661,8.767,1.815,11.658,1.504c0.59-0.063,2.082-1.715,3.3-2.029c5.082-1.312,14.356-1.282,20.694-3.505
		c3.906-1.368,5.276-3.562,6.698-5.195c1.271-1.459,3.604-0.774,4.035-1.397c-0.008,0.013,2.113-6.072,1.37-7.342
		c-5.257-8.999-29.348-1.374-37.672-0.145c-2.354,0.347-6.409-0.937-7.895,0.515c0.944-7.799,4.651-3.431,12.895-4.128
		c0.942-0.079,2.284-1.772,3.3-2.028c10.039-2.529,24.962-2.391,30.511-8.453c7.536-8.224-4.462-11.972-14.736-12.068
		c-11.417-0.105-17.79,4.5-24.551,2.623c1.349-4.883,5.063-1.939,11.196-2.544c0.991-0.098,2.141-1.513,4.082-1.966
		c8.925-2.083,23.729-3.742,28.952-8.577c1.785-1.653,4.185-8.546,1.645-10.759c-2.546-2.22-20.02-0.99-28.314,0.603
		c-2.112,0.405-9.017,3.347-10.322,1.468c-1.915-2.747,12.11-5.276,13.808-5.774c10.312-3.02,23.911-4.898,27.621-11.548
		c1.922-3.453,1.251-10.885-7.121-9.168c1.806-2.538,8.958-2.773,11.467-5.961c0.5-0.631,2.055-6.56,1.372-7.341
		c-0.281-0.325-6.098-2.144-6.884-2.27c-7.577-1.224-19.467,2.109-25.284,1.991c9.567-4.783,33.232-6.708,33.673-18.517
		c0.246-6.658-12.418-2.118-19.414-2.698c6.005-0.951,16.391-4.363,18.764-8.818c1.835-3.445,0.621-7.683-4.09-7.778
		c-5.699-0.115-16.177,4.016-19.915,3.567c8.329-5.229,24.271-6.414,21.188-19.515c-7.177-0.082-13.683,3.644-18.352,3.692
		c5.85-4.502,15.416-5.811,14.625-16.026c-5.925-0.229-8.617,2.326-13.581,2.927c3.85-3.946,11.179-6.222,8.94-13.615
		c-4.567,0.127-6.465,2.555-10.46,3.176c2.082-3.484,6.227-5.195,5.59-11.017c-3.85-1.053-5.576,2.878-7.204,1.715
		c2.012-2.326,4.152-4.544,4.586-8.231c-3.184-0.91-3.137,0.955-5.554,0.703c1.649-1.22,1.845-3.688,2.797-5.508
		c-1.606-2.144-3.577,1.558-4.684-0.375c0.879-1.274,1.596-2.688,1.928-4.431c-0.93-1.479-2.438,0.839-3.076-0.818
		c0.364-5.589-3.107-13.161-7.216-17.773c-1.266,5.982-4.187,12.293-2.191,17.594c-1.765-0.301-2.944-0.097-3.213,0.891
		c1.026,1.175,1.615,2.618,2.023,4.173c-1.042-0.083-2.08-0.166-3.123-0.249c-0.296,2.529,1.643,3.684,1.886,5.883
		c-2.296-0.035-2.292-1.48-4.589-1.515c-1.133,3.956,4.332,6.713,3.218,8.855c-1.859-0.672-4.457-2.52-6.15-1.637
		c-0.79,4.824,5.923,7.904,5.423,10.75c-2.854-1.135-4.888-2.774-9.18-3.026c-1.811,5.991,5.597,9.191,6.112,11.953
		c-2.599-1.656-6.123-2.738-9.917-3.658c-2.502,9.123,8.466,12.847,10.385,17.452c-5.874-4.724-20.291-12.115-17.256-0.232
		c1.691,6.622,14.114,11.272,16.76,16.24c-5.412-1.572-15.071-11.819-20.427-9.656c-6.034,2.435,0.657,13.419,4.92,17.015
		c4.873,4.112,12.667,5.954,12.536,10.173c-6.239-4.07-29.885-16.454-27.907-4.523c0.743,4.46,7.654,10.603,9.189,12.771
		c-6.943-4.901-16.018-4.917-15.923,2.74c0.127,10.243,21.172,18.046,24.75,24.332c-7.515-2.697-15.189-10.603-24.971-11.74
		c-4.943-0.574-7.651,1.114-8.12,3.364c-1.442,6.904,7.974,13.988,13.503,17.703c-5.128-2.347-16.311-6.971-18.635-2.636
		c-0.786,1.469-1.153,3.154-1.144,4.494c0.066,8.648,11.932,14.19,21.17,20.034c3.031,1.918,4.063,4.377,6.657,5.116
		c4.066,1.161,6.22,0.283,5.188,3.854c-12.131-4.464-17.897-14.21-33.282-15.843c-6.66-0.707-6.853,6.834-6.232,9.247
		c2.372,9.292,14.337,12.824,22.908,17.879c0.706,0.415,2.558,3.561,5.924,4.485c6.436,1.769,9.111,1.205,5.742,6.765
		c0.135-4.519-4.691-3.239-7.53-4.04c-5.232-1.479-14.417-8.78-22.678-10.984c-10.399-2.775-16.664-0.439-15.413,6.22
		c0.66,3.53,6.481,9.927,11.526,12.958c5.226,3.14,12.623,4.207,17.535,6.561c0.228,0.106,0.277,2.092,0.597,2.341
		c3.451,2.678,9.16,1.201,13.999,1.691c-0.722,2.627,0.475,6.901-1.464,8.48c-0.804-5.469-3.677-4.322-8.218-5.243
		c-3.844-0.777-9.022-4.812-14.413-6.31c-7.701-2.143-20.854-3.299-23.589,0.407c-3.214,4.358,6.302,12.543,9.831,14.543
		c5.38,3.05,13.006,3.58,19.096,6.683c1.251,0.64,0.825,1.988,2.159,2.466c5.714,2.056,10.687,0.564,14.135-0.015
		c-0.213,2.655-0.427,5.314-0.639,7.973c-1.712-3.243-3.583-1.99-8.355-3.533c-3.782-1.223-7.862-4.973-14.414-6.311
		c-9.417-1.925-18.054-2.811-17.619,4.323c0.136,2.201,3.722,7.586,7.81,10.368c3.882,2.644,12.809,4.349,15.976,6.436
		c1.404,0.925,0.35,1.978,1.377,2.403c5.397,2.235,9.667,0.303,13.182-0.061c0.224,1.239,0.027,2.589-0.186,3.992
		c-0.166,1.073-0.319,2.177-0.311,3.298c-1.372-1.635-2.157-3.513-5.801-4.961c-1.141-0.453-2.693,1.105-3.993,0.828
		c-2.49-0.533-5.116-4.469-8.95-5.874c-1.197-0.439-2.801,0.508-3.947,0.259c-2.975-0.655-5.139-2.887-8.354-3.535
		c-16.921-3.411-30.347,0.161-18.418,10.925c-2.557-0.802-4.968-2.042-7.477-3.339c-3.106-1.606-6.322-3.253-10.077-4.193
		c-3.377-3.496-8.126-6.146-13.071-7.31l0.716-0.519c-4.597-4.22-17.565-6.173-12.995-14.221c1.613,3.215,8.21,6.702,12.944,5.047
		c1.64-0.574,0.446-2.536,1.789-2.723c2.566-0.362,6.61,0.912,9.361,0.748c1.072-0.065,1.246-1.247,2.477-1.521
		c5.687-1.275,13.493-0.444,19.088-3.062c0.951-0.447,0.186-1.575,0.964-2.215c1.647-1.357,4.072-1.348,4.907-2.475
		c5.794-7.813-15.344-9.282-26.716-9.587c-5.19-0.137-11.11,1.604-14.27,1.727c-1.463,0.057-6.472-3.316-8.627-0.116l-0.174,0.018
		c0.665-1.923,1.082-3.742,1.222-5.473c0.058-0.71,0.066-1.404,0.035-2.09l0.29,0.202c1.111-5.016,5.975,0.146,12.572-0.142
		c1.231-0.054,2.111-1.746,3.303-2.028c3.752-0.885,8.627-1.038,10.323-1.468c10.367-2.616,20.249-4.784,19.818-12.172
		c0.069,1.192-1.231-2.288-1.38-2.404c-7.377-5.799-24.716-0.282-32.166-0.277c-5.125,0.003-5.533-0.451-8.721,1.024
		c1.857-3.033,0.758-6.777,3.756-7.727c-0.021,0.008,5.293,1.828,7.714,1.764c1.736-0.047,2.922-1.453,4.862-1.904
		c12.142-2.822,28.46-4.095,30.049-12.501c1.3-6.859-14.765-7.988-26.207-6.106c-5.72,0.94-10.439,3.07-15.142,2.802
		c-0.967-7.563,7.95-3.236,12.203-5.33c9.307-4.579,24.827-4.945,29.226-11.993c1.983-3.178,0.778-7.19-3.221-8.855
		c-9.938-4.142-21.535,3.919-32.44,3.139c1.008-4.439,5.683-2.696,10.507-3.746c5.271-1.146,19.603-5.725,23.398-7.874
		c6.808-3.852,10.863-13.456,0.355-14.3c-9.995-0.805-21.502,4.947-28.629,4.589c5.912-7.967,24.987-7.224,31.883-15.794
		c3.623-4.506,2.651-11.268-4.599-11.257c-7.847,0.011-15.431,4.391-21.655,5.72c7.748-6.983,29.075-7.257,31.976-16.932
		c1.063-3.552-0.702-5.966-8.174-5.812c-6.435,0.132-14.425,3.441-19.958,4.136c7.114-6.441,24.955-8.092,25.778-18.001
		c0.342-4.131-0.966-5.003-5.924-4.485c-4.969,0.518-13.343,4.857-16.838,4.387c2.93-3.127,16.174-6.462,18.208-11.729
		c4.695-12.142-10.167-6.146-16.2-3.586c5.85-4.303,15.821-5.06,14.583-15.459c-4.933,0.02-7.979,1.66-11.978,2.483
		c3.414-3.151,8.175-5.144,7.979-11.399c-2.625-1.336-5.541,1.502-8.765,1.592c1.931-3.005,5.721-4.413,5.455-9.308
		c-2.08-2.127-4.586,2.594-6.333,0.639c1.845-1.658,3.699-3.311,3.666-6.584c-1.106-0.401-4.084,0.344-3.854-0.881
		c1.475-0.965,2.756-2.093,2.705-4.369c-1.16-0.191-2.896-0.027-3.076-0.819c1.172-4.739-1.001-14.727-6.345-18.848
		c-0.85,11.021-7.525,14.563-5.813,23.609c-1.468-0.363-1.863-1.384-3.81-1.451c-0.909,3.445,1.216,5.03,1.748,7.59
		c-2.239-0.712-4.595-3.28-6.886-2.27c-0.27,3.967,4.349,7.792,3.908,10.058c-1.963-1.323-4.444-2.326-6.793-3.409
		c-3.23,5.246,4.536,10.787,5.192,13.597c-3.823-1.622-6.332-4.052-11.382-4.921c-3.643,7.785,6.773,13.178,8.82,17.327
		c-4.48-2.664-8.094-5.859-15.147-6.941c-5.74,10.489,11.012,16.725,14.654,22.952c-5.302-2.449-23.314-14.411-22.489-3.518
		c0.662,8.721,15.314,13.841,21.126,20.604c-6.412-2.022-15.033-7.256-22.954-7.566c-0.061-0.003-4.046,0.334-3.945,0.256
		c-6.801,5.115,7.907,13.456,7.352,16.064c-17.476-6.238-7.465,12.453-3.566,15.191c-7.932-4.274-11.257,0.57-10.644,5.455
		c1.324,10.534,23.722,17.141,27.915,24.012c-11.778-3.22-16.823-12.497-31.212-12.239c-2.722,0.048-5.135,4.547-5.181,5.891
		c-0.28,8.008,13.663,12.56,22.908,17.88c2.043,1.175,2.804,3.139,4.411,3.792c4.938,2.003,11.028,1.055,6.564,6.256
		c0.135-3.075-3.371-2.379-6.013-3.346c-5.33-1.957-15.54-9.053-20.383-10.228c-0.814-0.199-9.717-1.046-10.144-0.811
		c-3.313,1.827-0.438,10.412,1.342,12.716c4.085,5.299,22.298,15.333,33.234,16.413c-0.666,2.066,0.558,5.754-1.327,6.771
		c0.348-3.886-2.915-2.734-6.748-3.977c-2.35-0.763-31.439-16.887-31.806-4.836c-0.317,10.421,12.361,12.721,22.132,17.818
		c3.348,1.747,8.278,6.447,14.594,4.032c-0.663,2.066,0.559,5.754-1.324,6.771c0.311-4.119-4.339-2.609-6.795-3.406
		c-3.456-1.126-7.83-5.811-14.324-7.452c-8.446-2.136-16.948-2.364-16.789,3.818c0.222,8.872,17.97,13.655,22.082,18.388
		c-5.013-3.463-23.671-10.923-29.371-5.787c-4.458,4.013,4.25,10.278,7.246,13.471c-1.234-0.486-2.426-1.147-3.656-1.837
		c-1.972-1.102-4.011-2.23-6.537-2.856c-3.143-3.164-7.81-6.763-13.572-7.969l0.777-0.348c-5.49-6.377-19.646-7.43-19.836-17.061
		c3.12,2.108,5.267,5.012,10.648,4.289c1.237-0.165,2.025-1.428,3.258-1.458c1.859-0.046,4.521,1.136,6.975,1.13
		c10.676-0.025,25.011-4.06,23.493-9.014c0.104,0.337-2.915-3.027-2.159-2.465c-7.731-5.74-30.846-5.094-37.266-5.271
		c0.91-7.755,3.501-4.541,11.376-4.822c1.209-0.044,2.188-1.23,3.257-1.461c7.664-1.643,15.114-1.179,20.007-4.706
		c3.734-2.691,4.75-8.141,0.775-9.682c-8.914-3.453-20.918,0.818-29.097,0.541c1.833-5.011,2.943-3.462,9.728-3.808
		c9.112-0.467,25.037-6.537,26.791-11.042c4.339-11.143-21.764-5.802-29.419-5.216c1.425-3.377,4.502-1.468,8.81-2.164
		c9.501-1.529,25.821-7.443,26.242-13.95c0.566-8.807-28.354-0.408-29.647-2.371c-0.48-0.727,2.496-2.625,2.567-2.66
		c11.365-5.649,33.813-3.732,29.678-17.688c-8.206-3.437-20.475,1.858-26.842,1.866c8.723-7.763,30.956-4.887,29.08-20.029
		c-10.789-1.769-19.002,1.91-24.55,2.624c5.598-4.347,21.137-5.889,23.809-13.001c3.759-10.004-11.904-5.215-20.148-3.33
		c7.301-5.693,21.503-5.446,20.319-18.438c-4.966-1.023-6.823,0.625-10.28,0.9c3.916-1.825,12.341-9.615,6.509-12.665
		c-2.957-1.545-7.941,3.622-12.022,3.051c3.85-3.038,11.522-5.834,8.851-12.476c-3.128-0.231-6.543,2.459-7.984,1.655
		c2.827-1.939,7.218-5.407,5.452-9.309c-3.155-0.854-5.056,2.502-6.378,1.21c1.651-2.232,3.936-3.92,3.76-7.724
		c-2.565-1.121-3.522,2.15-4.728,0.195c0.716-1.575,3.162-3.672,1.971-5c0.46-1.573-3.023,1.194-3.076-0.82
		c1.174-0.612,1.637-1.84,1.833-3.292c-4.32,0.341-1.735-2.541-2.021-4.174c-0.773-4.466-3.387-10.609-6.021-13.091
		c-2.791,9.502-6.657,14.63-5.674,21.9c-1.901,0.082-1.616-1.176-3.856-0.88c-1.113,3.392,2.176,4.078,1.795,7.021
		c-1.647-0.612-2.544-1.687-5.37-1.576c0.277,3.623,2.671,5.942,3.997,8.918c-3.226-0.546-4.392-2.357-7.619-2.902
		c-1.942,5.533,4.835,8.573,4.599,11.257c-2.6-1.474-4.755-3.217-9.137-3.596c-2.163,6.389,4.714,10.095,5.24,13.029
		c-21.41-9.412-1.773,14.76,2.626,16.259c-3.642-0.959-14.752-10.073-19.096-6.685c-3.244,2.534,2.752,10.845,5.243,13.028
		c4.531,3.981,10.077,4.409,11.891,8.403c-4.16-2.213-22.309-15.527-21.019-2.252c0.813,8.406,14.996,12.361,18.917,18.707
		c-6.369-3.863-29.949-15.548-25.01-1.425c2.921,8.364,19.13,11.471,22.818,19.02c-7.007-2.184-12.829-7.695-20.474-9.088
		c-1.251-0.229-4.35,0.633-5.506,0.133c-0.992-0.43-0.37-2.888-1.289-3.541c-5.307-3.777-15.146,0.479-21.936-0.608
		c6.028-2.697,20.769-3.582,24.271-8.95c7.117-10.897-13.653-6.291-19.187-5.547c3.37-2.585,19.645-5.049,22.067-10.847
		c3.608-8.631-7.196-5.662-12.946-5.045c5.805-3.33,13.845-4.731,12.888-13.874c-3.481-0.56-5.87-0.179-8.628-0.115
		c4.188-3.094,9.915-4.863,8.85-12.476c-4.422-0.342-9.082,2.315-11.885,1.342c5.746-1.958,11.355-4.029,11.1-11.151
		c-4.154-0.324-5.976,1.353-9.547,1.531c2.282-2.501,5.851-3.896,5.409-8.741c-2.877-0.81-5.204,1.961-6.332,0.643
		c1.986-1.944,4.221-3.675,4.493-7.093c-2.18-0.974-4.088,1.235-4.682-0.375c0.929-0.865,3.202-3.686,1.189-5.063
		c-0.252,0.501-3.573,1.237-3.166,0.32c0.989-1.178,2.2-2.167,1.926-4.433c-1.718-0.925-3.052,1.234-3.121-0.249
		c2.194-4.4-2.33-11.673-4.969-16.446c-2.657,7.863-6.297,12.262-5.447,19.053c-1.039-0.263-1.425-0.931-3.075-0.82
		c-1.054,2.48,2.503,4.925,1.104,5.82c-1.345-0.617-1.854-1.747-4.588-1.513c-1.037,3.001,3.033,5.693,1.794,7.022
		c-1.606-0.458-2.113-1.591-4.591-1.515c-1.604,3.89,2.558,7.079,1.658,8.733c-2.156-0.661-3.054-2.097-6.104-2.208
		c-1.257,4.924,1.604,7.318,3.08,10.563c-2.398-0.872-3.975-2.252-6.84-2.84c-2.406,5.505,1.08,9.514,3.634,13.474
		c-2.362-1.255-5.124-2.269-8.398-2.964c-3.839,9.426,5.398,13.975,10.199,19.73c-4.706-2.402-11.203-6.395-17.579-5.99
		c-2.975,12.479,11.185,14.431,16.307,21.938c-4.285-2.464-21.711-13.845-21.709-3.454c0,7.409,13.609,12.73,17.357,18.583
		c-4.502-2.917-21.137-13.194-21.019-2.254c0.084,7.603,14.935,13.054,16.625,17.952c-5.563-3.435-21.124-12.538-21.756-2.886
		c-0.567,8.712,15.803,12.907,18.828,19.847c-5.383-3.178-25.939-13.803-23.493-0.731c0.797,4.271,10.262,10.067,15.425,13.269
		c2.108,1.307,7.705,1.067,5.145,4.424c-4.296-5.031-31.845-18.042-27.905-4.522c1.335,4.575,12.02,8.907,12.398,11.881
		c-0.783-0.062-0.891-0.536-1.515-0.695l-0.889,0.33c-0.039-0.053-0.082-0.106-0.136-0.157c-5.108-4.909-11.396-9.202-17.476-13.354
		c-5.511-3.762-11.18-7.647-15.925-11.957l0.311,0.058c0.031-0.38,0.062-0.758,0.092-1.138c9.104,6.005,35.08-0.579,29.641-7.376
		c-3.316-4.145-13.743-2.002-21.707-3.454c3.379-3.638,16.466-2.131,21.656-5.721c10.546-7.297-5.106-10.607-15.013-8.652
		c4.362-3.186,18.425-3.042,21.839-7.998c6.672-9.688-10.577-6.751-15.931-7.005c3.615-1.536,15.56-2.749,19.363-6.477
		c8.177-8.019-4.02-8.84-11.893-8.403c9.486-1.406,20.328-4.796,19.127-13.373c-5.954-0.659-10.441-0.056-14.957,0.523
		c6.941-3.797,20.304-5.225,17.704-15.208c-4.09-0.256-9.209,1.799-11.84,0.773c7.022-2.086,13.601-5.666,13.529-12.102
		c-4.634-1.128-8.018,2.008-11.015,0.267c5.409-1.454,11.95-5.548,8.712-10.769c-2.115,1.02-4.777,1.573-7.982,1.655
		c2.83-2.638,7.541-3.658,7.015-9.184c-2.564-0.93-4.306,1.901-5.508,0.134c2.078-1.663,4.548-2.986,4.448-6.522
		c-1.879-0.896-3.371,1.412-3.903-0.312c0.796-1.551,2.708-2.136,2.707-4.369c-1.877-0.895-3.888,0.967-3.902-0.313
		c0.793-1.55,2.707-2.135,2.707-4.369c-1.718-0.923-3.051,1.234-3.122-0.25c2.598-3.715-0.488-11.017-3.543-14.613
		c-1.983,7.261-7.347,11.236-6.918,17.79c-1.467-0.363-1.863-1.384-3.811-1.452c-0.542,2.682,0.806,4.199,1.061,6.392
		c-2.327-0.196-2.534-1.694-4.544-2.084c-1.235,4.189,1.299,6.061,1.612,9.3c-2.388-1.062-3.604-2.841-6.795-3.41
		c-1.742,4.332,2.124,8.069,1.567,9.871c-2.414-0.685-3.12-2.416-6.06-2.778c-2.705,3.446,0.296,7.646,1.521,10.439
		c-2.476-0.283-3.331-1.565-6.151-1.638c-3.134,5.827,1.224,9.987,3.592,14.044c-2.65-1.083-4.669-2.549-8.402-2.963
		c-4.868,9.191,6.874,14.607,8.64,19.605c-5.17-3.387-16.369-9.809-15.694-0.107c0.37,5.321,10.268,10.795,10.7,13.464
		c-6.117-3.433-15.698-9.336-14.958,0.524c0.412,5.486,10.328,10.875,10.7,13.465c-3.571-0.812-9.568-7.034-14.504-5.17
		c-8.006,3.02,6.246,15.508,9.512,18.529c-3.314-0.533-9.392-6.136-13.817-3.972c-6.884,3.368,5.266,13.019,5.885,14.801
		c-2.896-0.987-9.944-4.016-12.393-2.136c-4.748,3.647,5.448,9.246,6.747,12.29c-5.073-2.772-9.624-6.291-14.04-9.709
		c-4.643-3.597-9.449-7.305-14.959-10.268l0.91-0.324c0.061-0.759,0.12-1.518,0.182-2.278c7.848,4.603,27.117-1.933,24.132-7.242
		c-1.868-3.323-12.694-1.931-17.026-3.081c0.505-2.845,12.901-3.031,17.021-6.665c1.666-1.468,4.493-6.204,2.979-7.785
		c-2.184-2.277-8.297,0.206-11.748-0.366c9.998-1.255,25.389-16.063,6.322-14.607c-0.441,0.074-0.856,0.113-1.239,0.11
		c0.431-0.045,0.84-0.08,1.239-0.11c6.396-1.068,18.268-9.656,13.117-12.498c-3.499-1.931-9.531,1.564-12.575,0.14
		c5.604-3.497,13.851-4.725,12.887-13.872c-3.92-0.328-5.823,1.078-9.499,0.96c4.741-2.82,10.299-4.941,9.63-12.414
		c-2.882-0.045-4.43,1.059-7.158,1.146c3.378-1.963,5.403-5.09,6.234-9.246c-1.806-2.025-5.295,1.53-6.287,0.072
		c1.51-2.15,3.77-3.658,3.712-7.156c-2.564-1.121-3.522,2.151-4.727,0.196c1.452-1.187,2.137-3.033,2.016-5.571
		c-1.408-0.661-2.742,1.498-3.12-0.249c1.141-0.642,0.692-2.651,1.833-3.294c-6.295-0.937-3.227-11.527-9.05-14.479
		c-0.793,6.914-5.288,9.953-3.569,15.19c-1.486,0.01-1.67-0.779-3.075-0.819c-0.521,2.306,0.433,3.706,1.15,5.251
		c-2.386-0.029-2.886-2.067-4.635-0.943c0.396,2.283,1.298,4.257,1.84,6.451c-2.479,0.08-1.626-1.89-4.59-1.513
		c-1.439,3.787,2.958,6.831,1.658,8.73c-2.227-0.437-2.278-2.211-5.326-2.145c-1.991,4.844,2.363,8.646,2.303,10.501
		c-2.747-0.298-3.357-1.909-6.104-2.207c-3.952,4.87,2.715,10.534,2.898,12.842c-6.436-1.535-7.044-4.96-14.642-3.462
		c4.104-2.158,10.513-5.561,7.978-11.4c-0.535,0.438-3.789,1.492-3.946,0.257c3.178-1.73,5.189-4.464,6.144-8.107
		c-2.055-1.694-3.896,0.227-6.286,0.071c2.063-2.283,4.552-4.198,4.583-8.23c-2.564-0.931-4.304,1.9-5.507,0.133
		c1.408-1.629,2.582-3.461,2.841-6.078c-1.878-0.896-3.371,1.412-3.9-0.311c0.784-7.256-5.62-14.532-9.331-20.808
		c-1.402,6.81-5.36,11.788-3.705,16.899c-0.931-0.855-3.751-1.185-3.947,0.258c0.974,1.387,1.349,3.142,1.977,4.744
		c-1.606-0.458-2.115-1.589-4.591-1.513c-0.78,3.188,1.401,4.556,1.795,7.021c-1.84-0.135-2.218-1.166-4.636-0.943
		c-0.778,3.727,1.208,5.755,2.483,8.223c-1.839-0.135-2.219-1.166-4.635-0.944c-0.959,4.199,0.798,6.731,2.392,9.363
		c-2.419,0.221-2.215-1.166-4.636-0.944c-1.893,4.424,2.091,8.089,1.567,9.87c-4.628,0.134-3.039-3.551-8.399-2.964
		c2.778-2.276,5.701-4.428,6.923-8.046c-0.062-1.586-3.804-0.912-4.544-2.081c3.335-1.395,5.161-4.083,5.363-8.171
		c-1.876-0.894-3.888,0.97-3.9-0.311c2.398-1.589,3.553-4.249,4.493-7.093c-1.693-1.464-2.601,0.854-5.508,0.134
		c1.343-1.889,3.244-3.295,3.622-6.016c-1.041-1.672-3.27,0.734-3.854-0.881c1.424-0.802,1.894-2.429,1.925-4.431
		c-1.717-0.925-3.051,1.233-3.121-0.249c-0.055-4.811-3.022-12.118-8.18-15.557c0.349,9.794-8.479,14.82-8.152,23.424
		c-1.102-0.752-1.915-0.818-3.122-0.25c-0.469,2.635,0.249,4.54,1.059,6.388c-1.361-0.065-2.416-0.32-3.075-0.817
		c2.053,8.23-6.738,10.744-1.411,17.655c-7.286-1.174-3.448,7.163-2.289,8.987c-7.578-0.616-2.624,6.917-2.335,9.558
		c-2.452-0.186-4.202-2.229-6.195-1.069c-0.386,4.208,2.792,6.229,3.953,9.487c-4.388-4.346-11.265-7.161-13.912-12.577
		c7.605-0.153,12.237-2.865,13.256-8.684c-1.109-0.402-4.086,0.344-3.856-0.881c3.458-1.692,5.943-4.221,6.19-8.676
		c-1.109-0.402-4.087,0.344-3.856-0.882c2.642-1.72,9.387-7.115,3.94-10.001c2.524-1.878,3.226-4.234,3.713-7.155
		c0.115-0.697-2.109-1.188-2.205-1.896c-0.176-1.303,2.729-3.781,2.75-4.939c0.018-0.937-2.074-0.497-2.25-1.327
		c-0.275-1.296,1.26-2.967,1.145-4.494c-0.367-4.885-5.971-15.503-9.466-19.099c0.873,5.147-7.451,11.083-9.213,17.032
		c-0.912,3.079-2.061,2.646-2.704,4.37c-0.556,1.487,0.293,3.262-0.365,4.557c-0.497,0.979-2.221,0.882-2.522,2.092
		c-0.463,1.858,1.288,5.988,0.188,7.465c-0.307,0.412-2.983-0.452-3.167,0.321c-0.738,3.115,0.775,5.986,1.658,8.729
		c-6.658-0.217-1.502,6.16-2.289,8.989c-1.65-0.613-2.544-1.688-5.37-1.576c-1.254,4.742,3.012,6.093,3.952,9.486
		c-4.606-3.85-9.948-7.248-13.179-11.943c5.076-0.837,10.393-4.517,11.742-9.378c0.003-0.009-2.212-0.133-2.34-0.187
		c-1.794-0.787,4.957-4.25,4.583-8.233c-0.301-3.238,1.643-4.712,2.245-8.418c0.062-0.384-2.202-1.718-2.205-1.895
		c-0.019-1.565,1.906-3.393,1.971-5.002c0.104-2.594-1.911-5.384-2.621-6.514c-2.578-4.102-2.78-12.15-9.05-14.479
		c0.461,6.274-5.417,10.93-7.516,15.448c-1.309,2.818-2.399,3.966-2.795,5.509c-0.34,1.326,0.905,3.296,0.417,4.619
		c0.02-0.055-2.036,0.259-2.432,0.953c-1.537,2.682-0.385,8.321-1.783,12.467c-2.477,0.089-2.95-1.484-4.681-0.375
		c-0.583,2.888,1.548,4.105,1.839,6.453c-2.902-2.368-6.507-4.307-8.035-7.519c8.523,0.688,5.435-5.246,7.061-9.755
		c1.642-4.547,5.664-8.498,6.417-11.523c0.175-0.705-1.411-1.844-1.333-2.972c0.113-1.639,1.931-2.191,1.834-3.293
		c-0.59-6.679-5.573-14.631-10.383-17.452c-1.778,6.742-10.799,18.39-13.017,25.326c-1.322,4.14-1.263,3.803-5.733,2.981
		c-0.368,2.392,0.908,3.774,1.104,5.819c-0.657-0.787-5.96-3.823-5.832-5.625c0,0.007,3.524-1.724,4.128-2.536
		c0.86-1.155,1.993-4.602,2.061-6.14c0.458-10.343,4.83-19.685-7.313-26.377c-1.783,2.938-7.381,10.652-9.031,14.753
		c-0.78,1.938-0.266,5.245-2.062,6.142c-0.699,0.349-3.291-1.22-3.075-0.819c-0.583-1.08,1.732-5.082,2.152-7.28
		c2.131-11.155,0.565-17.863-7.632-22.391c-4.165,4.736-5.906,11.56-9.213,17.033c-2.604-8.694,3.256-22.057-8.92-25.934
		c-3.294,3.659-3.712,9.793-6.599,13.804c-0.24-8.339,1.127-17.665-6.118-21.699c-3.207,2.925-3.624,8.247-6.417,11.525
		c-1.379-7.097,0.116-15.958-7.081-19.481c-2.002,2.945-1.866,7.729-4.72,9.94c-0.433-6.234-0.612-12.622-6.618-15.432
		c-0.85,2.313-0.627,5.547-2.887,6.646c0.044-5.442-1.68-9.8-5.241-13.029c-1.786,0.696,0.098,4.548-2.705,4.369
		c0.182-4.263-0.816-7.803-4.732-9.548c-0.201,0.842,0.11,2.125-0.962,2.217c-2.64-8.957-12.393-12.315-18.003-20.356l-0.417,0.363
		c-1.561-3.055-3.032-5.958-4.13-9.001C114.209,4.209,112.932,3.622,111.689,3.819z M410.811,283.553
		c3.04-3.788,11.188-13.81,2.146-17.024c3.169-1.736,4.692,2.148,7.665,2.333l0.158-0.566c4.977,4.606,10.917,8.677,16.684,12.614
		c5.682,3.879,11.537,7.891,16.343,12.351l-0.587-0.014c-2.822-0.602-3.091,0.995-5.553,0.704
		c1.367-6.533-14.207-17.395-23.782-16.805c-7.918,0.491,2.868,14.17,5.015,15.878C422.687,289.977,419.021,285.37,410.811,283.553z
		 M453.816,295.588c6.659-0.757,9.855,5.075,15.151,6.941l0.469-0.427c0.867,1.336,2.231,2.35,3.467,3.258
		c0.882,0.649,1.597,1.188,2.11,1.729l-0.125-0.073c-17.023-0.549,2.246,21.058,7.541,23.53c-1.864,0.629-3.61,1.359-6.377,1.21
		c-4.348-7.98-12.67-13.521-24.563-16.865C455.433,309.154,458.827,299.428,453.816,295.588z M504.235,327.047
		c-0.622,0.179-1.287,0.333-1.97,0.493c-1.629,0.375-3.393,0.786-4.852,1.643l0.065-0.3c-1.144-1.484,1.134-4.392-0.136-6.715
		C499.631,323.034,501.913,324.65,504.235,327.047z M456.138,335.323c-7.99-0.674-10.857-8.338-17.904-11.749
		c-3.98-1.926-8.085-1.697-13.082-3.338c7.824-3.037,10.913-12.612,11.781-19.692C435.632,316.508,449.27,326.183,456.138,335.323z
		 M637.834,405.944c-1.002,0.39-2.097,0.708-3.244,1.031c-2.293,0.647-4.651,1.326-6.507,2.696l-0.401-0.456
		c-0.141-0.962,3.779-5.374,1.495-8.426C632.386,401.825,635.483,403.665,637.834,405.944z M607.167,410.443
		c1.643-0.298,8.623,3.498,11.703,0.937c2.361,0.76-1.769,0.803-1.694,1.583l0.169,0.131c-1.935,0.381-3.674,0.995-5.363,1.594
		c-1.259,0.445-2.461,0.865-3.695,1.183l0.031-0.177C606.798,414.362,609.554,412.054,607.167,410.443z M714.997,456.315
		c-0.256-1.892,5.059-7.861,1.105-11.807c4.506,1.652,9.279,3.546,12.012,6.311c-1.446,0.873-3.238,1.508-5.111,2.172
		c-2.23,0.79-4.512,1.608-6.428,2.883C716.059,455.941,714.924,455.777,714.997,456.315z M707.819,428.23l0.587-0.007
		c-0.835,1.548-0.756,3.148-0.673,4.594c0.051,0.902,0.101,1.768-0.078,2.542l-0.383-0.294c-5.496-0.958-7.902-3.813-12.942-5.047
		c5.362-0.458,10.53-1.086,12.889-4.127C708.366,426.088,707.825,427.323,707.819,428.23z M683.451,428.576
		c-6.88-1.231-21.112-2.595-19.959,4.136c0.983,5.758,12.022,13.029,15.89,17.32c2.696,2.99,8.332,2.777,11.382,4.922
		c0.404,0.284-0.365,1.859-0.181,2.277c1.633,3.697,11.201,3.003,13.905,2.831h0.404c-4.371,2.505-9.51,4.648-15.043,6.293
		l0.004-0.011c2.046-3.724-0.171-9.693-4.553-11.826c-1.237-0.606-2.146,1.031-3.208,0.889c-3.112-0.42-8.615-7.172-15.703-9.854
		c-7.562-2.858-14.978-3.842-21.755-2.883c-1.062-3.925,0.997-7.443,0.176-12.023c-0.563-3.155-3.851-5.971-4.042-8.349
		c-0.067-0.798,2.396-1.883,2.568-2.659c0.88-3.984-5.608-7.735-11.894-8.401c0.01-0.122,0.02-0.243,0.029-0.362
		c1.271-0.67,2.837-1.113,4.472-1.576c1.444-0.405,2.925-0.828,4.3-1.426c3.146,0.75,5.991,2.213,8.992,3.764
		c3.264,1.688,6.63,3.417,10.592,4.313l-0.524,0.378C666.906,420.685,675.407,424.489,683.451,428.576z M610.73,385.508
		c-3.756-1.123-5.574-3.437-9.042-4.734c3.305-0.811,7.911-0.5,9.634-2.672C613.162,379.924,611.149,383.609,610.73,385.508z
		 M596.134,381.475c-11.973-1.681-10.816,5.967-4.99,13.357c3.596,4.57,10.962,9.619,15.472,12.703
		c-7.918,0.815-11.058-7.214-19.555-10.735c-5.12-2.122-9.625-1.682-16.203-3.587c-0.295-10.349,4.369-21.46-8.185-25.303
		l-0.489,0.013c0.796-0.549,1.879-0.886,3.085-1.255c0.713-0.219,1.442-0.45,2.154-0.733c1.889,0.452,3.582,1.392,5.366,2.388
		c1.989,1.113,4.045,2.251,6.572,2.85l-0.486,0.327C584.244,375.06,590.024,378.37,596.134,381.475z M555.741,366.211
		c1.558-2.163,1.364-5.912-0.028-7.876c3.587,1.136,6.7,3.471,9.043,5.705c-0.309,0.102-0.622,0.201-0.946,0.299
		c-1.378,0.423-2.882,0.895-4.105,1.757l-0.018-0.144C557.828,365.567,557.908,366.857,555.741,366.211z M602.5,360.776
		c2.231,0.385,8.769,1.702,12.531,0.428l0.058-0.058c0.029,1.793-0.283,3.701-0.956,5.771c-0.285,0.046-0.522,0.173-0.386,0.49
		C612.066,363.502,605.742,363.749,602.5,360.776z M529.34,342.894c-12.873-1.691-6.263,9.214-1.919,14.176
		c2.356,2.689,7.404,4.723,8.861,7.012c0.394,0.62-0.825,2.354-0.229,2.847c1.691,1.404,6.029,2.133,6.885,2.271
		c-1.411,2.033-6.306,1.068-8.073,2.793c-5.832-9.052-15.155-15.964-30.668-19.071c2.069-6.967,7.686-20.026-3.733-22.08
		l-0.687,0.146c0.984-0.519,2.245-0.813,3.627-1.132c1.094-0.253,2.215-0.519,3.286-0.907c1.691,0.483,3.216,1.385,4.825,2.344
		c2.197,1.307,4.647,2.77,7.833,3.191c1.643,3.05,5.528,4.882,9.006,6.517c0.511,0.242,1.004,0.475,1.488,0.708l-0.413,0.045
		C529.449,341.847,529.305,342.889,529.34,342.894z M532,339.093l0.092,0.402c-0.589-0.291-1.188-0.572-1.776-0.852
		c-2.839-1.332-5.545-2.606-6.936-4.379l0.355,0.156c2.737,1.758,6.013-0.228,9.407,0.178
		C532.563,335.925,531.813,337.107,532,339.093z M509.667,294.319c-2.113-6.62-21.791-6.308-30.155-5.85
		c1.346-3.986,2.753-3.635,7.339-3.425c10.302,0.471,26.963-5.445,24.453-11.229c-2.277-5.247-15.458-3.08-23.314-3.009
		c7.225-3.295,24.124-2.739,28.218-9.21c5.591-8.838-11.377-7.801-21.437-6.871c9.451-2.624,20.843-3.578,27.392-8.703
		c-0.823,13.506,18.322,14.742,24.797,23.764c-5.117-1.66-11.131-7.612-16.528-9.346c-14.261-4.579-13.345,4.907-8.712,10.769
		c3.294,4.165,12.852,10.012,15.564,11.562c3.01,1.716,8.841,1.471,7.392,5.748c-4.965-0.94-28.449-15.858-30.89-6.479
		c-2.049,7.887,17.352,19.889,27.413,20.532c-0.121,1.518-0.242,3.039-0.363,4.556c-6.43-4.866-33.942-18.202-31.807-4.834
		c0.907,5.665,10.848,10.536,16.209,13.332c-6.009-1.613-22.01-9.261-23.452-1.301c-1.234,6.811,11.956,12.831,16.717,16.812
		l0.189,0.168c-1.613-0.448-3.087-1.315-4.712-2.285c-1.796-1.072-3.658-2.17-5.96-2.83c-3.65-3.965-7.398-6.349-11.375-7.228
		l0.878-0.392c-6.137-4.176-11.864-8.6-18.643-12.382l-0.064,0.162c-0.841-1.174-2.087-2.094-3.242-2.942
		c-1.027-0.754-2-1.478-2.579-2.301l0.788,0.089c0.046-0.569,0.092-1.14,0.138-1.709
		C482.26,305.646,512.252,302.427,509.667,294.319z M277.712,190.378c3.348,4.235,10.792-0.363,12.801-2.989
		c1.119,0.576,1.562,1.568,1.333,2.972c6.02-0.909,10.689-2.98,12.385-7.607c4.566,2.79,8.278,6.109,12.627,9.032
		c-3.287,0.382-6.552-3.907-13.083-3.337c-0.771,2.099,0.734,2.799,0.417,4.62c-2.384-1.305-15.586-4.287-12.62,0.711
		c-4.493-0.713-7.31-1.341-11.702-0.935c-0.007,0.907-0.549,2.144,0.599,2.34c-1.739,1.032-5.7-1.166-9.364-0.747
		C273.048,192.86,276.191,192.317,277.712,190.378z M259.956,196.411c3.183-2.425,8.858-5.374,8.537,1.254
		C265.623,196.568,263.126,196.078,259.956,196.411z M327.143,200.634l0.047-0.186c1.108,0.628,2.112,1.389,3.16,2.2
		c1.527,1.18,3.104,2.391,5.118,3.199l-0.107,0.029c1.718,1.951,3.748,3.711,6.059,5.298c0.254,0.152,0.447,0.287,0.552,0.39
		c-0.191-0.125-0.364-0.261-0.552-0.39c-3.238-1.949-17.449-7.342-12.067,1.101c-2.64,0.699-6.205-2.673-11.612-2.075
		C322.234,208.046,327.485,205.147,327.143,200.634z M311.681,207.422c0.241,2.74,5.325,2.508,4.228,6.07
		c-1.993-1.665-6.683-1.672-10.831-2.013C307.019,209.905,310.164,209.361,311.681,207.422z M294.017,212.315
		c1.97-3.988,8.461-0.93,10.006,2.52C301.694,215.521,297.885,212.484,294.017,212.315z M375.949,238.352
		c-3.564-2.131-12.723-10.726-20.335-10.797c-6.127-0.057-1.926,5.426-0.639,7.972c-4.739-1.239-6.972-4.02-13.816-3.969
		c5.344-2.501,10.452-7.078,11.144-11.719l0.023-0.153c2.767,1.788,5.416,3.743,7.978,5.644c2.751,2.041,5.598,4.143,8.623,6.061
		l-0.279,0.073C370.426,233.916,376.834,236.025,375.949,238.352z M373.597,218.675c-16.659-5.571-9.273,6.144-3.251,11.204
		l-0.024,0.157c-2.912-1.855-5.69-3.902-8.375-5.895c-2.63-1.952-5.353-3.961-8.23-5.813l0.283-0.073
		c-1.563-2.65-5.639-3.758-6.521-6.826c6.683,0.903,15.561-0.546,19.18-4.199C367.91,211.697,369.247,216.11,373.597,218.675z
		 M375.377,206.208c-5.607,0.28-11.888-5.678-20.103-3.9c4.688-2.663,11.939-3.123,13.991-8.052
		C369.75,199.194,371.269,203.497,375.377,206.208z M378.674,194.433c-6.409,1.4-7.431-5.175-15.331-4.664
		c2.99-1.486,6.208-2.775,8.257-5.071C373.631,188.145,374.536,192.284,378.674,194.433z M382.705,183.292
		c-5.317,0.549-7.926-5.236-15.285-5.234c3.102-1.188,4.768-3.61,8.211-4.503C376.068,177.981,379.388,180.635,382.705,183.292z
		 M330.251,181.394c2.276-1.777,12.823-8.225,3.94-10.003c1.709-1.775,4.336-2.763,5.135-5.322c2.06,2.527,1.261,6.81,4.825,8.411
		c-8.49-2.527-5.843,7.748-3.206,10.634c-7.982-2.897-4.629,8.146-1.553,9.621c-1.544,1.259-4.537-1.149-7.803-0.624
		c-0.507,4.638,3.095,6.755,4.683,10.108c-1.55-0.67-2.866-1.677-4.238-2.736c-1.058-0.818-2.158-1.652-3.407-2.364l0.212-0.069
		c-3.336-3.007-8.093-5.14-9.459-9.356C326.744,192.51,342.811,181.695,330.251,181.394z"/>
</g>
</svg>
