<?xml version="1.0" encoding="utf-8"?>
<!-- Generator: Adobe Illustrator 15.1.0, SVG Export Plug-In . SVG Version: 6.00 Build 0)  -->
<!DOCTYPE svg PUBLIC "-//W3C//DTD SVG 1.1//EN" "http://www.w3.org/Graphics/SVG/1.1/DTD/svg11.dtd">
<svg version="1.1" id="Layer_1" xmlns="http://www.w3.org/2000/svg" xmlns:xlink="http://www.w3.org/1999/xlink" x="0px" y="0px"
	 width="792px" height="612px" viewBox="0 0 792 612" enable-background="new 0 0 792 612" xml:space="preserve">
<g opacity="0.82">
	<path fill="#78BFA4" d="M471.973,139.564c0.034-0.032,0.126-0.047,0.248-0.053C472.167,139.449,472.083,139.458,471.973,139.564z"
		/>
	<path fill="#78BFA4" d="M679.555,6.72c-0.34-1.025-1.444-1.583-2.472-1.241c-3.676,1.218-7.198,2.802-10.604,4.333l-0.738,0.333
		c-0.121,0.054-0.231,0.119-0.335,0.192l-0.505-0.706c-2.798-0.464-5.474,2.956-8.53,3.937c-0.74,0.238-1.002-1.092-1.969-0.656
		c-1.105,0.499-0.423,2.525-1.969,2.625c-3.112,0.202-4.478,3.633-6.563,3.938c-0.801,0.117-0.842-2.042-1.968-1.313
		c-2.938,1.901-3.376,6.163-6.563,8.531c-0.291-1.241,0.893-3.956-1.313-3.281c-3.477,2.211-3.557,7.817-6.563,10.5
		c0.289-2.256-0.258-3.678-0.655-5.25c-5.518,1.919-4.897,9.975-8.531,13.781c-0.238-3.48-0.505-6.932-2.625-8.531
		c-4.048,4.482-5.28,11.781-7.218,18.374c-0.021-4.572-2.206-6.98-2.625-11.156c-7.313,2.968-6.002,14.561-8.531,22.312
		c-1.37-3.693-1.871-12.577-4.594-13.125c-5.52-1.11-7.37,19.402-6.562,24.281c-2.857-4.207-2.163-16.927-6.562-17.719
		c-4.303-0.773-7.876,11.421-7.876,18.375c0,5.551,3.484,10.868,0.656,14.437c-0.624-5.745-5.761-24.994-7.875-25.593
		c-8.104-2.297-8.54,26.113-7.874,30.187c0.892,5.458,6.333,10.094,1.312,11.812c0.06-2.451,0.737-1.87,0-3.937
		c-1.301-0.257-1.796,1.342-2.624,0c-2.075-3.363-1.104-11.894-3.281-17.062c-1.862-4.42-4.426-6.988-7.218-9.187
		c-5.256,8.702-7.984,16.466-6.563,26.249c0.27,1.856,1.804,3.397,1.968,5.25c0.036,0.395-1.297,2.176-1.312,2.625
		c-0.265,7.995,10.082,12.912,1.312,15.093c-0.32-2.071,1.184-2.317,0.657-4.594c-2.074-0.904-3.961,1.625-4.594,0
		c-0.682-15.725-8.742-24.069-12.469-36.748c-6.438,8.657-10.091,18.371-7.874,28.217c0.438,1.945,3.202,4.52,3.281,6.563
		c0.042,1.143-1.642,1.293-1.313,2.625c0.547,2.215,2.538,4.034,3.28,6.562c0.159,0.54-0.77,2.526-0.655,3.281
		c0.588,3.923,6.452,7.276,6.563,8.531c0.243,2.801-5.51,6.093-6.563,6.563c0.709-1.916,1.468-3.781,1.313-6.563
		c-1.459-1.519-2.56,0.224-4.595,0c-0.136-2.668,2.551-5.344,1.313-8.531c-0.243-0.623-2.462-1.216-2.625-1.968
		c-0.57-2.606,1.744-5.647,0-7.875c-0.522-0.666-1.654,0.427-1.97-0.657c-1.195-4.123-0.092-8.18-1.968-11.812
		c-0.383-0.739-2.257-1.105-2.625-1.969c-0.538-1.263,0.473-3.396,0-4.593c-0.189-0.478-2.112-1.745-2.625-2.625
		c-2.116-3.634-2.241-7.483-4.594-10.5c-2.343,7.062-5.564,14.066-6.562,20.343c-0.24,1.507-0.805,5.202-0.657,6.562
		c0.146,1.344,2.114,3.27,1.969,4.593c-0.205,1.88-2.311-0.255-1.969,1.968c0.449,2.922,2.564,4.237,3.282,7.875
		c-0.115-0.58-1.348,0.991-1.313,1.968c0.112,3.187,3.441,5.139,3.938,7.875c-0.129-0.709-1.878,0.643-1.968,1.313
		c-0.492,3.618,2.853,5.484,3.937,7.874c-6.419,1.779,5.169,9.757,5.25,10.5c0.382,3.465-5.394,6.061-7.876,8.531
		c0.987-2.45,2.342-6,1.314-8.531c-1.887-0.917-3.335,1.789-3.938,0c1.319-1.961,0.371-6.191,0.657-9.187
		c-1.629-0.851-3.185,1.464-3.282,0c2.42-5.539-2.854-8.045-3.28-9.187c-0.637-1.7,0.564-4.394,0-5.906
		c-0.884-2.364-5.344-2.926-3.282-7.875c-4.638,0.202-2.077-3.912-3.28-6.562c-0.152-0.333-2.275-0.041-2.626-0.657
		c-0.471-0.83,0.458-2.44,0-3.281c-0.853-1.574-2.958-2.247-3.937-3.938c-2.068-3.572-1.638-8.709-5.25-10.5
		c-1.098,9.652-5.63,16.261-2.625,22.968c-4.546,0.206-0.142,4.879,0.657,5.906c-6.29,0.691,1.773,5.802,1.313,7.874
		c-0.043,0.192-1.718-0.083-2.377-0.053c0.391,0.436-0.582,4.392-2.873,3.335c-0.19-3.181,1.446-5.26,0-7.875
		c-1.63-0.853-2.724,1.926-3.281,0c-0.145-2.112,1.16-2.777,0.655-5.25c-4.682,1.352-2.022-2.197-2.625-3.937
		c-0.016-0.048-1.729-0.888-1.968-1.313c-2.408-4.294-4.112-9.863-6.563-13.125c-2.232,12.537-6.304,16.874-3.281,27.561
		c-1.79,0.059-1.32-1.093-2.625,0c0.04,3.678,2.481,4.956,3.938,7.219c-1.094,0-2.188,0-3.281,0
		c0.245,2.223,1.774,5.067-1.968,4.593c0.322-2.301,0.979-4.272,0.655-7.218c-1.627-0.852-3.185,1.464-3.28,0
		c0.3-2.324,1.459-3.791,1.312-6.563c-1.739-0.77-3.864,1.258-3.937,0c1.015-0.954,0.577-3.359,0.655-5.249
		c-1.222-0.628-2.192,1.965-2.625,0c-0.477-2.008,1.133-1.931,0.657-3.938c-4.15,1.64-1.426-1.265-1.969-3.281
		c-0.015-0.053-1.74-0.771-1.969-1.313c-1-2.37-1.367-8.142-3.937-9.844c-0.957,10.168-4.974,16.325-3.282,23.624
		c-6.38-0.256,1.531,6.316,0,7.219c-0.775-0.755-2.319-0.742-3.938-0.656c-0.173,3.688,3.651,6.826,3.281,8.531
		c-1.581,0.268-1.427-1.198-3.281-0.657c-0.424,4.592,3.98,7.816,3.938,9.844c-1.581,0.269-1.427-1.198-3.281-0.656
		c-0.024,6.148,4.063,8.186,6.563,11.812c-0.775-0.756-2.32-0.743-3.938-0.657c-0.525,7.088,4.317,8.809,7.219,12.469
		c-1.493-0.318-3.353-1.302-4.595,0c0.539,6.024,4.499,8.627,7.876,11.812c-1.743,0.007-3.748-0.248-4.594,0.657
		c0.49,6.508,5.409,8.591,9.187,11.812c-6.981-0.604-9.632,2.909-13.78,3.281c3.144-2.895,4.561-11.052,1.969-15.75
		c-2.312-0.092-4.683,3.149-5.906,1.969c2.609-2.788,3.743-10.51,1.313-14.437c-2.889-0.883-4.117,3.269-5.249,1.968
		c1.906-3.501,2.556-8.944,1.312-13.781c-2.205-0.83-3.472,2.571-4.593,0.657c1.595-2.327,2.025-8.296,0-10.499
		c-1.783-0.409-3.074,2.968-3.938,1.313c1.846-1.59,1.583-6.759,0.656-9.188c-1.947-0.572-3.237,2.804-3.938,1.313
		c0.873-1.97,0.667-5.02,0.656-7.874c-1.947-0.572-3.237,2.803-3.938,1.313c0.552-1.636,0.859-3.516,0.656-5.906
		c-1.854-0.542-1.7,0.924-3.281,0.656c1.015-0.954,0.578-3.36,0.656-5.25c-4.921-0.975-4.372-10.771-9.188-13.78
		c-0.422,9.546-1.769,13.079-0.656,19.03c-5.622-0.252,0.208,4.226,0,6.563c-0.762-0.551-1.759-0.866-3.28-0.657
		c0.504,3.434,2.934,4.941,3.937,7.875c-0.775-0.756-2.319-0.744-3.937-0.657c0.039,4.773,3.44,6.184,5.249,9.187
		c-0.846-0.903-2.85-0.649-4.593-0.656c0.395,5.073,3.645,7.291,6.563,9.844c-1.751,0-3.5,0-5.251,0
		c0.383,5.303,3.608,7.766,6.563,10.499c-7.453,1.619,3.326,9.622,4.594,11.812c-1.313,0-2.625,0-3.938,0
		c-0.007,7.007,5.087,8.914,9.188,11.812c-2.382,0.024-5.181-0.368-5.906,1.313c1.683,4.661,4.809,7.879,8.531,10.499
		c-9.512,1.894,1.641,11.226,5.25,12.469c-14.099-0.692,0.603,14.659,8.53,13.781c2.365-0.263,1.283-2.039,3.938-1.313l0.849,0.052
		c-2.776,4.616-6.505,8.792-10.123,12.831c-3.88,4.33-7.875,8.808-10.76,13.881l-0.309-0.515c-1.728,0.679-2.21,2.602-3.938,3.281
		c-2.009-4.525,1.147-3.228,3.938-5.25c5.807-4.209,11.525-17.39,7.875-19.686c-4.678-2.942-8.714,4.467-12.469,4.593
		c2.569-2.853,10.985-15.312,5.25-19.03c-3.903-2.53-7.245,3.609-10.5,3.938c2.052-3.271,11.144-16.613,5.25-20.343
		c-3.477-2.201-6.811,4.307-9.844,4.594c2.808-3.549,9.42-18.337,2.625-20.343c-2.028-0.599-5.382,5.521-7.218,4.594
		c2.307-2.718,6.658-14.499,2.624-17.062c-2.846-1.81-4.439,4.362-6.562,2.625c2.337-2.738,2.792-10.4,0.656-13.781
		c-3.032-0.382-4.341,4.375-5.906,3.282c2.084-3.643,3.198-8.751,1.313-13.125c-2.705-0.485-3.966,3.864-5.25,2.624
		c1.631-2.306,1.339-6.535,1.312-10.499c-2.453-0.87-3.758,2.735-4.593,1.313c0.73-2.399,1.676-5.592,0.656-7.874
		c-1.947-0.573-3.238,2.803-3.938,1.313c0.679-1.727,0.785-4.027,0.656-6.563c-3.839,1.844-1.45-1.019-1.969-2.625
		c-0.145-0.446-1.691-0.734-1.969-1.313c-1.854-3.871-3.575-11.041-6.562-13.125c-0.472,9.96-1.997,14.012,0,19.687
		c-0.875,0-1.75,0-2.625,0c-0.609,2.828,3.063,4.769,1.969,5.906c-1.241,0.147-1.448-0.74-2.625-0.657
		c-0.293,4.45,2.842,5.47,3.938,8.531c-2.151-0.036-2.508-1.866-5.25-1.313c-0.391,5.214,5.45,7.662,5.906,9.844
		c-2.114-0.292-3.555-1.257-5.906-1.313c0.306,6.476,4.905,8.657,8.531,11.812c-2.405-0.245-6.161-2.555-8.531-0.656
		c1.32,5.681,5.693,8.307,9.843,11.156c-1.968,0-3.937,0-5.906,0c0.51,7.583,6.116,10.071,11.156,13.125c-2.407,0-4.812,0-7.218,0
		c-0.07,9.476,8.124,10.687,13.781,14.437c-2.593-1.779-6.051,0.24-9.188,0c0.592,8.814,7.966,10.845,14.437,13.78
		c-20.138-1.815-3.379,13.124,4.952,14.355c0.31,0.022,0.626,0.05,0.954,0.082c-0.302-0.003-0.622-0.033-0.954-0.082
		c-16.445-1.211-8.123,11.463,1.273,13.608c1.174-0.041,2.387,0.022,3.617,0.255c-1.189,0.123-2.412,0.02-3.617-0.255
		c-4.498,0.155-8.386,1.91-10.163,2.224c2.458-9.956-8.295-5.929-12.468-4.593c2.99-3.843,11.482-17.683,5.25-21
		c-4.436-2.36-8.815,5.214-11.155,4.594c3.114-4.402,6.828-13.031,5.25-18.375c-2.227-7.541-10.873,4.725-13.125,4.593
		c3.255-4.186,8.979-20.787,1.969-22.311c-2.879-0.627-5.42,7.268-7.875,6.562c2.925-4.64,5.526-15.872,0-19.686
		c-2.163,1.788-4.548,6.809-6.562,6.562c4.846-5.318,2.387-21.877-3.938-13.78c1.789-2.187,1.444-6.839,0.656-9.844
		c-3.558-0.497-3.488,2.636-5.906,3.281c1.129-2.808,1.608-6.267,1.313-10.499c-2.806-1.013-3.345,3.596-4.593,1.968
		c0.432-2.412,1.274-4.412,1.313-7.219c-1.691-2.436-3.154,2.383-3.938,0.657c0.551-1.636,0.859-3.516,0.656-5.906
		c-4.301,2.479-2.533-4.324-3.282-6.563c-0.152-0.457-1.687-0.724-1.968-1.313c-1.607-3.364-1.256-8.49-4.594-9.843
		c-0.421,8.658-2.911,15.167,0,21c-0.887-0.206-1.253-0.935-2.625-0.657c0.025,3.475,2.368,4.632,3.281,7.218
		c-1-0.106-4.5-2.426-3.937,0c-0.154,3.454,4.547,5.492,3.937,7.219c-1.541-0.209-2.463-1.036-4.593-0.656
		c0.168,4.644,3.596,6.029,5.906,8.531c-2.759,0.834-5.486-1.713-5.906,0.656c0.582,4.895,7.178,7.249,7.875,9.844
		c-1.167-0.838-6.123-1.263-7.218,0c1.4,4.724,5.165,7.084,8.531,9.844c-2.113,0.144-2.776-1.161-5.25-0.657
		c0.438,7.875,6.672,9.952,11.813,13.124c-2.925-0.204-5.918-1.351-8.531,0c1.101,9.181,9.838,10.724,17.062,13.781
		c-3.472-0.48-8.528-1.332-11.812,0c0.931,10.663,11.509,11.677,19.687,15.093c-5.03,0.763-11.355-1.522-13.125,1.313
		c-4.407,7.061,14.282,13.85,19.687,14.437c-4.02-0.366-12.688-2.019-14.437,0.657c-1.327,2.031,2.42,8.164,4.594,9.844
		c5.291,4.087,15.143,2.9,17.718,6.562c-4.914,1.146-9.275-0.841-13.125,0.657c-1.714,0.667-2.761,3.368-4.593,3.937
		c-1.26,0.392-3.417-0.785-4.594-0.656c-7.037,0.773-9.656,7.437-15.749,10.5c2.377-8.255,13.028-15.267,11.812-24.936
		c-1.503-11.958-14.256,1.658-18.374,4.593c2.567-7.537,12.229-14.722,9.843-24.937c-2.357-10.089-14.035,4.559-16.405,5.906
		c1.125-3.718,7.691-10.327,8.53-16.405c0.559-4.043,0.256-10.333-2.625-11.156c-3.093-0.884-6.925,7.602-9.188,7.218
		c3.185-3.067,9.304-17.892,3.282-20.343c-3.018-1.228-6.169,6.871-8.531,5.906c5.046-3.922,6.252-21.904-1.313-15.75
		c0.752-3.257,3.934-8.542,1.313-10.5c-2.512-1.877-4.917,3.949-7.875,3.937c1.815-3.652,4.029-6.908,3.937-12.468
		c-1.958-1.479-3.524,1.819-5.906,1.969c1.23-2.708,3.027-4.848,2.625-9.187c-2.4-0.432-2.518,1.42-4.594,1.313
		c0.865-1.979,2.12-3.568,1.969-6.563c-1.627-0.852-3.185,1.464-3.281,0c0.037-2.151,1.866-2.509,1.312-5.25
		c0.282-1.842-2.446,1.645-2.625-0.657c0.885-5.942-1.341-12.874-4.593-19.686c-2.027,8.104-4.28,14.852-2.625,21.654
		c-0.875,0-1.75,0-2.625,0c-0.081,2.924,1.619,4.069,1.969,6.563c-1.921,0.171-2.017-1.483-3.937-1.313
		c-0.109,3.842,3.758,7.159,3.281,9.187c-1.775,0.192-3.751-2.741-5.25-0.656c0.796,4.892,4.118,7.256,5.906,11.156
		c-2.691-0.81-4.575-2.425-7.875-2.625c-0.086,7.96,6.301,9.448,9.188,14.437c-3.319-0.619-5.371-2.504-9.844-1.968
		c-0.133,7.793,8.482,10.323,10.5,13.78c-2.72-0.999-5.777-1.661-9.844-1.313c-0.015,10.295,8.959,11.603,15.093,15.75
		c-4.884-0.365-8.254-2.246-13.781-1.968c0.483,12.204,11.582,13.792,19.687,18.374c-6.313-0.227-16.619-4.682-15.093,2.625
		c2.149,10.293,16.406,10.436,21.655,15.094c-4.452,0.119-9.021-2.176-13.781-1.313c-6.965,1.264-2.131,9.464,1.969,12.468
		c6.058,4.438,17.311,3.273,20.999,7.875c-12.934-0.678-24.921-0.306-16.406,9.843c4.998,5.957,19.162,5.591,24.937,9.188
		c-7.848,0.036-21.228,0.182-20.343,5.906c1.449,9.371,18.317,9.998,28.873,11.812c-6.66,1.167-20.406-1.341-22.311,4.594
		c-2.577,8.024,15.362,13.358,25.593,12.469c4.207-0.366,6.182-2.5,5.906,1.313c-3.272-2.576-4.812,0.211-7.218,0.655
		c-7.349,1.358-11.913-1.114-17.062,3.281c-1.57,1.342-0.677,4.005-2.625,5.907c-1.644,1.604-5.193,1.781-7.218,3.28
		c-4.671,3.459-8.362,10.14-11.812,13.125c-3.495-3.75,0.944-4.119,2.625-5.906c0.743-0.789,0.358-2.523,1.313-3.938
		c1.223-1.812,3.774-2.756,5.25-4.594c4.873-6.069,12.118-26.7-3.281-20.999c-6.034,2.233-10.797,13.008-16.406,13.124
		c3.28-9.077,16.384-19.043,14.437-29.529c-0.591-3.188-2.815-6.004-6.562-5.251c-7.043,1.419-11.348,11.243-17.062,14.438
		c0.794-7.893,9.377-13.369,11.156-20.999c1.147-4.921,0.375-12.652-3.282-13.781c-7.576-2.338-12.449,11.838-16.405,13.124
		c4.109-8.341,16.549-18.071,11.812-28.873c-0.654-1.492-4.195-2.211-6.562-1.313c-4.943,1.875-9.526,11.041-13.125,11.812
		c1.103-6.311,9.172-10.539,11.156-17.062c1.255-4.127,0.827-12.664-2.625-13.781c-5.053-1.634-10.119,10.122-13.781,9.844
		c3.72-4.389,10.758-15.493,8.53-22.968c-2.042-6.854-8.93,2.693-11.155,2.625c3.935-2.273,9.917-16.646,3.937-19.03
		c-3.087-1.23-8.504,8.699-11.156,7.875c2.034-3.706,7.278-11.011,7.219-15.75c-0.12-9.545-8.088,1.581-11.156,2.624
		c2.134-5.302,6.439-8.434,5.906-16.405c-3.75-0.687-3.841,2.284-6.562,2.625c1.579-3.015,3.065-6.122,3.281-10.5
		c-1.958-1.479-3.524,1.819-5.906,1.968c1.178-2.76,2.736-5.138,2.625-9.187c-1.63-0.854-2.723,1.926-3.281,0
		c0.166-2.24,1.659-3.153,1.313-5.906c-1.854-0.542-1.7,0.925-3.281,0.656c1.014-6.213-0.783-14.849-4.594-21.655
		c-1.314,9.425-4.657,16.387-3.281,22.312c-0.875,0-1.75,0-2.625,0c0.024,2.41,2.628,5.646,1.969,6.562
		c-1.581,0.268-1.427-1.198-3.281-0.656c-0.467,4.622,2.454,5.856,3.281,9.187c-2.151-0.037-2.509-1.866-5.25-1.313
		c-0.193,5.663,3.683,7.255,5.25,11.156c-2.661-0.402-3.862-2.264-7.218-1.969c0.026,7.411,4.708,10.166,8.53,13.781
		c-3.936-0.439-5.702-3.048-10.5-2.625c-0.755,9.727,9.668,11.765,11.812,16.405c-3.321-1.49-7.202-2.421-11.812-2.624
		c-1.025,11.965,12.195,13.176,15.75,18.374c-4.235-1.066-10.055-3.132-15.093-1.313c0.424,12.263,12.658,12.716,20.343,17.719
		c-6.787-1.748-21.312-4.834-17.062,5.249c3.334,7.912,19.891,8.63,23.624,13.125c-2.968-0.846-17.411-4.312-19.687-1.313
		c-2.426,3.199,3.442,10.769,5.906,12.469c6.454,4.456,18.455,3.191,22.312,8.531c-9.274-0.092-23.696-0.631-21.656,5.906
		c2.98,9.546,19.435,10.016,30.842,12.469c-8.983,0.604-22.363,0.039-22.967,6.562c-0.438,4.722,12.428,11.872,19.03,11.156
		c-19.839,2.811-4.579,18.507,9.844,17.718c-10.555,1.18-12.058,6.929-6.563,12.469c4.818,4.857,20.686,6.924,26.905,5.905
		c3.567-0.584,4.854-3.917,5.906,0.656c-7.646,1.016-25.863-0.761-26.905,7.219c-1.402,10.738,21.261,10.737,29.529,11.812
		c-9.207,2.747-19.917,2.213-23.624,9.844c-0.588,1.211,0.25,4.093-0.656,5.25c-0.479,0.613-2.156-0.039-3.281,0.655
		c-4.484,2.771-10.231,12.762-13.781,15.75c-2.12,1.785-4.503,2.165-4.593,5.906c-0.78-2.063-2.215-3.473-2.625-5.906
		c5.549,1.343,5.807-3.586,7.219-6.562c0.971-2.048,3.985-2.899,5.25-4.595c2.555-3.422,12.817-25.98,2.625-26.249
		c-12.236-0.32-18.906,15.738-24.936,21.655c-2.918-4.473-0.115-4.616,1.969-5.905c2.809-1.738,1.414-2.567,3.281-5.906
		c1.82-3.255,8.309-8.861,10.5-14.437c1.117-2.842,1.828-14.117-1.969-15.75c-2.45-1.053-8.564,1.791-9.844,2.625
		c-2.174,1.418-14.439,17.513-15.75,17.063c-4.374-1.507,4.255-5.904,3.281-4.594c2.562-3.446,11.754-17.61,12.468-25.593
		c0.615-6.868-3.219-11.371-7.875-9.844c-9.054,2.973-13.355,15.477-19.031,17.718c2.808-9.627,20.195-22.308,13.781-35.436
		c-0.873-1.788-4.736-2.947-5.906-2.625c-7.917,2.184-12.148,12.818-18.374,17.063c1.781-10.403,16.072-20.253,10.499-33.468
		c-2.267-5.376-9.15-1.143-12.468,1.969c-3.73,3.498-4.954,8.41-8.531,10.499c3.349-9.458,14.837-19.818,9.844-31.498
		c-1.277-2.987-4.394-3.171-6.563-1.969c-4.366,2.42-8.582,11.384-11.812,12.468c1.464-8.625,12.04-18.325,7.875-28.218
		c-1.226-2.912-3.432-2.967-5.25-1.968c-4.721,2.594-7.147,8.596-11.156,11.156c0.238-4.27,6.781-12.085,6.563-19.03
		c-0.401-12.694-8.431-6.089-11.813-1.969c2.589-3.642,5.924-15.742,1.313-17.718c-3.497-1.499-4.885,6.189-7.219,5.25
		c2.081-2.822,2.651-9.606,1.313-13.781c-2.806-1.011-3.345,3.596-4.594,1.97c0.645-2.636,0.804-5.759,0.656-9.188
		c-2.695-0.689-4.059,3.328-5.25,1.969c0.714-2.568,1.75-4.813,1.313-8.531c-2.399-0.817-3.516,2.977-4.593,1.313
		c0.742-2.102,1.334-4.353,1.312-7.219c-2.218-1.049-2.8,2.784-3.937,0.656c2.313-3.888-1.116-4.738-1.969-5.906
		c-1.105-1.513-0.813-4.914-1.968-7.218c-0.176-0.352-1.646-0.062-1.969-0.656c-2.148-3.963-2.727-9.818-6.562-10.5
		c1.903,4.553-0.382,10.027,0.656,13.781c0.244,0.882,2.042,1.813,1.968,2.625c-0.032,0.356-2.103,0.681-1.968,1.312
		c0.302,1.421,2.438,2.804,2.625,3.938c-0.981,0.112-2.422-0.234-2.625,0.657c1.042,1.801,2.657,3.03,3.281,5.249
		c-1.581,0.27-1.426-1.198-3.281-0.655c-0.053,3.99,3.227,4.646,3.937,7.874c-1.546,0.015-1.932-1.13-3.937-0.656
		c-0.48,4.431,5.019,6.337,4.593,8.531c-2.113,0.145-2.777-1.161-5.25-0.657c-0.003,5.479,6.817,7.609,7.218,10.5
		c-1.242-1.164-4.334-0.478-6.562-0.656c0.164,7.061,8.984,8.945,10.5,12.469c-3.03-0.908-6.219-1.657-10.5-1.313
		c0.857,9.204,9.721,10.403,15.749,14.437c-5.104-0.117-10.271-2.634-14.437,0c1.829,9.764,12.693,10.493,19.687,15.092
		c-4.011-0.628-14.387-2.812-16.406,0.657c-0.989,1.699,3.69,8.411,5.906,9.842c5.391,3.481,13.12,1.821,17.062,4.594
		c-4.913,0.314-16.051-2.842-18.375,0.656c-1.201,1.809,1.727,7.577,3.282,9.187c5.331,5.521,19.025,4.874,24.28,8.531
		c-6.781-0.271-19.913-2.616-21.655,2.625c-1.755,5.279,8.464,12.466,17.062,13.781c5.626,0.86,12.68-1.209,15.093,3.281
		c-8.593,0.021-22.523-2.62-25.593,3.28c-1.621,3.114,2.499,9.265,5.25,11.156c7.841,5.391,22.642,0.959,31.498,5.249
		c-7.782,0.05-30.441-2.296-26.905,8.531c3.239,9.915,20.977,10.359,33.467,11.813c2.632,0.305,5.939-2.464,7.218,1.312
		c-8.952,3.254-21.272-0.017-28.218,4.594c-8.092,5.371,3.533,14.292,9.188,15.749c7.396,1.905,15.411-1.083,20.999-0.656
		c1.625,0.124,2.543,1.457,3.938,1.313c4.746-0.49,7.394-3,7.874,1.969c-10.68,2.221-26.17,1.411-30.842,8.531
		c-4.088,6.229,9.325,12.445,14.437,13.124c5.252,0.696,16.974-0.019,21.655-0.656c3.884-0.529,4.951-4.4,6.563-3.938
		c0.534,0.154,2.928,5.516,2.625,5.906c-3.232-2.34-5.377,0.838-7.219,1.313c-9.619,2.478-25.598,1.196-25.592,11.156
		c0.001,2.591,5.677,7.338,9.844,8.531c11.321,3.241,28.659-0.769,34.124-5.906c0.868,2.632,2.576,4.424,3.937,6.562l0.182-0.204
		c0.568,1.245,1.26,2.396,1.94,3.507c0.811,1.323,1.566,2.588,2.076,3.938l-0.261-0.021c-1.888-0.838-3.563-2.459-7.218-1.969
		c-1.135,0.152-1.353,2.027-2.625,2.625c-1.782,0.837-4.364,0.158-6.563,0.656c-11.113,2.516-27.251,13.422-17.718,19.03
		c-4.54,2.449-8.476,3.842-11.813,7.219c-4.012,4.062-5.422,10.032-8.531,14.437c-1.209,1.714-3.786,1.106-4.593,3.281
		c-1.038,2.796,1.372,3.003-0.657,5.905c-1.953-4.171-5.207-7.042-7.218-11.154c4.706-0.574,8.226-3.407,9.844-7.219
		c0.466-1.099-0.964-1.892-0.656-3.282c0.569-2.57,5.379-7.004,7.218-11.812c1.382-3.613,2.988-9.782,2.625-13.125
		c-1.184-10.911-10.683-10.747-17.062-4.593c-4.144,3.997-7.295,15.444-9.843,18.374c-1.402,1.613-4.399,2.13-3.938,5.25
		c-2.411-5.113-8.162-7.859-3.938-10.5c4.766-2.979,3.803-4.436,4.594-8.531c0.5-2.582,4.901-6.784,6.563-11.812
		c2.045-6.188,2.293-17.127-1.313-20.998c0.405,0.435-3.768-2.029-4.594-1.97c-2.45,0.177-8.439,5.529-11.156,9.188
		c-4.111,5.535-3.817,10.315-5.906,13.78c0.439-0.729-3.945,3.28-3.937,3.281c-4.621-1.058,2.996-8.152,3.281-9.188
		c0.325-1.183-0.443-2.8,0-3.938c3.123-8,8.744-15.199,7.219-24.279c-0.518-3.084-2.357-8.91-5.906-9.844
		c-2.993-0.788-10.551,5.728-12.468,8.531c-3.792,5.547-4.041,13.838-8.531,17.062c0.351-8.345,11.439-24.31,7.219-36.749
		c-1.208-3.56-5.502-8.103-9.188-5.905c-5.997,3.575-8.844,15.32-13.125,20.998c-1.152-9.168,9.685-23.302,5.25-34.779
		c-1.654-4.28-6.392-7.162-9.843-4.594c-5.068,3.773-7.064,14.334-10.5,19.688c-1.885-6.057,2.557-12.396,3.282-19.688
		c0.698-7.026-2.054-19.072-7.219-19.03c-0.74,0.007-5.169,4.727-5.906,5.906c-2.67,4.276-2.416,10.475-5.25,13.124
		c-1.368-6.788,2.521-14.268,1.312-22.311c-0.544-3.625-4.465-11.728-7.875-11.156c-4.558,0.764-3.969,11.943-7.218,15.749
		c1.244-7.015,1.568-26.166-5.25-24.937c-3.259,0.589-2.881,9.324-5.906,11.813c0.668-8.45,1.59-17.303-3.937-21
		c-1.839,1.662-2.685,4.315-4.594,5.907c0.508-5.54-0.641-9.422-2.625-12.469c-3.265-0.202-1.638,4.486-4.594,4.594
		c0.145-4.301,0.183-8.495-1.968-10.5c-2.192-0.004-1.739,2.636-3.281,3.281c0.354-3.417-1.26-4.865-1.313-7.875
		c-1.924-0.755-2.438,3.147-3.281,1.313c-0.904-0.846-0.65-2.85-0.656-4.594c-1.307-2.166-2.803,1.626-3.281,0
		c-0.755-0.775-0.743-2.318-0.656-3.937c-3.626,2.153-2.258-1.277-3.281-2.625c-0.329-0.434-2.192,0.361-2.625,0
		c-0.353-0.295-0.365-2.263-0.656-2.625c-2.881-3.589-9.016-7.231-11.812-9.187c3.379,8.741,5.877,15.699,10.5,20.343
		c-1.128-0.035-1.682,0.505-1.968,1.313c1.498,1.126,3.315,1.934,4.593,3.281c-1.628-0.096-3.185-0.122-3.281,1.313
		c1.872,1.628,3.979,3.021,5.906,4.594c-1.546-0.015-1.933,1.131-3.938,0.655c0.873,3.723,4.7,4.488,7.218,6.563
		c-0.846,0.904-2.851,0.649-4.593,0.655c1.208,4.262,5.756,5.181,9.187,7.219c-1.474,1.151-4.936,0.313-6.562,1.313
		c1.25,5.313,7.652,5.473,11.812,7.875c-2.449,1.051-6.37,0.63-9.188,1.313c1.241,7.071,9.755,6.868,15.75,9.187
		c-4.64-0.265-7.666,1.084-11.155,1.969c1.641,6.233,9.032,6.718,14.437,9.188c-3.725-0.444-5.381,1.181-8.531,1.313
		c1.889,8.392,10.632,9.93,19.687,11.155c-6.211,1.495-15.951,0.683-12.468,5.906c6.362,9.543,20.847,8.513,32.155,11.156
		c-8.019,0.619-27.565,1.674-22.312,9.844c4.528,7.04,14.175,7.032,24.28,6.562c3.536-0.165,8.896-1.498,11.156,1.969
		c-8.128,0.097-23.245,1.479-24.936,5.906c-0.775,2.027,4.538,8.938,7.218,10.499c10.087,5.874,27.842-1.984,34.78,3.938
		c-8.064,1.923-21.912,0.954-26.905,5.906c0.365-0.362-2.045,3.874-1.969,3.281c-0.308,2.384,4.979,8.666,9.188,10.499
		c11.893,5.182,29.656-2.992,37.404,0c-6.119,4.263-18.305,2.611-25.592,6.563c-0.921,0.499-4.277,2.912-4.594,3.281
		c-2.55,2.965,1.2,9.236,3.937,11.156c0.593,0.415,1.982-0.347,2.625,0c0.306,0.164,0.441,1.877,0.656,1.968
		c1.276,0.547,4.594,1.022,6.562,1.313c7.387,1.093,15.117-2.435,22.311-2.625c1.752-0.046,3.937,0.938,5.25,0.657
		c1.847-0.396,3.771-2.86,5.25-2.625c1.929,0.308,3.267,3.52,4.593,4.593c-3.192-0.69-3.372,2.134-5.25,2.625
		c-6.404,1.676-15.43,0.119-22.312,3.281c-2.021,0.929-6.991,5.046-7.875,7.219c-1.176,2.891,3.184,8.107,7.875,10.5
		c5.296,2.7,14.023,2.728,20.343,1.968c4.023-0.483,8.2-3.222,10.5-2.625c1.516,0.395,0.656,2.144,1.969,1.969
		c4.025-0.534,7.589-4.84,9.843-7.219c2.309,5.348,6.657,8.656,9.188,13.781c-5.97-2.58-6.518,1.063-9.188,1.969
		c-6.291,2.135-13.384,1.406-18.374,3.281c-0.055,0.021-0.919,1.729-1.313,1.969c-3.854,2.345-8.937,4.015-10.5,6.563
		c-2.08,3.39,1.896,9.752,4.594,11.155c4.306,2.24,14.044,0.356,20.343,0.656c0.852,0.04,1.209,1.426,1.969,1.313
		c3.406-0.511,8.594-5.12,11.812-4.594c0.955,0.157,0.596,2.391,2.625,1.969c4.48-0.931,7.005-5.252,9.187-9.843
		c1.707,2.23,2.917,4.958,5.25,6.563l0.167-0.261c2.593,4.999,5.818,9.595,9.438,13.431l-0.418-0.046
		c-1.988,0.322-6.28-3.991-9.843-2.625c-0.979,0.375-1.208,2.843-2.625,3.281c-3.052,0.942-7.266-0.484-9.844,0.655
		c-1.226,0.543-1.571,2.296-2.625,2.625c-4.846,1.514-6.976,1.521-9.844,3.282c-4.288,2.633-9.949,4.813-11.155,7.219
		c-1.995,3.973,1.201,5.378,1.968,6.562c2.411,3.717,11.107,6.443,17.718,5.905c2.199-0.178,4.61-2.162,5.906-1.968
		c0.415,0.062,0.63,2.05,1.313,1.968c4.061-0.479,9.767-5.853,13.125-5.905c0.517-0.009,1.939,3.164,3.281,3.28
		c4.051,0.353,11.094-9.646,8.531-14.437l0.047-0.329c1.409,1.222,2.439,2.897,3.518,4.661c1.079,1.763,2.194,3.568,3.764,5.057
		c-7.857,20.101-16.398,38.426-25.398,54.475c-0.549,0.979-0.2,2.218,0.779,2.766c0.315,0.178,0.656,0.261,0.993,0.261
		c0.711,0,1.402-0.374,1.774-1.039c9.167-16.349,17.859-35.017,25.84-55.493c4.499-3.32,6.698-9.108,8.473-13.8l0.094-0.25
		l0.459,0.411c1.322-1.775,2.804-3.392,4.883-4.411c1.178,0.087,2.316-0.025,3.363-0.13c1.088-0.11,2.077-0.207,2.976-0.09
		l-0.065,0.038c-4.34,2.289-7.895,9.881-4.594,15.749c2.001,0.831,3.341-2.243,3.938-0.656c1.044,4.575-1.346,11.154,1.313,15.094
		c0.884,1.309,2.679,0.629,3.281,1.968c0.536,1.192-0.49,2.86,0,4.594c1.041,3.68,7.843,12.998,11.156,14.437
		c0.503,0.219,5.567,0.778,5.906,0.657c7.334-2.646,7.126-21.044,2.625-28.874c6.022-1.878-4.529-11.58-4.593-13.781
		c-0.043-1.482,2.271-2.567,1.969-3.937c-0.585-2.655-2.472-3.762-3.934-5.247c0.175,0.029,0.353,0.043,0.537,0.023
		c1.181-0.126,2.458-0.059,3.81,0.012c0.813,0.043,1.656,0.088,2.514,0.088c1.662,0,3.377-0.176,5.024-0.842l-0.077,0.716
		c2.746,1.545,6.556-0.526,7.875,1.313c1.03,1.437-2.094,4.854-1.969,7.874c0.159,3.858,3.068,3.586,3.937,5.25
		c2.306,4.412,3.291,11.037,6.562,15.75c2.341,3.371,7.693,8.435,9.844,9.187c9.376,3.278,12.944-5.423,11.812-12.468
		c-1.163-7.236-7.31-14.396-8.531-19.031c-1.091-4.142,0.7-5.319-2.625-6.562c4.136,0.642,8.328-0.764,9.843,1.313
		c0.894,1.225-1.277,7.449-0.656,9.844c0.127,0.491,2.153,1.627,2.625,2.624c1.967,4.159,2.782,11.911,5.906,17.062
		c1.924,3.174,4.563,4.171,6.562,5.25c1.787,0.965,1.216,2.963,1.969,3.281c-0.017-0.008,7.144,1.361,8.531,0.655
		c9.822-4.995-1.112-24.622-3.281-31.497c-0.612-1.942,0.485-5.419-1.312-6.563c9.016,0.269,4.354,3.657,5.906,10.5
		c0.178,0.783,2.239,1.793,2.625,2.625c3.814,8.222,5.022,20.701,12.469,24.936c10.105,5.748,13.298-4.529,12.468-13.124
		c-0.923-9.549-6.78-14.568-5.25-20.343c5.714,0.801,2.684,4.102,3.937,9.188c0.202,0.822,1.928,1.687,2.625,3.281
		c3.2,7.319,6.455,19.581,12.468,23.624c2.055,1.382,10.166,2.927,12.468,0.656c2.309-2.276-0.698-16.799-3.281-23.625
		c-0.657-1.736-4.655-7.313-2.625-8.529c2.97-1.783,7.149,9.768,7.875,11.154c4.399,8.417,7.795,19.657,15.749,22.313
		c4.128,1.377,12.574,0.321,9.844-6.563c3.071,1.34,3.995,7.301,7.874,9.187c0.769,0.374,7.699,1.277,8.531,0.657
		c0.345-0.258,1.896-5.24,1.969-5.906c0.707-6.416-4.196-16.129-4.594-21c6.353,7.677,10.721,27.327,24.28,26.906
		c7.646-0.238,1.29-10.519,1.313-16.405c1.639,4.954,6.494,13.407,11.813,15.093c4.112,1.304,8.853,0.007,8.53-3.938
		c-0.39-4.771-6.077-13.251-5.905-16.405c6.749,6.611,9.563,19.856,24.28,16.405c-0.563-6.006-5.423-11.194-5.906-15.093
		c5.69,4.589,8.063,12.498,19.687,11.155c-0.281-4.969-3.451-7.049-4.594-11.155c4.87,2.951,8.146,8.925,16.405,6.562
		c-0.563-3.811-3.517-5.232-4.593-8.53c4.179,1.508,6.517,4.856,13.124,3.937c0.854-3.287-3.806-4.47-2.624-5.906
		c2.848,1.526,5.583,3.166,9.843,3.281c0.752-2.72-1.38-2.557-1.313-4.594c1.548,1.296,4.393,1.295,6.563,1.97
		c2.307-1.485-2.111-2.886,0-3.938c1.54,0.647,3.223,1.151,5.25,1.313c1.608-0.875-1.184-1.98,0.655-2.625
		c6.432-0.069,14.783-3.477,19.688-7.219c-6.965-0.656-14.457-2.678-20.343-0.655c0.183-1.496-0.159-2.468-1.313-2.625
		c-1.252,0.936-2.85,1.524-4.594,1.968c0-0.875,0-1.75,0-2.625c-2.924-0.08-4.067,1.619-6.563,1.97
		c-0.171-1.922,1.484-2.017,1.313-3.938c-4.633-0.682-7.288,4.069-9.844,3.281c0.599-1.6,2.477-3.893,1.313-5.249
		c-5.596-0.338-8.509,5.478-11.812,5.249c1.038-2.461,2.729-4.27,2.625-7.874c-7.025-1.112-10.011,5.293-13.125,5.906
		c1.657-2.28,2.575-5.301,3.28-8.531c-10.673-1.483-13.934,7.935-19.029,9.844c4.87-5.225,12.013-17.768-1.313-14.438
		c-7.427,1.856-11.613,12.551-17.061,15.093c1.306-4.626,12.152-13.386,9.187-17.718c-3.34-4.879-15.303,1.447-19.03,5.25
		c-4.262,4.347-5.656,10.984-10.5,11.155c4.09-5.486,16.104-26.075,2.625-23.624c-5.038,0.917-11.438,7.104-13.78,8.531
		c4.976-6.131,4.164-13.715-4.594-13.124c-11.715,0.79-18.724,18.9-25.593,22.311c2.401-6.461,10.75-13.403,11.156-21.655
		c0.205-4.169-1.976-6.319-4.594-6.562c-8.037-0.743-15.285,7.599-19.031,12.468c2.217-4.442,6.488-14.098,1.313-15.75
		c-1.754-0.56-3.717-0.754-5.249-0.655c-9.895,0.632-15.154,10.919-21,19.03c-1.917,2.661-4.64,3.689-5.25,5.906
		c-0.956,3.476,0.247,5.218-3.937,4.593c4.001-10.438,14.632-15.906,15.093-28.874c0.199-5.614-8.451-5.27-11.156-4.593
		c-10.422,2.605-13.371,12.841-18.374,20.343c-0.411,0.617-3.843,2.375-4.593,5.25c-1.436,5.496-0.545,7.696-7.219,5.25
		c5.185-0.188,3.28-4.137,3.937-6.563c1.212-4.473,8.732-12.637,10.5-19.688c2.226-8.878-1.021-13.956-8.531-12.467
		c-3.98,0.788-10.772,6.081-13.781,10.499c-3.116,4.575-3.663,10.832-5.906,15.094c-0.104,0.196-2.37,0.371-2.625,0.655
		c-2.75,3.063-0.538,7.735-0.656,11.813c-3.075-0.426-7.858,0.858-9.843-0.656c6.187-1.037,4.612-3.362,5.25-7.219
		c0.539-3.264,4.682-7.861,5.906-12.468c1.748-6.58,1.868-17.651-2.625-19.688c-5.283-2.395-13.78,6.104-15.749,9.188
		c-3,4.7-2.909,11.109-5.906,16.405c-0.616,1.091-2.199,0.823-2.625,1.97c-1.829,4.914,0.332,8.971,1.313,11.812
		c-3.063,0-6.125,0-9.188,0c3.556-1.646,1.95-3.126,3.281-7.219c1.055-3.243,4.973-6.904,5.907-12.468
		c1.341-7.999,1.565-15.278-6.563-14.438c-2.507,0.26-8.344,3.618-11.155,7.219c-2.67,3.421-3.805,10.996-5.906,13.781
		c-0.932,1.235-2.232,0.426-2.625,1.313c-2.065,4.66,0.536,8.099,1.274,11.013c-1.397,0.271-2.96,0.194-4.588,0.111
		c-1.242-0.064-2.521-0.122-3.804-0.04c1.748-1.256,3.826-2.035,5.15-5.179c0.413-0.982-1.512-2.176-1.313-3.281
		c0.381-2.117,4.646-4.576,5.906-7.874c0.393-1.03-0.84-2.306-0.656-3.281c0.477-2.53,2.833-4.488,3.282-7.219
		c2.358-14.37-2.962-25.352-14.192-14.664c0.683-2.189,1.883-4.287,3.138-6.472c1.553-2.703,3.146-5.5,3.879-8.7
		c3.694-3.057,6.293-7.203,7.171-11.415l0.659,0.565c4.412-4.123,5.461-15.097,15.093-11.813c-3.535,1.564-6.922,7.31-4.593,11.156
		c0.807,1.332,2.943,0.203,3.281,1.313c0.648,2.122-0.443,5.586,0,7.874c0.174,0.894,1.541,0.96,1.969,1.969
		c1.98,4.667,1.741,11.249,5.25,15.75c0.599,0.767,1.821,0.048,2.625,0.655c1.705,1.289,1.914,3.314,3.281,3.938
		c9.477,4.319,9.222-13.445,8.531-22.969c-0.316-4.349-2.852-9.18-3.281-11.812c-0.198-1.219,3.204-5.631-0.656-7.219l-0.035-0.144
		c2.262,0.428,4.382,0.655,6.375,0.655c0.818,0,1.615-0.039,2.396-0.111l-0.205,0.256c5.846,0.595,0.38,5.004,1.313,10.5
		c0.174,1.026,2.194,1.646,2.625,2.624c1.357,3.077,1.979,7.141,2.625,8.531c3.944,8.489,7.33,16.604,15.75,15.749
		c-1.359,0.138,2.506-1.182,2.625-1.313c5.965-6.554-1.937-20.677-2.625-26.904c-0.473-4.281,0.009-4.654-1.969-7.219
		c3.643,1.35,7.828,0.181,9.188,2.624c-0.011-0.019-1.607,4.545-1.313,6.563c0.211,1.448,1.931,2.346,2.625,3.938
		c4.343,9.959,7.292,23.513,17.062,24.279c7.971,0.627,7.793-12.875,4.593-22.312c-1.599-4.718-4.471-8.521-4.593-12.469
		c8.569-1.312,4.433,6.43,7.218,9.844c6.095,7.473,7.934,20.419,16.406,23.625c3.819,1.445,8.302,0.171,9.843-3.282
		c3.833-8.583-6.457-17.738-6.562-26.904c5.174,0.547,3.607,4.567,5.25,8.531c1.796,4.328,8.35,16,11.156,19.03
		c5.032,5.431,16.398,8.18,16.405-0.657c0.007-8.409-7.632-17.641-7.874-23.623c9.662,4.41,10.557,20.402,20.999,25.593
		c5.49,2.729,13.143,1.464,12.468-4.595c-0.73-6.558-6.439-12.604-8.53-17.718c8.704,6.009,10.969,23.817,22.311,25.593
		c4.164,0.652,6.767-0.984,5.906-7.218c-0.74-5.37-5.26-11.826-6.562-16.405c8.025,5.515,11.548,20.317,22.968,20.343
		c4.761,0.01,5.639-1.141,4.594-5.25c-1.048-4.119-6.782-10.827-6.563-13.78c3.849,2.238,8.879,13.087,15.094,14.436
		c14.331,3.112,6.106-8.91,2.624-13.78c5.462,4.602,7.24,12.886,19.032,11.156c-0.473-4.121-2.63-6.559-3.938-9.844
		c3.92,2.643,6.637,6.487,13.779,5.906c1.29-2.282-2.226-4.53-2.624-7.219c3.617,1.414,5.576,4.488,11.155,3.938
		c2.245-1.881-3.39-3.659-1.312-5.25c2.067,1.432,4.13,2.87,7.874,2.625c0.359-0.953-0.767-3.392,0.657-3.28
		c1.239,1.166,2.648,2.161,5.249,1.968c0.112-0.981-0.234-2.422,0.657-2.625c5.532,0.663,16.769-1.82,20.998-6.562
		c-12.696,0.025-17.362-5.315-27.562-3.282c0.281-1.249,1.414-1.648,1.313-3.28c-4.028-0.527-5.647,1.353-8.53,1.968
		c0.61-1.919,3.335-4.059,1.969-5.905c-4.566,0.039-8.522,4.152-11.156,3.938c1.334-1.729,2.256-3.869,3.281-5.906
		c-6.302-2.347-11.936,4.513-15.093,5.25c1.508-3.304,4.061-5.563,4.594-9.843c-9.246-2.524-14.468,6.541-19.03,8.53
		c2.64-3.923,5.968-7.157,6.562-13.124c-12.534-4.099-18.141,10.318-24.937,13.78c2.319-4.595,14.365-20.449,1.969-19.03
		c-9.922,1.135-14.445,13.723-21.655,19.03c1.729-5.492,6.932-13.047,6.563-19.687c-0.003-0.051-0.754-3.361-0.656-3.281
		c-6.477-5.343-14.681,7.508-17.719,7.218c5.543-15.023-14.939-5.408-17.718-1.968c4.169-6.913-1.683-9.371-7.219-8.531
		c-11.938,1.811-17.453,20.972-24.937,24.937c2.608-10.062,12.768-14.897,11.156-26.905c-0.305-2.271-5.676-3.987-7.219-3.938
		c-9.193,0.302-13.129,12.259-18.375,20.343c-1.157,1.785-3.337,2.551-3.937,3.938c-1.842,4.263-0.2,9.288-6.562,5.905
		c3.533-0.093,2.414-2.979,3.281-5.25c1.751-4.583,8.942-13.591,9.843-17.718c0.152-0.694,0.308-8.19,0-8.531
		c-2.395-2.648-11.961,0.329-14.437,1.969c-5.692,3.77-15.514,19.66-15.75,28.874c-2.425-0.418-6.537,0.85-7.875-0.656
		c4.483,0.03,2.865-2.618,3.938-5.905c0.658-2.016,16.457-27.405,2.625-26.906c-11.96,0.432-13.431,11.182-18.375,19.688
		c-1.694,2.915-6.623,7.35-3.281,12.468c-2.425-0.418-6.537,0.85-7.875-0.656c4.746-0.015,2.591-3.8,3.281-5.906
		c0.971-2.964,5.933-6.933,7.218-12.468c1.673-7.202,1.157-14.323-5.906-13.78c-10.138,0.778-13.989,15.932-19.03,19.686
		c3.505-4.421,10.337-20.514,3.937-24.936c-5.002-3.456-11.378,4.239-14.759,6.958c0.443-1.065,1.092-2.104,1.768-3.179
		c1.081-1.723,2.188-3.503,2.673-5.657c3.335-2.836,7.027-6.978,7.88-11.874l0.47,0.627c6.797-5.015,6.708-16.916,17.718-17.718
		c-2.129,2.748-5.256,4.735-3.937,9.187c0.303,1.022,1.821,1.598,1.968,2.625c0.222,1.551-0.888,3.854-0.656,5.906
		c1.004,8.918,6.936,20.632,12.469,19.03c-0.376,0.109,3.199-2.639,2.625-1.968c5.864-6.846,3.01-26.12,2.625-31.499
		c8.961,0.244,5.518,2.625,6.562,9.187c0.16,1.007,1.607,1.745,1.969,2.625c2.583,6.295,2.733,12.553,7.219,16.406
		c3.424,2.941,9.756,3.425,11.156,0c3.138-7.679-2.851-17.429-3.281-24.28c5.904,1.196,4.231,2.229,5.25,7.874
		c1.369,7.587,9.774,20.49,15.093,21.655c13.154,2.883,4.649-18.577,3.28-24.937c3.996,0.964,2.093,3.666,3.282,7.219
		c2.621,7.838,10.885,21.083,18.374,21c10.135-0.114-2.128-23.726,0-24.938c0.79-0.449,3.234,1.912,3.281,1.97
		c7.508,9.121,7.367,28.012,22.967,23.623c3.184-7.089-4-16.988-4.593-22.311c9.686,6.772,8.427,25.545,25.592,22.967
		c1.038-9.135-3.926-15.754-5.249-20.343c5.488,4.388,8.675,17.273,17.062,19.031c11.798,2.473,4.882-10.298,1.969-17.063
		c7.186,5.721,8.203,17.608,22.968,15.75c0.718-4.218-1.339-5.66-1.97-8.531c2.446,3.15,12.137,9.673,15.095,4.594
		c1.498-2.573-4.874-6.396-4.594-9.844c3.83,3.015,7.734,9.24,15.093,6.563c-0.021-2.628-3.413-5.304-2.625-6.563
		c2.479,2.234,6.852,5.672,11.156,3.938c0.689-2.696-3.327-4.061-1.969-5.25c2.707,1.23,4.848,3.026,9.187,2.625
		c1.049-2.219-2.784-2.801-0.655-3.938c1.868,0.492,4.493,2.397,5.905,1.313c1.843,0.28-1.645-2.447,0.657-2.625
		c0.808,0.94,2.256,1.243,3.937,1.313c-0.786-3.59,2.749-1.622,4.594-1.969c5.042-0.945,11.836-3.541,14.437-5.905
		c-11.134-1.7-17.358-4.588-25.592-3.281c-0.27-1.582,1.198-1.427,0.655-3.282c-3.986-0.704-4.47,2.092-7.875,1.97
		c0.551-1.419,1.699-2.238,1.313-4.594c-4.122,0.473-6.56,2.629-9.845,3.937c0.33-2.732,2.297-3.828,2.625-6.562
		c-6.512-1.255-9.373,4.614-12.467,4.594c1.448-2.271,3.248-4.188,3.28-7.875c-7.512-1.381-11.126,4.614-14.437,5.25
		c8.817-18.522-17.061-0.496-18.374,3.28c0.766-3.106,10.183-13.002,5.906-16.405c-3.197-2.543-12.164,3.024-14.437,5.251
		c-4.144,4.054-4.125,8.718-8.531,10.499c2.152-3.625,15.735-19.681,0.655-17.718c-9.55,1.242-12.779,13.361-19.687,17.061
		c3.841-5.58,15.061-26.067-0.656-20.998c-9.309,3.002-11.383,16.755-19.688,20.343c1.857-6.003,7.635-11.236,8.531-17.718
		c0.147-1.062-1.124-3.593-0.655-4.594c0.401-0.857,3.272-0.501,3.937-1.313c3.838-4.688-1.936-12.628-1.312-18.374
		c3.64,4.856,6,17.115,12.468,19.687c13.127,5.22,5.952-11.831,4.594-16.406c3.269,2.644,7.579,16.081,14.438,17.718
		c10.212,2.44,5.824-6.393,4.592-11.155c4.343,4.628,6.684,11.254,17.063,9.844c0.322-2.947-0.332-4.918-0.656-7.219
		c3.924,3.294,6.474,7.963,15.093,6.563c-0.015-3.719-3.482-7.435-2.625-9.844c2.767,4.672,5.652,9.223,13.781,8.531
		c-0.01-3.49-2.095-4.903-2.625-7.875c3.071,1.74,4.995,4.63,10.501,3.937c0.663-2.457-2.722-4.219-1.314-5.249
		c2.407,1.53,4.594,3.282,8.531,3.281c0.916-1.886-1.788-3.333,0-3.938c1.076,0.719,4.513,2.43,5.906,0.656
		c-0.598-0.178-1.743-2.905-0.656-2.625c1.439,0.748,2.682,1.693,5.25,1.313c0.902-1.496-1.691-2.467,0-2.625
		c5.238,1.541,13.151-2.727,18.374-5.25c-9.245-1.696-14.614-4.445-22.312-3.281c0.206-0.886,0.935-1.252,0.657-2.625
		c-2.937-0.715-5.41,2.421-6.563,1.313c0.583-1.166,1.831-1.668,1.313-3.937c-3.531-0.665-6.241,2.916-7.876,1.969
		c0.379-1.373,1.628-1.873,1.314-3.938c-4.6-1.083-7.869,2.609-9.845,1.969c0.56-1.848,2.121-2.692,1.969-5.25
		c-5.752-0.72-8.23,1.831-11.812,3.281c0.779-2.063,2.215-3.473,2.625-5.906c-6.523-1.645-10.793,1.536-15.094,3.938
		c1.221-2.06,2.129-4.435,2.625-7.219c-11.143-2.579-15.506,5.445-21.655,9.844c2.32-4.095,6.297-9.793,5.25-15.094
		c-14.559-1.652-15.499,10.313-23.624,15.094c2.429-3.744,13.863-19.069,1.968-18.374c-8.482,0.495-13.331,12.226-19.687,15.749
		c2.928-3.957,13.172-18.548,0.657-17.718c-8.695,0.577-13.578,13.354-19.031,15.093c3.424-4.879,12.421-18.492,1.313-18.375
		c-10.025,0.107-13.33,14.069-20.999,17.063c3.146-4.711,13.429-22.604-1.313-19.687c-4.816,0.953-10.587,9.251-13.78,13.78
		c-1.304,1.849-0.517,6.509-4.594,4.594c5.366-3.926,17.742-27.82,2.625-23.624c-5.117,1.421-9.098,10.641-12.468,11.156
		c-0.002-0.659,0.531-0.78,0.656-1.313l-0.459-0.721c0.058-0.037,0.114-0.076,0.167-0.124c5.153-4.597,9.493-10.138,13.69-15.499
		c3.803-4.856,7.733-9.854,12.232-14.107l-0.038,0.264c0.438,0,0.875,0,1.313,0c-6.043,8.011,3.872,29.281,11.156,24.28
		c4.441-3.05,1.034-11.619,1.969-18.374c4.473,2.583,3.945,13.62,8.53,17.718c9.319,8.328,11.677-4.975,8.531-13.125
		c4.047,3.434,5.169,15.196,11.155,17.717c11.701,4.931,6.761-9.291,6.563-13.78c2.089,2.918,4.57,12.82,9.188,15.75
		c9.927,6.298,9.752-3.951,8.531-10.5c2.478,7.834,7.351,16.669,17.061,15.094c0.209-5.021-0.893-8.731-1.968-12.469
		c4.981,5.548,7.839,16.621,19.03,13.781c-0.081-3.434-2.903-7.575-1.969-9.844c3.032,5.731,7.731,10.99,15.094,10.499
		c0.866-3.948-3.033-6.565-1.313-9.187c2.159,4.423,7.444,9.616,13.126,6.562c-1.361-1.701-2.237-3.889-2.626-6.562
		c3.279,2.189,4.879,6.059,11.156,5.25c0.83-2.205-2.57-3.472-0.656-4.595c2.094,1.625,3.835,3.603,7.874,3.282
		c0.854-1.63-1.925-2.724,0-3.282c1.848,0.561,2.692,2.12,5.25,1.97c0.853-1.628-1.464-3.185,0-3.282
		c1.848,0.56,2.692,2.12,5.25,1.97c0.901-1.496-1.691-2.467,0-2.625c4.491,1.923,12.568-1.144,16.405-3.938
		c-8.493-1.172-13.536-5.389-20.999-4.594c0.281-1.25,1.414-1.649,1.313-3.281c-3.12-0.275-4.733,0.954-7.22,1.313
		c0.011-1.958,1.707-2.231,1.969-3.938c-4.908-0.751-6.819,1.492-10.5,1.968c0.998-2.065,2.924-3.201,3.282-5.906
		c-5.117-1.167-9.043,2.314-11.156,1.969c0.563-2.063,2.48-2.77,2.625-5.25c-4.191-2.032-8.727,0.758-11.812,1.968
		c0.099-2.087,1.487-2.887,1.313-5.25c-6.957-2.231-11.322,1.688-15.75,3.938c0.997-2.286,2.492-4.071,2.624-7.219
		c-10.969-3.455-16.094,6.721-21.654,8.53c3.405-4.548,9.731-14.337-1.313-13.125c-6.058,0.665-11.42,9.302-14.436,9.843
		c3.37-5.344,9.252-13.745-1.969-12.467c-6.243,0.71-11.506,9.357-14.437,9.842c0.603-3.038,7.177-8.467,4.592-12.467
		c-4.189-6.49-17.183,6.256-20.343,9.187c0.308-2.807,6.166-8.258,3.282-11.812c-4.485-5.529-14.423,5.269-16.406,5.906
		c0.865-2.487,3.689-8.579,1.313-10.5c-4.61-3.726-10.087,5.17-13.452,6.459c2.709-4.425,6.32-8.464,9.83-12.383
		c3.693-4.121,7.499-8.384,10.387-13.188l0.455,0.738c0.873,0,1.749,0,2.624,0c-4.553,6.867,4.693,22.536,10.499,19.687
		c3.633-1.783,1.049-10.738,1.97-14.437c3.302,0.233,4.65,10.58,9.187,13.78c1.834,1.294,7.516,3.342,9.187,1.969
		c2.407-1.977-0.995-6.92-0.655-9.843c2.352,8.273,20.713,20.147,17.302,4.309c-0.125-0.364-0.208-0.709-0.24-1.028
		c0.091,0.356,0.169,0.696,0.24,1.028c1.808,5.275,12.727,14.622,15.508,10.128c1.891-3.053-2.663-7.862-1.311-10.5
		c4.517,4.451,6.677,11.26,17.062,9.843c0.015-3.297-1.768-4.795-1.97-7.874c3.663,3.774,6.599,8.277,15.093,7.219
		c-0.212-2.412-1.617-3.631-1.967-5.906c2.556,2.693,6.321,4.177,11.155,4.593c2.153-1.645-2.236-4.322-0.657-5.25
		c2.6,1.119,4.532,2.906,8.531,2.625c1.049-2.218-2.785-2.8-0.656-3.938c1.491,1.134,3.667,1.584,6.563,1.313
		c0.628-1.222-1.966-2.192,0-2.625c0.839,0.911,3.099,0.401,3.938,1.313c0.498-5.324,12.902-3.467,15.749-8.531
		c-7.988-0.201-11.878-3.755-17.718-1.968c-0.147-1.241,0.739-1.448,0.656-2.625c-2.688-0.282-4.204,0.609-5.906,1.313
		c-0.186-1.997,2.103-2.551,0.655-3.938c-2.577,0.484-4.755,1.369-7.217,1.969c-0.318-2.067,2.014-1.485,1.312-3.938
		c-4.467-0.951-7.549,2.928-9.843,1.968c0.296-1.89,2.322-2.052,1.969-4.593c-5.728-1.341-9.684,2.551-11.813,2.625
		c0.091-2.315,1.878-2.934,1.969-5.249c-5.937-2.978-11.812,2.973-14.438,3.281c1.169-5.482,5.035-6.219,2.625-12.469
		c2.846,3.286,7.327,8.415,13.781,5.906c-0.551-0.418-2.055-3.067-0.655-3.281c2.271,2.541,5.586,4.039,9.843,4.593
		c1.753-1.83-0.615-3.241-0.656-5.249c2.803,1.571,5.224,3.524,9.843,3.281c0.831-2.205-2.569-3.471-0.656-4.593
		c1.993,1.068,4.199,1.926,7.219,1.968c0.854-1.63-1.926-2.723,0-3.281c8.379,0.171,16.123-5.667,22.968-9.188
		c-7.925-0.716-13.985-3.692-19.687-1.968c0.894-0.835,1.014-3.214-0.656-3.281c-1.499,0.907-3.474,1.337-5.25,1.968
		c0.378-1.372,1.627-1.873,1.313-3.938c-3.721-0.439-5.088,1.475-7.875,1.969c-0.014-1.546,1.131-1.932,0.656-3.938
		c-4.339-0.401-6.479,1.395-9.188,2.625c-0.014-1.546,1.131-1.932,0.657-3.938c-4.896-0.521-7.633,1.117-10.5,2.625
		c-0.476-2.007,1.132-1.93,0.656-3.938c-5.237-1.287-9.069,2.288-11.156,1.969c-0.577-3.86,3.787-2.777,2.625-7.218
		c2.86,2.17,5.592,4.47,9.845,5.249c1.811-0.157,0.696-3.239,1.967-3.937c1.901,2.693,5.146,4.04,9.845,3.937
		c0.852-1.628-1.465-3.185,0-3.281c2.038,1.898,5.188,2.686,8.531,3.281c1.522-1.512-1.216-2.116-0.657-4.594
		c2.285,0.997,4.07,2.492,7.219,2.625c1.82-0.981-1.139-2.684,0.656-3.281c1.049,1.137,2.954,1.42,5.25,1.313
		c0.901-1.497-1.691-2.467,0-2.625c5.502-0.366,13.596-3.334,17.062-7.875c-11.181,0.946-17.743-6.096-27.563-5.249
		c0.761-0.971,0.761-1.654,0-2.625c-3.059-0.215-5.175,0.512-7.217,1.313c-0.05-1.143,0.146-2.041,0.655-2.625
		c-9.235,2.265-12.918-4.914-20.343,0c0.678-6.168-8.516-2.404-10.499-1.313c0.013-6.375-8.158-1.731-11.156-1.313
		c-0.012-2.062,2.167-3.661,0.657-5.25c-4.854-0.041-6.876,2.75-10.501,3.938c4.575-3.957,7.169-9.894,13.126-12.468
		c0.871,6.346,4.399,10.036,11.155,10.5c0.358-0.954-0.768-3.392,0.656-3.281c2.254,2.777,5.376,4.685,10.499,4.593
		c0.359-0.954-0.768-3.392,0.657-3.282c2.211,2.093,9.005,7.37,11.812,2.625c2.382,1.983,5.142,2.414,8.531,2.625
		c0.808,0.05,1.166-1.841,1.967-1.968c1.477-0.235,4.58,2.028,5.907,1.968c1.073-0.048,0.379-1.767,1.313-1.968
		c1.459-0.317,3.513,0.854,5.25,0.656c5.559-0.633,17.202-6.025,20.999-9.187c-5.812,1.073-13.369-5.487-20.343-6.563
		c-3.607-0.556-3.217-1.545-5.25-1.968c-1.754-0.364-3.708,0.463-5.25,0c-1.166-0.35-1.213-1.797-2.626-1.968
		c-2.17-0.264-6.737,1.477-8.529,0.656c-0.499-0.229,0.244-2.523-0.657-2.625c-3.634-0.409-6.783,1.047-9.842,1.969
		c-0.361-5.579-7.189-0.845-10.501-1.313c0.55-1.419,1.699-2.239,1.313-4.593c-5.544-0.732-6.699,2.924-10.499,3.937
		c3.986-4.106,7.388-8.798,12.468-11.812c1.422,4.187,6.121,8.384,11.812,9.187c0.011,0.002-0.051-1.858,0-1.969
		c0.736-1.552,5.318,3.859,9.845,3.281c3.679-0.469,5.545,1.058,9.843,1.313c0.444,0.026,1.766-1.955,1.969-1.968
		c1.79-0.121,4.058,1.366,5.906,1.313c2.98-0.086,5.99-1.957,7.218-2.625c4.46-2.429,13.657-3.136,15.75-8.531
		c-7.143,0.805-13.01-3.797-18.374-5.25c-3.347-0.906-4.761-1.741-6.563-1.968c-1.548-0.196-3.69,0.976-5.249,0.657
		c0.064,0.013-0.483-1.684-1.313-1.969c-3.212-1.104-9.563,0.235-14.437-0.656c-0.329-2.064,1.43-2.565,0-3.938
		c-3.358-0.294-4.558,1.568-7.219,1.968c2.446-2.583,4.335-5.727,7.874-7.218c-0.009,7.169,6.503,4.192,11.813,5.25
		c5.357,1.068,10.248,4.167,13.781,4.594c0.822,0.099,1.98-1.302,3.28-1.313c1.886-0.015,2.685,1.468,3.938,1.313
		c7.593-0.939,16.241-5.635,19.03-9.844c-7.882-1.035-22.042-7.797-30.186-9.187c-4.86-0.829-4.47-0.802-3.938-4.593
		c-2.771-0.147-4.237,1.011-6.562,1.313c0.842-0.602,3.833-5.238,5.906-5.25c-0.009,0,2.296,2.831,3.28,3.281
		c1.401,0.642,5.453,1.358,7.22,1.312c11.883-0.309,22.978,2.722,29.529-7.874c-3.526-1.293-12.871-5.457-17.717-6.563
		c-2.29-0.522-6.028,0.128-7.22-1.313c-0.464-0.561,1.096-2.833,0.656-2.625c1.183-0.559,5.976,1.108,8.531,1.313
		c12.967,1.037,20.502-0.721,24.937-7.875c-5.804-3.164-13.773-4.164-20.343-6.563c9.716-2.756,25.55,1.25,28.874-9.187
		c-4.49-2.509-11.552-2.448-16.407-4.594c9.524-0.757,20.326-0.236,24.282-6.562c-3.642-2.484-9.772-2.478-13.781-4.593
		c7.998-1.626,18.28-0.969,21.655-7.219c-3.556-1.476-9.02-1.043-11.813-3.281c7.098-0.778,14.395-1.354,17.062-6.562
		c-2.726-0.556-6.408-0.153-7.874-1.969c6.235-0.326,11.066-2.058,14.437-5.25c-0.959-1.446-5.197,0.386-5.249-1.969
		c4.897-0.133,8.859-1.203,10.499-4.593c-0.982-0.112-2.422,0.234-2.625-0.656c10.012-2.804,12.965-11.179,21.656-16.406
		l-0.454-0.324c3.355-1.509,6.544-2.932,9.928-4.054C679.339,8.852,679.895,7.746,679.555,6.72z M386.663,275.403
		c4.615,2.289,16.834,8.428,19.687,0.657c2.277,2.533-2.029,4.066-1.969,6.562l0.662,0.095c-4.818,4.467-8.936,9.704-12.915,14.786
		c-3.921,5.008-7.979,10.168-12.646,14.484l-0.038-0.491c0.432-2.399-1.42-2.518-1.313-4.594c7.603,0.705,18.615-13.037,17.062-21
		c-1.286-6.585-15.96,3.344-17.718,5.25C380.395,285.759,385.334,282.386,386.663,275.403z M376.819,312.15
		c1.474,5.515-4.91,8.577-6.562,13.126l0.534,0.364c-1.451,0.813-2.486,2.021-3.414,3.115c-0.662,0.78-1.214,1.413-1.785,1.879
		l0.072-0.109c-0.929-14.265-23.903,3.283-26.249,7.875c-0.891-1.516-1.886-2.926-1.969-5.25c8.74-4.166,14.32-11.491,17.062-21.655
		C361.435,314.407,372.882,316.596,376.819,312.15z M345.417,356.391c-0.263-0.508-0.5-1.053-0.744-1.613
		c-0.58-1.334-1.211-2.781-2.325-3.944l0.349,0.035c1.595-1.056,5.131,0.653,7.675-0.563
		C349.588,352.274,347.947,354.29,345.417,356.391z M331.541,316.745c0.039-6.723,8.552-9.632,11.812-15.75
		c1.84-3.455,1.204-6.871,2.625-11.156c4.193,6.336,15.438,8.279,23.624,8.531C351.205,298.349,341.377,310.394,331.541,316.745z
		 M267.312,473.319c-0.536-0.812-1.004-1.705-1.479-2.643c-0.95-1.872-1.94-3.799-3.679-5.258l0.483-0.367
		c1.088-0.182,6.5,2.8,9.784,0.688C271.529,468.49,269.708,471.202,267.312,473.319z M259.355,447.989
		c0.492,1.353-3.215,7.44,0,9.844c-0.657,2.024-1.082-1.424-1.969-1.313l-0.134,0.151c-0.613-1.591-1.475-3.004-2.314-4.377
		c-0.625-1.021-1.216-1.998-1.693-3.01l0.205,0.017C254.835,447.941,257.731,450.091,259.355,447.989z M216.701,541.174
		c2.143-0.34,9.466,3.702,13.619,0.136c-1.48,3.877-3.213,7.992-6.125,10.461c-1.131-1.149-2.024-2.606-2.955-4.128
		c-1.107-1.81-2.253-3.662-3.888-5.179C217.229,542.038,217.312,541.076,216.701,541.174z M248.2,533.299l0.062,0.491
		c-1.848-0.595-3.675-0.422-5.32-0.256c-1.029,0.104-2.015,0.203-2.919,0.104l0.303-0.34c0.593-4.657,3.642-6.859,4.594-11.155
		c1.016,4.452,2.208,8.729,5.906,10.499C250.703,533.613,249.239,533.244,248.2,533.299z M245.575,512.955
		c0.78-5.831,1.039-17.817-6.563-16.404c-6.5,1.207-13.817,10.918-18.375,14.437c-3.177,2.453-2.418,7.15-4.593,9.844
		c-0.289,0.356-2.163-0.183-2.625,0c-4.083,1.611-2.413,9.563-1.969,11.812l0.037,0.337c-3.267-3.484-6.192-7.636-8.581-12.152
		l0.013,0.004c4.45,1.461,11.082-0.792,13.125-4.595c0.578-1.075-1.379-1.727-1.313-2.624c0.195-2.628,7.421-7.678,9.843-13.781
		c2.584-6.512,3.029-12.772,1.313-18.374c4.395-1.15,8.609,0.335,13.781-0.656c3.561-0.683,6.485-3.618,9.187-3.938
		c0.909-0.108,2.375,1.877,3.281,1.969c4.641,0.47,8.341-5.204,8.531-10.5c0.138,0,0.276,0,0.415,0
		c0.885,1.017,1.535,2.296,2.213,3.632c0.599,1.181,1.215,2.389,2.029,3.498c-0.572,2.68-1.986,5.154-3.489,7.769
		c-1.631,2.84-3.306,5.768-3.966,9.14l-0.482-0.413C253.095,498.602,249.518,505.961,245.575,512.955z M288.229,449.302
		c0.942-3.214,3.425-4.887,4.593-7.874c1.229,2.708,1.295,6.578,3.938,7.874C294.844,450.962,290.442,449.524,288.229,449.302z
		 M291.51,436.834c0.831-10.12-7.819-8.643-15.749-3.281c-4.901,3.313-10.007,9.806-13.125,13.781
		c-1.661-6.563,7.246-9.724,10.5-17.063c1.96-4.42,1.045-8.155,2.625-13.78c11.821-0.937,24.967,2.217,28.218-8.531l-0.058-0.406
		c0.701,0.627,1.185,1.51,1.719,2.493c0.317,0.582,0.647,1.176,1.035,1.753c-0.345,1.608-1.264,3.085-2.242,4.643
		c-1.092,1.738-2.206,3.531-2.66,5.683l-0.418-0.385C297.768,426.468,294.508,431.519,291.51,436.834z M305.291,402.055
		c2.619,1.156,6.892,0.745,9.013-0.552c-0.971,3.075-3.359,5.834-5.703,7.94c-0.144-0.251-0.286-0.507-0.43-0.771
		c-0.61-1.124-1.287-2.349-2.387-3.314l0.163-0.022C306.216,403.755,304.749,403.908,305.291,402.055z M315.791,440.771
		c-0.236,1.891-1.148,7.442,0.656,10.501l0.071,0.045c-2.05,0.145-4.263,0.011-6.695-0.411c-0.078-0.238-0.245-0.427-0.595-0.291
		C313.546,448.947,312.684,443.679,315.791,440.771z M329.572,378.43c0.757-10.872-11.123-4.617-16.406-0.656
		c-2.864,2.148-4.729,6.503-7.219,7.875c-0.672,0.37-2.768-0.532-3.281,0c-1.451,1.506-1.888,5.181-1.969,5.905
		c-2.456-1.044-1.799-5.199-3.937-6.562c9.832-5.479,16.892-13.732,19.03-26.905c8.164,1.266,23.629,5.087,24.936-4.594
		l-0.229-0.564c0.684,0.788,1.135,1.822,1.627,2.955c0.39,0.897,0.793,1.816,1.339,2.686c-0.397,1.445-1.291,2.781-2.242,4.189
		c-1.296,1.924-2.745,4.07-2.939,6.759c-3.34,1.576-5.083,4.946-6.636,7.964c-0.229,0.443-0.451,0.871-0.674,1.289l-0.089-0.341
		C330.78,378.453,329.574,378.399,329.572,378.43z M334.165,380.399l-0.451,0.105c0.276-0.513,0.546-1.032,0.81-1.543
		c1.267-2.461,2.478-4.809,4.38-6.088l-0.145,0.307c-1.764,2.405,0.81,5.01,0.656,7.874
		C337.843,380.658,336.421,380.111,334.165,380.399z M383.382,358.743c7.386-2.207,5.229-18.631,3.938-25.593
		c4.687,0.857,4.414,2.058,4.593,5.906c0.403,8.641,8.702,22.17,15.093,19.687c5.799-2.254,2.111-13.124,1.313-19.687
		c4.434,5.817,5.344,19.979,13.125,22.968c10.631,4.083,7.891-10.028,5.905-18.375c3.869,7.725,6.003,17.183,12.469,22.313
		c-15.537,0.213-15.201,16.298-24.937,22.312c1.432-4.388,7.696-9.81,9.188-14.438c3.938-12.226-6.839-10.825-13.125-6.562
		c-4.468,3.029-10.287,11.408-11.813,13.78c-1.69,2.629-0.876,7.488-5.905,6.563c0.623-4.214,15.552-24.839,4.593-26.25
		c-9.218-1.187-21.182,15.83-20.999,24.281c-1.75,0-3.5,0-5.25,0c4.983-5.697,17.734-29.582,2.625-26.905
		c-6.403,1.135-11.071,9.77-13.78,14.438c1.296-5.13,8.588-19.014-0.657-19.688c-7.911-0.576-13.597,10.851-17.718,15.093
		l-0.174,0.17c0.366-1.378,1.223-2.666,2.184-4.091c1.062-1.572,2.15-3.201,2.695-5.169c4.207-3.317,6.592-6.607,7.234-9.989
		l0.529,0.706c4.218-5.407,8.76-10.49,12.469-16.406l-0.19-0.043c1.266-0.782,2.206-1.887,3.07-2.907
		c0.771-0.908,1.509-1.771,2.398-2.31l-0.029,0.666c0.656,0,1.313,0,1.969,0C367.905,336.595,374.335,361.446,383.382,358.743z
		 M481.159,157.939c-4.543,3.081,1.403,8.996,4.595,10.499c-0.558,0.974-1.652,1.411-3.282,1.313
		c1.593,4.971,4.391,8.735,9.844,9.844c-2.777,4.003-6.236,7.326-9.187,11.156c-0.737-2.721,3.875-5.736,2.625-11.156
		c-2.474-0.504-3.138,0.8-5.251,0.656c1.275-2.08,3.482-13.313-1.969-10.5c0.405-3.803,0.867-6.2,0-9.843
		c-1.039,0.054-2.504-0.315-2.625,0.657c-1.34-1.384,0.813-4.841,0-7.875C477.891,154.207,478.8,156.798,481.159,157.939z
		 M472.628,143.502c3.067,2.498,6.963,7.044-0.655,7.218C472.966,148.248,473.299,146.129,472.628,143.502z M473.94,199.937
		l0.217,0.027c-0.617,0.969-1.396,1.858-2.229,2.789c-1.211,1.355-2.452,2.753-3.193,4.491l-0.043-0.087
		c-2.076,1.566-3.905,3.38-5.511,5.417c-0.151,0.223-0.288,0.394-0.396,0.488c0.126-0.168,0.266-0.323,0.396-0.488
		c1.936-2.835,6.81-15.073-2.364-10.011c-1.043-2.159,2.492-5.364,1.313-9.843C465.005,196.33,468.804,200.524,473.94,199.937z
		 M464.754,187.468c-3.115,0.385-2.384,4.617-6.563,3.938c1.724-1.776,1.303-5.697,1.313-9.187
		C461.484,183.737,462.395,186.329,464.754,187.468z M457.535,173.031c4.746,1.38,1.839,7.01-1.969,8.531
		C454.567,179.663,457.695,176.275,457.535,173.031z M435.223,243.248c2.114-3.122,11.115-11.351,10.501-17.718
		c-0.496-5.125-6.389-1.247-9.187,0c0.986-4.044,3.965-6.096,3.28-11.813c3.354,4.3,9.062,8.263,14.438,8.531l0.177,0.009
		c-1.793,2.433-3.788,4.777-5.73,7.045c-2.085,2.436-4.23,4.956-6.15,7.611l-0.108-0.229
		C439.796,238.335,437.968,243.831,435.223,243.248z M457.535,239.967c4.854-14.295-7.882-7.34-13.124-1.97l-0.183-0.008
		c1.858-2.559,3.947-5.017,5.982-7.394c1.994-2.33,4.046-4.738,5.902-7.267l0.109,0.231c2.892-1.483,3.786-4.964,7.219-5.906
		c-0.423,5.646,2.049,12.969,6.562,15.75C465.005,234.749,460.073,236.161,457.535,239.967z M471.973,240.623
		c-0.834-4.667,5.412-10.315,2.625-17.063c3.478,3.74,4.667,9.77,10.499,11.156C479.486,235.452,474.7,237.008,471.973,240.623z
		 M485.754,242.591c-2.189-5.262,5.245-6.557,3.937-13.125c1.976,2.399,3.746,5.003,6.562,6.563
		C492.492,237.957,487.836,238.989,485.754,242.591z M498.877,245.216c-1.115-4.407,5.27-6.973,4.595-13.125
		c1.643,2.513,4.568,3.744,5.905,6.563C504.351,239.314,501.615,242.267,498.877,245.216z M496.252,201.25
		c2.242,1.784,10.59,10.167,11.813,2.625c2.188,1.311,3.56,3.44,6.563,3.937c-2.704,1.89-7.681,1.508-9.188,4.594
		c2.115-7.265-9.405-4.366-12.469-1.969c2.587-6.864-9.749-3.325-11.156-0.656c-1.582-1.206,0.9-3.868,0-6.563
		c-5.356-0.114-7.45,3.038-11.144,4.589c0.626-1.341,1.658-2.508,2.745-3.725c0.84-0.939,1.694-1.914,2.396-3.004l0.098,0.172
		c3.138-2.988,5.144-7.106,9.845-8.531C483.204,199.062,497.056,211.767,496.252,201.25z"/>
</g>
</svg>
