<?xml version="1.0" encoding="utf-8"?>
<!-- Generator: Adobe Illustrator 15.1.0, SVG Export Plug-In . SVG Version: 6.00 Build 0)  -->
<!DOCTYPE svg PUBLIC "-//W3C//DTD SVG 1.1//EN" "http://www.w3.org/Graphics/SVG/1.1/DTD/svg11.dtd">
<svg version="1.1" id="Layer_1" xmlns="http://www.w3.org/2000/svg" xmlns:xlink="http://www.w3.org/1999/xlink" x="0px" y="0px"
	 width="792px" height="612px" viewBox="0 0 792 612" enable-background="new 0 0 792 612" xml:space="preserve">
<path opacity="0.81" fill="#A6C494" d="M782.195,614.606c-1.215-6.511-8.323-9.329-10.438-13.39
	c-0.428-0.819,0.966-1.799-0.038-3.063c-0.424-0.532-2.765-0.202-3.252-0.68c-0.877-0.859-2.361-5.567-4.047-6.619
	c-2.104-1.314-3.766,0.129-5.786-1.551c1.98-0.061,2.51-0.967,1.59-2.723c-1.822-1.744-5.497-0.309-7.414-1.891
	c0.631-1.054,2.327-1.484,4.123-1.853c-1.039-3.438-5.313-1.319-7.073-3.518c5.092-4.35-7.409-3.371-10.854-3.292
	c2.596-1.527,6.563-2.255,8.964-3.895c-2.604-4.917-10.269-1.168-15.165-2.156c3.852-0.797,7.135-1.92,8.963-3.896
	c-3.435-5.235-12.479-0.853-18.229-2.118c4.93-1.587,11.769-2.057,13.085-5.749c-5.351-4.031-14.948-0.788-23.069-0.076
	c3.565-2.582,11.058-2.876,14.712-5.407c-4.057-8.338-17.182-1.134-25.792-1.666c5.077-3.322,13.652-4.607,15.923-9.567
	c-5.874-4.671-18.718,2.377-26.097,3.025c8.034-2.816,15.683-5.855,21.142-10.173c-3.189-6.003-12.854-0.905-19.477-1.022
	c5.717-1.328,8.57-4.328,13.805-5.937c-6.916-11.094-25.918,3.038-36.383,1.888c11.988-3.751,23.598-7.725,28.1-15.845
	c-6.331-2.353-16.649,2.127-24.656,2.646c6.993-2.813,13.664-5.813,18.078-10.134c-12.906-7.566-34.002,9.412-47.502,6.351
	c5.227-0.586,13.451-3.276,18.494-5.634c2.853-1.333,21.793-11.734,21.633-14.143c-0.33-5.012-17.351-1.969-23.069-0.076
	c-12.906,4.265-24.199,14.876-31.957,9.943c12.37-3.417,22.271-6.576,32.637-13.198c5.016-3.204,14.471-12.03,13.163-14.217
	c-2.717-4.542-13.926,3.141-19.1,0.413c5.524-3.671,9.556-8.213,13.54-12.781c-9.232,0.867-14.526-1.012-23.6,0.83
	c-15.394,3.127-37.853,22.011-47.728,17.166c26.572-9.473,50.256-19.143,62.971-38.079c-11.838,1.854-22.575,0.157-32.563,4.725
	c-10.145,4.643-28.305,19.259-40.086,22.842c-2.764,0.84-7.223,3.206-9.382-0.604c2.566-0.462,5.373,0.739,8.282-0.643
	c1.542-0.733-0.083-3.024,1.212-4.16c0.733-0.646,2.269,0.215,3.781-0.229c3.665-1.071,7.816-5.406,11.798-7.715
	c4.095-2.369,9.989-3.301,13.087-5.745c1.277-1.009,0.236-1.981,1.589-2.725c4.064-2.232,3.973-2.046,5.899-3.857
	c2.144-2.013,3.721-3.005,4.994-4.386c0.752-0.821,2.839-1.067,3.402-1.664c1.604-1.705,3.166-5.878,4.235-7.263
	c3.899-5.039,8.643-8.5,11.726-13.839c-22.4,3.391-36.972,12.841-54.497,23.558c-13.676,8.358-31.093,25.974-37.292,15.957
	c3.39,0.442,6.689,1.045,11.347-0.68c1.896-1.945-2.72-3.276-1.135-4.313c3.805-1.357,5.384,0.7,8.813-1.548
	c1.281-0.843,1.103-3.554,2.646-4.539c1.979-1.263,5.181-0.352,7.186-1.891c1.327-1.021,1.467-2.945,2.836-3.821
	c4.446-2.835,11.289-4.32,15.771-7.221c0.036-0.022-0.365-2.716-0.035-3.063c1.529-1.625,5.866-1.927,6.276-2.422
	c0.629-0.753-0.998-2.223-0.037-3.063c1.531-1.339,4.603-0.956,6.276-2.42c0.158-0.138-0.331-2.67-0.036-3.063
	c0.799-1.065,3.756-1.372,4.122-1.853c0.793-1.037-0.586-3.117-0.227-3.782c0.402-0.747,3.004-0.296,3.592-0.944
	c0.305-0.335-0.397-2.544-0.036-3.065c3.675-5.315,10.479-10.94,12.064-15.466c-5.755,0.431-11.088,4.698-16.149,5.785
	c-0.485,0.104-1.146-1.393-2.533-0.869c-0.759,0.285-1.629,2.034-2.496,2.193c-0.989,0.179-2.259-1.061-3.251-0.682
	c-0.883,0.338-1.082,2.426-2.307,2.912c-3.694,1.465-4.739,1.864-7.527,3.517c-3.635,2.153-8.044,3.169-10.932,5.181
	c-1.5,1.048-1.955,2.94-3.553,4.009c-0.807,0.537-2.187-0.73-3.784,0.227c-1.806,1.082-4.75,4.417-7.486,6.581
	c-2.902,2.293-5.907,4.015-9.115,6.239c-11.19,7.756-26.818,24.055-34.076,13.577c3.472,0.49,10.076,0.044,12.215-3.215
	c-0.281-2.648-3.009-1.099-3.29-3.745c3.857-0.552,12.389,0.283,14.37-3.781c0.55-1.124-1.309-2.276-0.036-3.063
	c2.833-1.751,7.598,0.184,10.061-2.646c0.833-0.959-0.188-2.683,0.682-3.252c2.016-1.325,6.745-0.814,8.432-2.989
	c0.543-0.695-0.079-2.797,0.684-3.251c2.082-1.246,6.664-0.056,8.621-2.269c0.906-1.026-0.291-2.668,0.68-3.253
	c1.521-0.917,4.962,0.349,6.657-0.982c0.447-0.352,0.881-3.175,1.4-3.442c2.141-1.102,5.618,0.304,7.186-1.89
	c-0.057-2.335-1.796-1.787-1.854-4.123c1.509,0.889,4.371-0.538,6.657-0.983c-1.347-3.675,0.262-2.56,3.366-4.727
	c1.787-1.249,3.728-4.786,4.612-5.825c4.063-4.752,11.691-8.964,13.354-13.499c-7.712,4.106-17.503,2.043-23.563,3.894
	c-1.019,0.312-2.917,2.493-3.934,2.569c-2.307,0.179-0.308-2.423-2.72-1.587c-1.933,0.669-2.169,3.178-4.276,4.199
	c0.534-0.259-1.396-1.258-2.533-0.871c-6.68,2.262-8.592,5.44-13.237,8.093c0.619-0.354-1.454-1.279-2.533-0.87
	c-1.513,0.575-3.661,4.484-6.241,5.483c-5.563,2.154-5.69,4.225-10.363,7.336c-1.19,0.793-3.781,0.65-5.03,1.323
	c-3.321,1.79-5.863,5.235-9.456,7.866c-8.263,6.054-18.934,10.544-23.787,14.711c-1.398,1.201-2.948,5.44-3.896,5.635
	c-2.24,0.461-7.638-4.613-10.172-6.544c4.036-0.118,8.053,1.081,11.875-1.586c1.649-1.646-3.11-3.466-1.324-5.032
	c2.543,0.858,8.542,0.169,10.968-2.116c0.581-3.178-3.864-2.973-2.042-4.841c3.176,1.615,9.706-0.921,13.125-2.683
	c0.509-2.732-3.857-2.265-1.853-4.125c4.457,2.068,14.693-2.354,12.176-6.277c3.242,0.618,6.725-1.554,9.153-3.176
	c1.913-1.912-3.057-1.797-0.945-3.593c2.134,0.65,7.804-0.843,9.343-2.46c1.812-1.921-3.612-2.604-1.854-4.12
	c2.59,0.428,6.205-0.906,9.531-1.74c1.796-1.711-2.121-3.401-0.417-4.5c2.173,1.62,3.945-2.118,7.185-1.891
	c1.737-1.612-2.62-2.546-0.943-3.593c2.155-0.567,4.31-1.134,6.467-1.702c-2.051-4.483,4.92-6.952,7.98-10.55
	c0.295-0.35-0.203-1.856,0.152-2.348c3.347-4.632,9.097-7.295,10.665-12.022c-12.723,4.988-18.409,3.894-26.021,9.15
	c-0.252-0.958-0.503-1.918-0.757-2.876c-2.48-0.34-4.347,4.686-6.429,4.767c-0.028-0.001-0.569-2.156-0.567-2.156
	c-1.596,0.723-4.178,4.392-6.431,4.765c-0.451,0.073-0.648-1.904-2.533-0.87c-3.845,2.11-3.632,4.3-6.618,4.047
	c-3.637-0.311-6.46,6.96-8.548,8.396c-2.771-4.843-7.505,3.556-10.741,5.899c-1.534,1.109-3.672,0.897-5.559,2.23
	c-1.861,1.313-3.104,4.385-5.333,6.014c-6.643,4.853-13.052,9.067-19.667,12.856c-7.688,4.405-12.32,12.531-17.095,16.791
	l0.153,0.299c-1.492-0.329-2.896-1.097-4.367-1.907c-1.824-1.004-3.701-2.033-5.882-2.276l0.49-0.504
	c-4.555-3.974,10.855,1.618,12.934-3.402c1.748-4.217-7.596-5.132-7.487-8.018c4.129,1.08,10.842,2.738,15.846-1.096
	c0.273-2.654-3.814-3.061-2.042-4.841c3.564,0.417,9.305-1.413,11.309-3.742c0.411-3.222-4.672-2.308-2.761-4.652
	c5.533,2.33,15.893-3.883,11.083-7.525c4.998-0.521,9.154-1.994,12.554-4.842c0.292-2.04-3.754-1.7-1.663-3.404
	c4.281,0.232,8.179-2.209,11.12-4.461c0.489-3.022-4.205-2.394-2.571-3.933c3.646,1.034,7.575-2.271,10.589-3.556
	c0.069-3.647-5.566-2.902-4.387-4.993c2.966,0.64,9.037-1.416,11.496-3.025c0.181-3.784-2.798-2.156-3.48-4.462
	c10.401,0.874,6.899-7.243,14.487-9.189c2.009-2.136-3.481-1.972-1.665-3.403c1.203-1.527,4.643-1.754,6.091-3.14
	c-0.046-2.351-2.338-0.861-2.384-3.214c5.222-0.764,3.261-4.155,4.426-6.544c1.033-2.115,4.916-4.792,6.583-7.111
	c2.005-2.791,3.983-5.196,4.765-8.167c-9.697,4.758-17.893,7.174-22.922,12.178c-1.509-5.417-4.755,4.654-6.087,3.14
	c-0.253-0.958-0.504-1.917-0.758-2.876c-4.172,1.419-4.007,5.368-7.3,7.3c-2.511-8.603-5.597,2.328-8.054,4.425
	c0.811-0.693-1.648-1.256-2.534-0.87c-3.844,1.672-4.011,8.366-6.015,9.266c-0.314-1.198-0.629-2.396-0.945-3.593
	c-5.896,2.236-6.343,7.653-9.228,11.648c-3.016-7.523-9.5,7.048-10.704,8.961c-5.08-5.977-9.683,7.133-11.762,10.778
	c-0.746-1.154-0.243-4.45-1.852-4.122c-4.302,1.293-7.589,11.58-10.515,9.681c-5.021-3.258-9.259,8.687-12.482,10.967
	c0.772-0.545-1.597-1.233-2.534-0.869c-4.14,1.615-10.651,11.864-11.534,14.56c-0.951,2.906,1.032,3.225-0.493,3.971
	c-3.515,1.722-15.629-7.937-15.957-8.094c4.388,1.975,15.406,3.788,16.374-2.004c0.957-5.727-11.524-7.118-12.024-10.666
	c5.396,1.839,22.147,4.791,21.404-3.326c-0.379-4.144-8.488-2.784-8.547-6.204c10.71,4.626,31.02-2.593,13.768-9
	c10.969,2.975,23.872-5.276,12.857-9.53c4.03,1.915,13.206-0.333,16.718-3.63c-0.823-3.144-6.698-3.067-6.014-5.331
	c4.395,1.511,14.316,1.073,18.343-3.292c-0.767-3.584-7.329-2.685-6.732-5.142c4.156,0.666,11.035,0.563,15.468-2.534
	c0.349-3.442-4.324-3.61-2.948-5.37c3.724-0.494,11.89,1.409,13.313-1.965c1.606-3.811-6.266-4.736-5.673-6.959
	c3.52,1.107,11.272,0.627,13.842-2.876c-0.761-2.904-6.808-2.18-5.822-4.613c3.941-0.85,7.292-0.688,11.684-2.307
	c2.235-2.817-4.084-2.616-2.041-4.842c2.965-0.114,7.025-0.493,9.341-2.457c-3.918-4.106,10.17-13.803,12.595-16.375
	c4.742-5.029,11.877-6.607,14.108-10.626c-7.91,0.188-18.884,3.169-25.869,6.806c-2.07,1.077-3.64,3.661-5.182,3.668
	c-0.854,0.005,0.092-2.759-2.005-1.777c-2.611,1.223-4.087,4.792-6.24,5.483c-1.029-2.18,0.764-2.578-0.945-3.593
	c-4.452,0.862-5.896,6.68-8.206,6.77c-0.378-1.439-0.757-2.875-1.135-4.313c-6.262,0.817-5.686,8.837-9.077,9.303
	c-0.644-2.038,0.522-6.128-1.89-7.186c-4.104,3.486-5.938,8.297-8.133,12.897c-1.548-2.804,0.233-5.269-1.701-6.469
	c-5.266,2.607-5.935,7.893-8.321,12.178c-1.079-2.741,0.525-4.127-2.042-4.841c-4.049,3.923-5.883,9.14-7.755,14.333
	c-0.438-2.487,0.059-4.427-1.17-7.375c-7.501,2.722-6.87,10.187-9.721,15.619c-0.592-2.374,0.271-3.896-0.982-6.655
	c-5.299,0.699-5.677,6.972-8.889,10.021c-1.401,1.331-4.165,1.156-5.56,2.23c-4.644,3.571-3.885,8.873-6.317,13.955
	c-0.921-2.243-0.688-6.463-3.137-6.089c-4.063,3.713-6.382,8.443-8.852,13.085c-0.209-1.727-0.841-2.728-1.664-3.404
	c-8.25,3.5-7.86,12.042-12.216,17.812c-1.251-2.719-0.841-8.287-3.705-8.243c-5.428,7.378-13.242,13.362-9.229,26.247l0.397,0.405
	c-2.074-0.684-4.096-1.604-6.065-2.501c-2.811-1.282-5.711-2.598-8.849-3.289l0.03-0.026c-0.127-1.319-3.97-1.333-2.194-2.495
	c23.289,1.063-2.022-14.782-6.503-15.96c6.086,1.47,15.629,6.106,21.858,4.235c8.286-2.484-7.228-11.787-7.184-12.708
	c4.35,1.206,12.389,4.592,17.7,3.027c11.469-3.377-3.597-9.79-6.468-12.896c4.673,1.93,22.555,6.602,23.598-0.83
	c0.639-4.538-9.373-4.193-8.924-7.642c4.454,3.383,20.682,2.292,19.59-4.386c-0.333-2.038-9.05-2.526-8.358-5.483
	c5.803,0.468,15.245,1.091,20.499-3.857c-0.464-3.413-6.781-2.223-5.823-4.614c4.146,1.299,13.487,1.582,15.996-3.441
	c-2.449-2.403-5.986-2.943-8.356-5.483c4.939,1.499,16.257,2.599,15.998-3.44c-0.144-3.369-8.123-2.386-7.641-5.675
	c4.975,0.806,13.182,1.39,17.624-3.1c-1.196-3.878-8.048-3.55-7.827-6.392c4.426,0.342,13.76-0.529,15.619-4.879
	c-1.446-2.037-4.728-0.933-5.635-3.895c3.781,0.576,9.406-0.408,13.124-2.684c-0.251-2.761-5.451-2.394-4.198-4.275
	c3.304-0.911,7.108-1.53,9.152-3.176c0.602-2.571-3.444-2.232-1.663-3.404c3.172-0.379,4.615-1.767,6.996-2.609
	c-0.28-2.647-3.009-1.098-3.289-3.744c5.184-0.037,4.972-3.786,6.24-5.483c0.845-1.133,2.386-0.712,3.403-1.664
	c5.066-4.745,9.461-12.417,13.124-17.284c-5.961,1.54-12.096,6.528-17.019,8.319c-2.232,0.814-5.413,3.801-6.619,4.047
	c-1.757,0.357-0.507-2.858-2.723-1.589c-2.083,1.195-2.364,4.74-4.804,5.105c-0.315-1.197-0.63-2.395-0.944-3.593
	c-3.997,0.928-4.066,7.34-6.582,7.11c-0.378-1.438-0.756-2.874-1.135-4.311c-4.299,1.953-4.94,6.039-6.731,9.455
	c-1.225-2.493,0.717-4.458-1.513-5.748c-4.774,2.283-5.391,6.993-7.072,11.079c-1.255-2.758-0.392-4.282-0.983-6.655
	c-6.741,2.556-7.031,8.875-9.38,13.993c-1.413-3.663-0.165-5.772-1.74-9.53c-6.595,1.484-6.962,11.706-9.151,17.774
	c1.75-10.15-3.096-15.005-7.98-18.646c5.626,0.666,11.896,2.618,18.191-0.945c-0.798-3.873-6.789-4.311-6.391-6.771
	c4.91,0.297,12.413,2.827,15.468-2.533c-1.148-1.559-5.757-2.577-4.917-4.085c3.937-0.174,8.886,1.215,12.595-1.777
	c1.674-2.812-5.722-2.915-4.388-4.992c3.066,0.307,6.452,0.066,10.439-1.209c2.01-3.363-4.619-2.591-2.95-5.371
	c2.983,0.347,8.354-1.066,10.779-2.836c0.272-2.324-4.148-1.762-2.382-3.214c2.964-0.703,5.927-1.408,7.715-2.798
	c-0.118-1.534-1.741-1.271-0.757-2.875c3.791-6.17,17.703-9.838,19.97-17.546c-8.499,2.543-17.881,4.571-22.957,9.113
	c-0.405-1.043-0.44-2.72-1.475-2.686c-1.921,0.958-2.72,5.982-5.333,6.013c-0.429,0.006-0.283-2.613-1.286-1.966
	c-2.582,1.667-3.578,5.605-6.771,6.391c-1.127-1.875,0.523-2.128-0.227-3.782c-4.022,0.711-5.747,5.951-7.678,5.861
	c-0.461-1.688,0.682-2.441-0.414-4.5c-5.037,1.522-5.565,5.674-7.641,8.925c-1.265-2.562-0.026-3.666-0.794-5.938
	c-4.764,0.883-5.521,7.306-8.018,7.488c-1.129-1.875,0.522-2.128-0.227-3.782c-6.786,0.713-7.254,8.33-9.796,9.493
	c0.133-1.951-0.073-4.098-0.984-6.657c-6.788,3.34-7.865,10.009-10.438,15.808c-0.996-4.372,1.007-9.762-1.966-13.312
	c-6.795,3.942-7.573,11.396-9.871,17.963c-0.787-3.501,0.551-8.318-1.21-10.438c-7.866,3.318-8.421,10.902-10.778,17.434
	c-0.02-1.835,0.17-3.55-0.796-5.938c-9.626,3.102-9.483,11.904-12.745,18.72c-1.779-4.484-0.794-7.357-2.306-11.686
	c-6.564,2.253-7.784,7.625-10.668,12.026c0.061-2.187-1.501-1.595-1.663-3.403c-5.58,1.02-5.871,8.314-9.418,10.929
	c-0.11,0.081-3.929-0.484-3.251-0.681c-7.477,2.174-7.124,10.927-9.493,19.401c-0.875-4.41-2.294-7.889-3.744-11.309
	c-9.808,3.199-7.669,13.368-9.834,21.027c-0.584-3.179-0.152-8.989-2.647-10.061c-7.849-3.368-10.47,17.181-9.645,21.745
	c-6.692-26.212-18.801-4.233-13.01,11.877c-5.213-6.815-12.392-23.027-20.195-15.433c-1.894-4.396-6.081-4.871-8.395-8.548
	c4.537,2.596,24.22,7.991,24.317-1.02c0.045-4.235-12.732-6.507-12.745-10.477c8.084,3.017,19.039,10.411,29.765,2.157
	c-4.053-6.608-11.489-7.416-16.375-12.594c4.953,0.593,11.504,5.211,18.076,4.463c3.447-0.393,10.572-2.33,10.929-5.181
	c0.647-5.14-15.574-6.509-15.807-10.439c5.981,1.206,15.719,3.996,22.541,0.984c13.086-5.78-6.189-9.099-10.249-12.671
	c5.077,0.5,15.4,2.402,21.443-0.263c12.486-5.506-2.016-7.52-6.805-11.27c7.036,2.588,25.125-2.502,20.611-9.265
	c5.35-0.348,11.897-2.447,11.458-6.087c-0.427-3.547-9.044-1.91-9.075-5.295c5.249,1.165,19.459-1.037,18.306-6.353
	c-0.346-1.595-7.023-0.568-6.165-2.989c5.584,1.068,17.651-2.337,14.863-7.751c2.748,1.167,7.576-1.64,10.061-2.647
	c-0.452-4.124-6.845-3.516-6.201-6.051c3.752-0.584,9.991-0.842,12.933-3.404c-0.937-3.259-4.547-1.938-5.824-4.614
	c4.571-0.503,8.284-0.182,12.406-2.496c-0.781-3.177-4.121-1.974-5.105-4.803c4.281-0.194,8.09-1.473,11.307-3.743
	c-0.082-3.682-3.85-1.049-4.727-3.367c3.565-0.758,5.106-2.698,9.151-3.177c1.997-2.055-2.588-2.6-0.945-3.592
	c9.072-6.873,16.895-14.475,24.055-22.463c-9.367,0.471-17.586,8.993-22.049,9.642c0.015-0.001-0.606-2.135-0.568-2.155
	c-2.871,1.453-3.423,3.683-4.803,5.105c-2.884-5.168-5.277,3.665-7.147,4.953c-0.377-1.436-0.757-2.874-1.134-4.311
	c-3.896,1.387-4.574,7.857-7.11,8.017c-0.215-1.748,0.426-2.996-0.605-5.219c-4.483,1.45-4.684,8.607-7.64,8.924
	c0.716-1.608,0.479-3.776-0.075-6.126c-6.901,2.258-6.412,8.83-8.662,13.803c-1.13-3.344,0.232-7.627-1.738-9.53
	c-5.614,3.416-6.295,9.709-8.283,15.24c-0.648-3.216-0.314-5.86-1.739-9.53c-6.939,3.048-6.519,10.391-8.813,16.148
	c-1.356-3.832-0.272-6.242-1.929-10.249c-8.511,3.551-7.396,12.717-9.305,20.119c-1.197-4.551-2.395-9.102-3.591-13.653
	c-7.472,3.954-6.618,12.765-7.679,20.459c-0.631-2.396-1.26-4.79-1.89-7.186c-8.49,3.158-7.074,12.095-8.775,19.212
	c-0.946-3.593-1.892-7.187-2.837-10.779c-5.598,2.411-5.926,7.896-8.32,12.177c-1.241-1.35-1.366-4.61-3.479-4.462
	c-6.937,5.686-6.158,15.871-7.264,24.96c-1.803-5.597-2.618-12.889-5.256-17.057c-9.234,4.547-7.115,15.719-7.98,25.15
	c-1.881-10.432-4.958-17.465-10.021-8.889c-2.927,4.958-1.317,16.515-1.553,20.385c-2.47-4.133-1.335-12.124-4.31-13.463
	c-2.083-0.939-7.132,4.179-8.548,8.395c-2.606,7.768,2.509,17.064-0.833,20.195c-3.181-6.123-3.854-18.598-8.885-19.175
	c-8.349-0.957-7.353,21.77-5.412,29.083c-3.415-6.295-6.738-18.683-13.008-17.322c-9.805,2.128-1.005,21.364-1.061,31.012
	c-5.642-7.012-12.38-17.605-20.762-17.587c-1.175,0.002-2.671,1.423-3.594,0.945c-1.274-0.662-1.714-3.689-2.76-4.652
	c-4.025-3.699-10.886-3.959-13.615-7.942c6.624,1.876,17.172,8.487,25.301,5.636c16.946-5.946-9.482-15.829-12.48-18.229
	c7.762,0.567,16.133,6.387,25.832,4.729c7.443-1.273,12.521-4.461,6.919-8.736c-5.017-3.831-15.061-4.784-19.399-9.495
	c9.502,0.17,20.862,7.271,31.39,2.498c4.89-2.217,6.802-5.428,2.421-8.32c-4.784-3.159-16.802-4.448-19.022-8.056
	c7.667,0.856,19.033,5.689,27.948,1.099c13.314-6.857-13.659-11.104-15.316-14.41c4.942,1.569,25.926,5.815,27.002-2.495
	c0.673-5.188-12.32-4.436-12.178-8.32c4.628,2.381,25.885,6.27,25.566-2.117c-0.122-3.259-10.126-4.013-12.517-6.695
	c3.609-0.931,7.734,2.096,12.631,1.287c16.099-2.662,2.487-9.095-0.87-12.064c5.015,2.235,15.426,2.573,20.876-2.419
	c-2.365-5.341-11.135-5.227-12.366-9.04c5.394,0.644,19.85,3.052,20.688-3.138c0.65-4.818-9.106-3.506-8.737-6.921
	c5.075,0.951,15.531,1.176,18.873-4.197c-2.308-1.63-8.056-2.838-8.168-4.766c3.874,0.531,10.798-0.534,14.56-3.063
	c1.458-3.011-6.391-3.25-5.294-5.521c4.765-0.121,8.669-0.802,13.124-2.685c1.202-3.078-4.123-2.182-5.105-4.804
	c3.593-0.945,7.185-1.89,10.779-2.835c2.092-1.346-4.475-1.87-2.382-3.214c2.286-1.226,3.353-1.453,8.435-2.988
	c-2.487-5.22,8.499-6.426,10.135-11.118l-0.793-0.682l0.26-0.155c4.738-2.821,9.213-5.487,14.261-6.74
	c1.131-0.28,1.821-1.425,1.54-2.556c-0.004-0.009-0.006-0.02-0.008-0.029c-0.293-1.114-1.426-1.789-2.549-1.511
	c-5.653,1.403-10.609,4.356-15.402,7.21l-0.117,0.068l-0.141-0.977c-5.949,2.394-10.441,2.292-13.616,6.655
	c-0.315-1.198-0.631-2.396-0.944-3.593c-4.1,1.866-4.58,5.844-7.83,8.206c-0.948-2.175,0.627-2.878-0.604-5.219
	c-4.883,2.424-4.794,7.747-8.701,10.741c-0.05-1.89,1.16-6.17-1.171-7.375c-4.76,3.305-5.732,8.821-8.851,13.084
	c0.47-2.767,0.241-5.942-1.021-9.719c-6.644,3.421-6.153,11.009-9.532,16.337c0.662-3.062-0.087-6.946-1.397-11.157
	c-6.6,3.246-6.993,10.113-8.813,16.147c-1.275-3.785,0.433-8.388-2.117-10.967c-6.111,3.938-6.97,10.939-9.342,17.056
	c-1.229-3.247,0.35-7.444-2.989-8.433c-7.387,4.409-7.715,12.936-9.115,20.838c-0.954-5.017-0.712-9.336-2.344-14.75
	c-10.793,4.653-7.925,17.275-10.667,26.625c-0.6-5.014-1.76-10.355-3.441-15.998c-8.343,1.868-9.018,13.358-9.644,21.746
	c-1.495-6.821-3.869-12.138-6.164-17.586c-6.215,4.08-7.271,11.167-8.245,18.304c-1.477-0.597-1.146-4.292-3.291-3.744
	c-6.842,4.321-8.387,11.734-7.677,20.459c-1.861-2.024-2.221-6.621-4.426-8.055c-11.121,5.677-7.755,19.807-6.809,32.524
	c-4.042-3.524-6.255-22.565-11.459-23.109c-3.611-0.376-7.692,10.467-6.996,17.207c0.513,4.97,3.878,10.126,3.063,14.561
	c-3.747-4.737-5.426-16.475-10.477-16.451c-10.64,0.051-5.076,28.975-1.173,36.42c-5.164-5.416-8.016-21.803-15.922-19.629
	c-11.78,3.239,1.479,29.777,1.36,37.289c-3.658-11.099-30.053-33.909-24.773-6.543c2.456,12.723,11.349,20.113,15.278,25.945
	c-3.815,0.282-6.061-2.123-9.757-2.042l0.048,0.413c-6.87-3.248-14.24-5.452-21.382-7.576c-6.112-1.815-12.409-3.696-18.324-6.218
	l0.023-0.01c19.617-6.117-13.489-23.362-19.362-21.029c1.975-7.613,13.942,3.204,24.166,1.325
	c8.642-1.587,12.332-6.396,5.978-12.328c-5.018-4.682-16.31-5.168-21.027-9.834c9.73-1.595,21.529,5.507,31.541,0.153
	c16.56-8.854-12.854-17.213-20.043-17.776c7.486-1.879,15.826,3.338,24.166,1.326c4.501-1.087,12.347-6.091,11.045-10.59
	c-2.188-7.568-19.012-2.971-24.432-8.17c8.362-2.244,16.67,2.643,26.134,0.04c4.156-1.144,13.102-6.396,11.762-10.778
	c-2.188-7.149-24.848-2.882-28.212-7.943c9.587-2.769,19.537,2.934,30.254-1.814c2.313-1.024,10.121-7.407,8.7-10.741
	c-2.463-5.78-24.399-1.414-27.646-5.787c9.991-2.169,24.007,2.428,33.848-2.759c17.825-9.395-12.689-12.858-19.287-14.902
	c6.08-0.817,13.638,1.295,21.443-0.263c5.224-1.043,15.516-5.57,14.297-9.908c-1.448-5.16-20.419-2.748-23.675-5.296
	c6.426-1.826,14.62,1.054,22.503-2.08c1.859-0.738,9.961-6.268,9.266-8.584c-1.495-4.973-16.658-0.286-20.423-4.615
	c9.126,0.172,24.537-1.92,27.27-10.249c-4.674-3.109-12.094-1.515-17.7-3.024c7.006-0.698,26.229-2.479,23.676-9.303
	c-1.218-3.252-9.915-0.108-12.48-3.631c6.034,0.26,19.875-2.122,19.741-6.731c-0.12-4.24-8.17-1.856-11.042-4.01
	c11.758-1.501,22.15-9.052,7.261-10.362c6.327-1.581,12.423-3.295,14.146-7.563c-1.944-1.189-5.437,0.282-6.696-2.08
	c4.962-1.364,10.836-2.195,12.368-5.56c-0.852-0.722-5.148-0.772-3.629-2.118c2.859-1.779,7.912-2.278,8.585-5.333
	c-0.751-0.252-4.497-0.431-2.723-1.588c7.731-3.515,7.545-9.317,12.971-14.938l-0.924-0.642c1.123-1.087,2.236-2.188,3.35-3.289
	c3.314-3.278,6.738-6.667,10.345-9.596c0.969-0.787,1.117-2.208,0.331-3.177c-0.788-0.967-2.21-1.114-3.177-0.329
	c-3.778,3.069-7.285,6.538-10.675,9.893c-1.046,1.035-2.094,2.066-3.149,3.089l-0.486-0.943c-4.604,2.653-6.049,4.933-9.984,8.774
	c-3.188-4.903-3.795,5.864-7.489,6.58c-0.746-1.154-0.243-4.45-1.853-4.122c-1.813,3.606-3.567,7.247-5.635,10.703
	c-0.505-1.917-1.009-3.833-1.513-5.749c-5.351,2.353-4.167,8.518-6.695,12.518c-1.403-3.049-0.177-4.565-1.173-7.375
	c-5.443,3.11-5.971,9.087-7.752,14.333c-0.819-3.114-1.638-6.228-2.458-9.341c-6.067,3.963-5.174,11.985-7.527,18.115
	c-0.928-3.971-1.959-7.763-3.556-10.589c-6.338,4.412-4.736,13.457-6.052,20.8c-5.552-25.524-13.106-3.244-10.526,9.517
	c-1.139-4.59-2.427-8.922-4.638-11.673c-8.941,4.718-6.089,16.318-6.166,26.208c-3.245-5.223-1.96-15.393-5.975-16.868
	c-4.608-1.694-8.017,11.513-7.187,16.489c-11.377-17.864-13.004,21.236-8.283,29.84c-4.342-6.038-3.823-21.929-9.832-22.768
	c-4.123-0.576-8,8.904-8.132,12.896c-0.306,9.288,7.501,22.061,5.407,29.311c-4.598-4.727-6.361-16.181-10.55-22.579
	c-7.031-10.738-12.595,3.56-11.006,13.652c1.684,10.711,9.698,20.613,8.28,28.554c-6.391-4.786-9.666-26.277-18.492-23.563
	c-3.931,1.208-4.846,11.966-4.313,15.732c1.584,11.191,11.045,21.125,9.908,28.895c-5.917-4.59-11.064-24.498-19.023-22.655
	c-4.531,1.05-5.765,11.36-5.219,15.204c1.692,11.879,11.431,19.215,11.533,29.234c-7.007-1.992-11.006-14.626-17.169-18.532
	c-7.049-4.466-10.477,4.626-10.703,8.962c-0.878,16.827,21.824,24.343,12.516,35.892c-3.214-3.123-3.048-9.01-7.337-10.364
	c-0.875-0.276-2.813,1.386-3.592,0.945c-0.957-0.539-1.745-3.695-3.479-4.462c-1.286-0.568-3.186,0.009-3.972-0.492
	c-5.05-3.214-10.372-9.53-15.583-6.657c-11.01,6.074,8.344,23.572,8.963,25.301c0.514,1.435-1.511,2.645-0.492,3.972
	c2.688,3.503,7.589,3.182,8.887,4.576c0.823,0.886-1.022,2.664-0.492,3.972c1.758,4.339,8.832,2.628,13.009,2.724
	c-0.297,6.758-7.29,0.997-11.156,1.398l0.035,0.575c-50.895-18.247-103.776-32.437-157.19-42.172
	c-1.268-0.231-2.485,0.61-2.717,1.879c-0.063,0.348-0.046,0.692,0.038,1.013c0.223,0.849,0.918,1.538,1.842,1.705
	c52.63,9.592,104.735,23.536,154.923,41.434c-1.723,4.108-5.371,2.126-8.922,2.563c-11.246,1.384-32.492,11.304-28.781,19.097
	c2.804,5.89,19.747,2.489,25.263,2.573c2.324,0.035,3.981,1.788,6.505,1.361c3.042-0.514,3.872-3.659,7.715-2.798
	c-0.275,7.009-5.167,7.965-12.14,9.34c-10.453,2.063-20.645,8.073-22.542,13.614c-3.998,11.682,24.102,5.447,31.427,5.563
	c-3.62,8.445-22.967,10.514-28.97,18.38c-1.338,1.754-4.328,9.438-2.193,12.103c5.07,6.32,20.006-6.034,28.781-4.5
	c-5.517,8.551-25.518,12.636-30.371,21.821c-0.267,0.504-3.629,10.073-1.475,11.911c6.014,5.133,25.655-12.896,30.18-7.94
	c-5.356,6.88-20.521,10.343-26.815,17.813c-1.635,1.939-6.487,10.837-4.161,13.388c4.969,5.445,22.212-8.124,26.057-6.087
	c-5.472,4.926-17.916,7.576-23.259,13.802c-1.507,1.757-6.05,11.589-4.16,13.388c4.38,4.175,19.311-8.321,24.62-5.709
	c-10.427,6.893-24.525,11.644-22.39,25.868c6.685,0.584,12.938-6.303,19.211-5.824c-10.557,5.195-19.518,11.322-19.364,22.768
	c6.859,1.273,11.845-6.259,17.775-5.446c-6.437,6.585-16.415,11.105-13.957,22.879c5.765-0.299,8.119-5.788,12.558-4.839
	c-6.043,4.788-13.081,8.995-12.216,17.813c5.765-0.299,9.516-4.976,13.463-4.311c-5.609,4.634-10.543,9.664-10.78,17.434
	c3.388,0.709,7.103-2.973,10.4-4.274c-2.88,5.62-7.807,10.046-7.716,17.397c3.996-0.508,5.67-2.368,8.245-3.706
	c-2.057,4.478-6.553,7.531-5.597,13.767c3.476-0.405,4.318-2.347,6.808-3.329c-1.54,4.375-5.281,7.463-5.069,12.859
	c2.693,0.296,4.594-2.922,5.749-1.513c-0.847,2.953-3.362,4.932-3.139,8.51c-0.001,2.087,3.252-1.407,3.253,0.682
	c-1.837,1.77-4.774,7.743-0.267,7.752c-2.092,3.847-2.419,8.726-1.627,14.257l1.104,0.192c-0.003,0.012-0.007,0.021-0.01,0.034
	c-0.202,1.323-0.47,2.694-0.727,4.019c-0.793,4.067-1.614,8.273-0.951,12.605c0.01,0.068,0.024,0.134,0.041,0.198
	c0.244,0.925,1.148,1.534,2.114,1.388c1.033-0.157,1.742-1.124,1.585-2.156c-0.563-3.683,0.159-7.387,0.925-11.313
	c0.192-0.992,0.384-2.01,0.561-3.03l0.617,0.523c3.348-6.765,5.268-14.363,6.392-22.427c0.282,1.601,1.189,2.132,2.723,1.589
	c-1.006-3.629-0.332-6.276-1.929-10.25c1.986-0.145,3.464,3.326,4.88,1.021c-0.349-4.645-3.965-9.152-3.744-11.308
	c2.242-0.017,2.411,3.514,5.256,2.458c0.748-5.2-3.011-9.563-4.499-14.183c2.911,0.225,3.598,4.262,7.072,3.517
	c0.188-5.385-2.599-11.358-4.349-16.525c3.593,0.79,5.576,4.346,9.605,4.386c0.358-7.37-4.107-13.203-7.071-18.114
	c3.882,1.339,6.82,4.298,10.703,5.636c2.799-8.845-7.509-16.356-8.735-21.521c4.146,2.278,7.522,5.871,13.047,5.787
	c1.066-10.004-7.12-16.126-11.987-22.201c4.726,2.058,15.803,14.178,15.732,4.313c-0.072-10.21-10.265-17.853-14.711-23.79
	c3.747-0.532,15.492,13.475,19.59,10.213c2.172-1.73,0.243-9.923-1.058-12.782c-2.919-6.421-12.884-10.38-13.879-14.788
	c5.316,4.529,28.554,19.524,18.532-2.571c-3.495-7.708-15.036-13.22-17.169-18.533c6.696,1.313,14.335,10.572,20.875,12.181
	c7.558,1.856,7.175-4.423,4.917-10.515c-4.13-11.14-18.808-16.001-25.527-24.017c5.162,1.37,32.343,17.877,25.755-1.399
	c-3.87-11.317-19.961-11.157-25.3-20.233c3.261,0.505,28.276,17.146,28.553,6.317c0.38-14.844-17.194-17.35-23.56-25.304
	c3.918,1.618,29.195,13.288,24.847-1.927c-3.035-10.618-20.136-13.006-24.393-19.706c8.422,1.48,12.271,4.421,18.607,3.557
	c4.514-0.615,7.429-2.095,7.337-4.235c-0.643-14.894-24.111-15.857-25.112-19.516c0.165,0.601,1.255-3.514,2.12-3.631
	c0.588-0.08,2.626,3.478,4.197,4.274c1.304,0.663,3.118-0.404,5.409,0.114c7.052,1.593,13.402,4.148,17.699,3.026
	c7.801-2.037,3.115-10.291-2.345-14.749c1.431-0.367,1.43,1.72,3.253,0.68l-0.053-0.452c6.308,2.755,12.956,4.741,19.399,6.656
	c6.669,1.982,13.54,4.034,19.892,6.923c-2.346,4.766-6.785,1.37-12.349,4.384c-7.054,3.821-20.652,10.242-19.63,15.922
	c1.763,9.801,26.024,1.934,33.167,0.493c-2.268,10.565-21.491,11.601-25.491,22.841c-5.94,16.69,16.561,5.287,23.824,2.951
	c-5.252,6.887-20.849,11.6-23.901,20.119c-5.973,16.671,16.067,4.288,23.637,2.233c-7.742,8.45-25.807,14.567-25.453,25.905
	c0.334,10.715,23.729-7.589,26.435-4.651c-5.916,10.337-23.22,14.029-18.003,30.859c2.067-0.066,5.462-2.412,6.656-0.981
	c-1.942,1.507-5.845,5.51-6.921,8.733c-4.066,12.193,8.855,3.709,15.166,2.158c-6.539,5.714-15.536,9.997-13.805,20.536
	c2.067-0.068,5.462-2.414,6.657-0.983c-4.762,4.316-10.172,8.259-8.813,16.148c5.703-0.537,10.047-5.073,14.183-4.5
	c-6.763,5.008-15.64,11.92-13.086,20.346c3.961-1.753,10.349-5.304,13.084-5.748c-4.042,6.563-12.426,10.594-10.741,20.497
	c3.933-0.949,6.28-2.822,8.774-4.613c-2.793,5.062-8.028,8.7-7.376,15.771c3.858-0.792,5.611-2.811,8.964-3.895
	c-2.337,5.327-7.653,8.917-6.468,16.301c4.472-0.45,6.292-5.635,9.493-4.805c-2.016,5.109-6.328,8.882-5.031,15.923
	c3.762-0.646,4.539-3.029,7.336-4.236c-1.822,4.007-3.842,7.897-3.441,13.199c1.976,1.081,2.787-1.946,5.559-2.231
	c-0.984,3.685-3.081,6.717-2.382,11.384c1.981,0.072,2.564-3.681,4.123-1.854c-0.208,2.922-2.591,4.572-0.795,8.661
	c1.518,0.334,1.836-2.783,2.875-0.757c-2.09,5.488,3.635,8.085,2.873,13.842l1.221-0.273c0.251,2.358,0.696,4.664,1.129,6.896
	c0.615,3.153,1.193,6.128,1.256,9.211c0.004,0.167,0.027,0.333,0.068,0.489c0.24,0.91,1.078,1.571,2.059,1.552
	c1.151-0.023,2.066-0.976,2.042-2.126c-0.07-3.442-0.711-6.735-1.332-9.923c-0.371-1.902-0.718-3.721-0.957-5.556l0.829,0.373
	c0.299-6.853,2.239-15.541-1.361-22.69c2.07-1.118,1.9,1.608,3.971,0.49c-0.616-4.85-3.235-6.273-4.274-10.4
	c1.717,0.108,3.276,2.746,4.689,0.304c-1.443-4.475-3.643-7.656-5.369-11.647c3.327-0.84,3.689,3.405,7.413,1.891
	c-1.057-7.225-4.673-10.063-7.034-15.053c3.234,0.364,4.43,4.223,8.51,3.139c0.117-7.158-4.472-11.518-7.413-16.488
	c4.153-0.168,5.517,4.445,10.136,3.479c1.336-8.687-7.546-14.067-8.699-18.455c3.933,1.254,6.547,4.764,11.763,3.82
	c1.09-9.627-8.554-15.14-10.513-19.516c3.219,0.139,10.091,7.734,12.858,5.069c5.932-5.713-10.004-17.91-12.707-22.013
	c4.798,1.925,19.265,13.388,16.603,1.778c-1.685-7.352-13.147-14.338-15.921-19.628c6.801,2.591,11.784,8.304,19.401,9.492
	c2.126-15.331-13.907-21.626-18.379-28.969c8.118,2.07,14.419,7.259,24.053,6.732c-0.489-17.625-16.674-17.266-24.467-25.833
	c4.8,0.043,26.561,13.604,20.876-2.419c-3.198-9.014-16.348-10.076-21.292-16.68c4.074,0.007,30.692,15.613,24.319-1.02
	c-3.69-9.628-20.456-12.712-25.641-18.608c5.344-0.169,12.733,3.445,18.417,2.837c7.855-0.839,3.216-9.695-0.338-12.973
	c-4.748-4.374-14.588-3.713-18.305-8.245c6.622,0.997,18.155,6.095,24.129-1.739c5.412,6.971,20.264,2.445,28.137,1.818
	c-4.155,6.169-19.375,8.74-21.974,15.77c-4.744,12.833,14.244,5.603,21.141,4.426c-3.184,4.414-13.834,7.933-17.133,13.728
	c-1.091,1.916-3.023,8.875-1.135,10.286c4.681,3.505,13.589-5.774,19.212-5.823c-2.465,6.094-17.78,11.82-17.776,20.045
	c0.007,12.497,12.063,0.146,17.132,0.87c-7.08,7.02-17.664,11.998-15.017,24.695c1.791,1.053,4.227-0.623,5.75-1.513
	c-1.795,4.022-4.624,7.441-3.443,13.198c4.302,1.493,10.066-4.106,12.935-3.403c-6.639,5.455-14.58,10.148-13.086,20.347
	c2.302-0.124,5.947-2.549,7.375-1.172c-4.845,4.067-9.369,8.321-8.094,15.959c1.833-0.015,4.977-2.273,5.939-0.793
	c-4.062,3.307-7.11,7.205-6.505,13.235c2.775-0.239,6.913-2.814,8.811-1.55c-5.631,3.406-9.936,7.586-10.099,14.182
	c3.604,0.841,7.16-3.468,10.968-2.117c-5.019,4.169-9.912,8.41-9.721,15.618c2.395,1.869,5.04-3.14,7.375-1.171
	c-3.472,3.246-6.02,7.031-5.069,12.857c3.406-0.648,4.418-2.693,7.526-3.515c-1.714,5.082-6.539,8.349-5.219,15.201
	c3.305-1.111,5.246-3.023,8.054-4.425c-2.053,4.681-5.2,8.726-4.5,15.016c2.331,0.46,3.136-2.921,4.312-1.136
	c-0.466,2.974-2.699,4.915-1.513,8.85c1.897,0.559,2.214-2.563,2.874-0.757c1.998,10.232,2.973,21.47,11.193,30.862
	c-1.026-12.38,4.746-18.842,0.872-31.73c2.332-0.507,4.149,3.01,5.596,0.833c-0.958-4.614-3.255-6.933-4.462-11.12
	c2.43-0.908,3.689,2.936,5.409,0.114c-0.796-4.89-3.029-7.319-4.463-11.117c2.191,0.413,3.396,2.521,6.505,1.36
	c-1.011-5.566-2.98-9.488-5.557-12.367c2.728,0.533,4.15,3.313,7.601,2.608c0.589-7.058-4.242-12.534-7.411-16.488
	c3.444,1.393,6.33,3.745,10.323,4.198c1.472-7.561-6.101-13.739-6.88-17.397c3.763,0.498,5.125,5.114,10.134,3.48
	c-0.802-11.146-9.12-14.944-11.42-20.046c4.725,1.632,7.411,6.759,13.236,6.506c0.421-9.652-5.776-15.391-10.513-19.516
	c3.377-0.376,7.719,7.493,11.042,4.011c1.123-1.177-0.629-8.63-2.306-11.688c-2.462-4.487-8.196-6.499-8.585-9.264
	c5.307,0.981,8.83,5.024,15.013,4.501c0.914-7.984-5.438-12.103-8.848-16.112c3.214,0.746,5.441,3.187,10.288,1.136
	c-1.608-12.885-10.347-13.544-15.922-19.63c5.011,2.407,18.238,12.132,15.317-0.188c-1.711-7.227-11.362-12.469-15.882-16.566
	c6.545,1.64,12.998,3.438,20.233,3.896c0.517-14.15-14.735-15.709-19.893-20.12c4.433,0.936,15.065,6.331,14.41-0.718
	c-0.791-8.489-11.711-11.992-16.244-15.286c4.521,3.167,9.984-0.623,16.055-0.033c2.278,0.223,4.825,3.178,7.072,3.52
	c7.141,1.087,18.349-1.248,21.596-2.61c-0.794,4.999-10.937,6.638-14.449,12.254c-7.74,12.376,4.949,14.183,13.956,6.317
	c-1.56,4.905-11.52,9.137-12.973,14.938c-3.678,14.688,10.829,4.409,16.073,2.685c-5.866,6.541-17.803,12.692-13.048,23.409
	c5.576-0.409,9.657-4.892,12.557-4.838c-6.614,7.089-16.654,12.18-13.39,25.035c6.289-2.415,10.363-6.12,16.111-8.849
	c-3.571,7.677-14.186,14.396-8.7,25.337c3.533-0.596,5.404-5.336,8.057-4.425c-3.854,5.862-10.269,10.23-7.869,19.741
	c2.232,1.23,4.232-1.105,6.468-1.701c-2.931,5.185-7.513,9.405-5.372,17.547c4.479-1.846,7.8-4.37,11.27-6.805
	c-2.833,6.456-8.991,10.976-6.958,20.271c3.423-0.638,4.268-2.783,6.617-4.045c-2.008,5.111-6.365,8.857-4.123,16.449
	c3.152-1.202,4.285-3.581,7.148-4.953c-2.546,4.063-7.061,9.974-4.501,15.013c2.558-0.737,3.858-2.207,6.088-3.14
	c-1.823,3.601-2.932,7.619-2.004,12.824c4.089-0.455,3.676-3.534,7.337-4.238c-1.901,4.365-3.631,8.831-3.064,14.638
	c3.761-0.646,3.204-3.809,6.43-4.765c-0.524,3.952-2.29,7.179-1.476,11.913c2.046,0.293,2.851-3.083,4.313-1.136
	c-0.857,1.967-1.903,4.111-0.456,7.035c-0.101-0.203,2.851-0.239,3.063-0.038c0.484,0.458-0.228,2.772,1.134,4.31
	c0.504,0.569,2.019,0.098,2.534,0.873c3.809,5.725,6.15,15.18,10.854,17.888c0.817-10.263-0.245-24.207-2.947-34.565
	c0.991,0.38,2.175,0.44,3.78-0.228c-0.441-3.763-2.361-4.988-3.518-7.527c1.612,0.02,2.521,1.243,4.69,0.303
	c-1.148-6.719-5.054-8.714-7.904-12.52c3.097,0.255,5.039,2.487,8.852,1.516c-1.168-8.078-6.588-8.869-9.72-13.579
	c3.494,0.27,5.944,2.326,9.758,2.044c0.852-7.173-8.654-10.767-9.908-14.295c3.424,0.73,6.366,2.296,10.476,1.852
	c0.921-8.653-9.66-11.845-11.723-15.356c2.677,0.971,5.292,2.051,8.849,1.515c0.803-7.771-8.91-11.731-10.816-14.825
	c2.817,0.732,5.193,2.222,8.85,1.512c-0.06-10.225-9.308-13.055-14.105-18.568c4.192,1.154,7.946,3.062,13.008,2.722
	c1.292-9.285-9.11-12.784-11.193-16.261c16.617,6.643,6.431-8.532-0.31-13.685c-1.037-0.466-2.042-1.006-2.941-1.595
	c0.792,0.154,1.819,0.736,2.941,1.595c6.276,2.814,13.863,2.818,7.988-6.775c-2.803-4.579-11.941-6.013-12.366-9.039
	c5.293,1.355,9.515,4.543,15.732,4.311c-0.77-13.331-13.675-14.748-20.271-21.558c5.285,1.369,9.548,4.488,16.263,3.405
	c-0.902-13.75-13.432-13.114-17.168-18.533c9.854,3.965,20.952,5.792,35.171,2.271c-3.226,7.647-12.396,11.825-11.081,22.123
	c4.412,0.944,9.396-2.475,12.746-4.121c-3.902,6.239-11.437,10.358-7.49,21.177c4.264-1.162,6.417-3.553,9.304-5.519
	c-4.134,6.508-11.375,11.205-8.925,21.557c5.002-0.142,8.102-4.578,10.398-4.275c-3.781,5.702-9.755,10.125-6.24,20.085
	c4.556-0.201,6.581-5.059,8.773-4.615c-3.542,6.245-9.276,11.214-6.771,20.989c5.884-0.42,6.049-4.177,10.023-5.71
	c-3.412,5.756-10.726,12.342-6.053,20.799c3.153-1.199,4.286-3.582,7.148-4.953c-3.468,2.936-10.791,19.863-3.557,18.607
	c-1.408,3.437-3.039,6.742-1.475,11.913c4.381-0.891,5.875-3.468,8.585-5.331c-2.921,5.391-7.678,9.712-5.182,18.266
	c2.258-0.712,2.732-2.462,5.371-2.951c-1.342,4.085-3.707,7.568-1.816,13.539c3.314-0.322,4.667-4.947,6.619-4.045
	c-1.602,3.931-3.666,7.595-1.816,13.54c3.749,0.128,3.346-5.306,5.899-3.857c-0.869,3.343-2.781,6.082-0.945,11.006
	c1.981,0.071,2.564-3.683,4.123-1.856c-0.695,2.843-1.282,5.744-0.606,9.382c2.329,0.46,3.134-2.919,4.313-1.135
	c-0.892,1.508,0.537,4.37,0.981,6.656c3.403-3.429,2.373,1.196,4.01,3.556c0.34,0.489,2.038,0.262,2.533,0.869
	c2.91,3.573,3.819,8.782,6.09,11.46c3.052-6.575,3.34-18.318-1.398-25.754c1.875-1.129,2.126,0.521,3.781-0.228
	c-0.591-4.202-3.08-5.147-4.425-8.055c1.69-0.463,2.441,0.679,4.501-0.418c-0.83-4.854-5.843-8.029-5.899-10.739
	c1.962,0.461,3.336,1.926,6.316,0.642c-0.387-7.346-7.302-9.012-7.903-12.519c3.892-0.418,6.106,2.042,10.285,1.137
	c-1.141-6.747-8.301-8.692-9.34-12.143c2.28,0.61,4.75,0.896,7.224,1.173c-1.553-9.503-8.357-10.001-12.973-14.258
	c3.822-0.378,8.012,3.286,11.007,0.945c-1.152-8.459-9.292-10.474-11.346-13.916c2.903,0.93,5.522,2.35,9.569,1.322
	c-0.447-7.936-7.427-10.194-8.813-13.046c2.741,0.167,4.623,1.807,7.942,0.982c-0.66-5.125-3.125-7.157-4.992-10.213
	c2.56-0.736,3.859-2.208,6.09-3.136c0.461,1.687-0.682,2.44,0.416,4.499c10.345-7.445,21.159,5.721,21.367-6.392
	c14.265,1.321-6.479,15.05,4.197,18.871c-2.817,3.225-4.438,7.144-3.631,12.481c1.833-0.015,4.977-2.272,5.937-0.792
	c-4.31,3.77-7.528,8.178-5.938,15.391c2.8-0.191,2.761-2.039,5.56-2.231c-1.954,4.132-3.897,8.271-3.254,13.918
	c2.881-0.347,3.172-2.206,6.278-2.42c-1.593,4.342-3.935,8.247-3.253,13.916c3.098,0.146,4.393-3.869,6.278-2.418
	c-1.163,3.985-3.359,7.365-2.007,12.819c1.929-0.149,3.406-3.613,4.842-2.043c-0.557,2.718-1.319,5.313,0.114,9.193
	c0.786,2.116,2.356-3.329,3.592-0.945c0.982,7.637,7.579,13.905,10.362,21.857c3.366-6.049,3.015-17.154,2.232-23.638
	c1.652-0.748,1.907,0.903,3.78-0.226c-0.992-4.205-3.542-5.747-4.801-9.492c2.527-0.859,3.198,1.464,5.597,0.831
	c-0.749-4.623-2.915-6.82-4.803-9.492c2.271-0.401,4.752,1.974,6.126-0.075c-1.54-5.352-4.484-8.3-6.995-11.99
	c2.994-0.614,3.892,2.369,7.223,1.173c1.473-6.222-6.228-10.697-6.655-13.612c2.191,0.413,3.396,2.521,6.506,1.359
	c1.446-6.177-6.391-10.424-6.657-13.615c2.467,0.295,3.766,2.581,7.224,1.172c0.613-5.854-3.921-10.196-6.655-13.613
	c2.191,0.413,3.397,2.521,6.506,1.361c0.871-5.705-3.4-9.633-5.747-13.086c2.396-0.632,3.067,1.691,5.598,0.833
	c0.57-7.351-4.642-12.566-8.132-16.302c3.158,0.495,4.781,3.621,9.038,2.233c0.534-6.027-3.862-11.025-6.844-14.335
	c2.21-0.661,2.645,1.722,5.408,0.114c0.232-5.73-4.045-9.629-6.657-13.616c4.114,1.641,7.385,4.721,13.729,2.533
	c-0.829-5.526-4.533-6.129-6.428-9.831l-0.298-0.29c1.571,0.288,3.044,1.091,4.586,1.939c1.724,0.948,3.508,1.92,5.561,2.232
	l-0.244,0.505c5.408,2.458,2.478,3.334,1.362,8.094c-0.784,3.335-2.604,15.982-0.834,20.197c2.099,4.998-1.631,3.769-1.475,11.911
	c0.031,1.69,1.54,3.593,1.323,5.03c-0.447,2.952-3.472,5.271-3.33,7.79c0.085,1.49,2.146,3.898,2.044,4.84
	c-0.575,5.211-8.234,12.633-1.098,13.353c-1.697,3.674-3.967,7.013-2.912,12.289c1.146,0.12,3.491-1.815,3.781-0.227
	c-2.538,2.982-3.901,6.647-4.009,11.044c-0.001,2.086,3.253-1.406,3.251,0.681c-1.483,3.19-3.664,5.972-2.572,10.665
	c1.147,0.119,3.493-1.817,3.782-0.227c-0.987,2.668-2.312,5.14-1.513,8.849c1.146,0.121,3.493-1.815,3.781-0.228
	c-0.26,2.486-1.425,4.441-1.172,7.226c1.146,0.117,3.492-1.817,3.781-0.228c-1.768,6.237,4.388,13.501,8.357,20.082
	c0.812-6.419,4.402-11.219,2.647-19.134c1.603,0.012,2.863,1.439,3.782-0.227c-0.215-3.11-2.073-3.399-2.42-6.281
	c1.604,0.131,3.437,1.505,4.5-0.414c-1.17-2.514-2.202-5.263-3.517-7.525c1.69-0.463,2.441,0.681,4.502-0.418
	c-0.466-3.724-2.13-5.387-2.988-8.432c2.229,0.658,3.166,0.931,4.311-1.135c-0.801-3.146-2.098-5.438-3.517-7.525
	c1.438-0.379,2.876-0.757,4.313-1.135c-0.757-2.876-1.513-5.751-2.269-8.624c6.44,0.44,0.479-6.476,0.226-10.817
	c0.006,0.079,2.608-1.14,2.686-1.475c0.838-3.572-2.757-7.24-3.176-9.15c7.343-0.412,1.495-4.599,2.043-9.759
	c0.225-2.106,2.093-2.652,1.929-4.35c-0.337-3.48-2.906-6.508-2.987-8.432c-0.012-0.276,2.721-0.458,2.875-0.757
	c1.702-3.314-3.313-8.2-3.555-10.592c2.211-0.66,2.646,1.723,5.408,0.114c1.102-4.683-3.411-7.788-4.65-11.836
	c3.202,2.356,9.622,3.3,11.269,7.79c0.775,2.117-0.855,3.128-1.173,7.224c-0.55,7.099,0.3,19.179,0.149,26.852
	c-0.035,1.899,0.35,6.617,0.113,9.191c-0.298,3.278-3.096,5.94-2.231,9.037c0.293,1.046,2.006,1.495,2.004,1.777
	c-0.016,2.539-1.812,4.99-1.89,7.413c-0.029,0.879,1.498,1.672,1.662,3.403c0.263,2.782-1.623,5.688-1.172,7.225
	c0.124,0.421,2.142,1.899,2.192,2.496c0.439,4.963-1.766,9.63-0.907,14.067c0.762,1.127,3.395-0.951,3.971,0.492
	c-0.978,1.863-1.415,4.041-1.361,6.507c1.107-0.16,2.583-0.956,3.063-0.038c-0.538,7.897,6.996,14.439,11.268,22.389
	c1.873-2.14,0.087-4.846,0.796-8.661c0.354-1.906,2.752-4.261,2.988-6.164c0.171-1.406-1.459-3.102-1.135-4.311
	c0.075-0.288,2.131-0.285,2.156-0.568c0.111-1.356-1.84-3.729-1.325-5.029c0.158-0.397,2.84-0.365,2.874-0.757
	c0.229-2.425-1.791-4.365-1.701-6.467c1.729-0.209,2.729-0.841,3.403-1.663c-1.076-1.634-1.952-3.603-2.419-6.279
	c5.16-0.067,1.165-4.841,0.981-7.941c-0.04-0.722,1.389-2.932,1.4-3.443c0.127-4.85-2.137-9.975-2.152-14.03
	c-0.01-1.743,1.964-3.198,1.926-4.348c-0.07-2.291-2.171-3.763-2.418-6.279c-0.105-1.07,1.441-2.3,1.398-3.442
	c-0.339-8.925-1.914-13.489-3.478-19.059c1.61,0.018,2.521,1.241,4.689,0.302c-0.554-5.31-3.59-6.357-4.991-10.21
	c16.589,5.223,8.918,29.123,10.511,48.712c0.68,8.368-0.727,14.923,0.074,20.723c0.192,1.384,1.757,2.873,1.854,4.124
	c0.145,1.858-1.381,3.103-1.021,4.878c0.117,0.585,2.618,1.225,2.724,1.588c0.37,1.311-1.315,3.557-1.022,4.88
	c0.057,0.254,2.306,0.321,2.534,0.869c0.319,0.762-0.702,3.227-0.491,3.972c1.635,5.83,8.143,11.961,11.572,17.699
	c-1.012-5.434,2.874-12.544,3.593-15.545c0.252-1.051-1.228-2.549-0.945-3.592c0.085-0.314,1.951-1.107,1.966-1.287
	c0.1-1.08-1.525-3.005-1.133-4.31c0.1-0.334,2.095-0.232,2.155-0.568c0.214-1.145-1.551-3.359-1.324-5.029
	c0.195-1.421,2.244-1.872,2.307-2.912c0.061-0.977-1.608-2.071-1.664-3.403c-0.052-1.308,1.145-2.537,1.211-4.161
	c0.054-1.322-1.174-2.785-1.132-4.31c0.028-1.229,1.62-2.171,1.587-2.725c-0.274-4.562-2.607-9.601-2.873-13.841
	c-0.075-1.186,1.003-0.971,0.868-2.533c-0.455-5.253-3.313-11.784-2.72-16.188c0.035-0.257,2.896-0.528,2.873-0.757
	c-0.324-3.198-2.838-5.928-3.894-8.964c2.841,1.314,5.953,3.041,6.919,5.862c1.642,4.801-0.675,24.214-0.268,36.95
	c0.199,6.204,0.719,11.968,1.097,15.847c1.395,14.244,9.772,21.352,17.356,33.85c1.659-6.535,1.104-14.361,3.896-20.234
	c1.318,7.626,6.594,15.204,10.892,20.953c1.867-8.035,3.258-16.349,6.017-23.865c0.51,8.571,3.094,19.683,9.301,23.677
	c6.064-14.509,4.209-33.637,4.049-51.774c8.823,12.893,0.741,45.698,17.433,54.573c3.732-12.22-0.005-28.793-1.624-44.134
	c8.196,11.356,1.189,38.778,15.54,47.387c1.539-4.576,1.381-10.142,2.157-15.165c1.854,7.942,4.467,14.589,8.167,19.365
	c6.709-7.237-0.584-22.646,1.4-32.638c2.392,9.353,1.77,27.23,9.984,35.02c4.779-6.133,0.646-17.466,1.666-25.792
	c1.945,10.243,1.572,25.113,10.097,29.613c2.35-6.94-1.506-17.506,0.416-24.697c1.84,3.534,3.501,16.675,5.671,21.558
	c7.23,16.273,6.474-6.602,5.6-13.766c1.574,3.96,0.353,6.288,1.927,10.25l0.636-0.24c0.328,2.256,0.83,4.415,1.332,6.508
	c0.377,1.59,0.734,3.087,1.019,4.63c0.014,0.072,0.03,0.145,0.048,0.216c0.378,1.435,1.804,2.36,3.288,2.088
	c1.557-0.285,2.586-1.779,2.302-3.338c-0.309-1.689-0.702-3.335-1.082-4.928c-0.435-1.822-0.842-3.565-1.133-5.327l0.438,0.125
	c1.184-0.32-0.123-2.098,0.87-2.531c0.441,1.675,0.881,3.353,1.322,5.027l0.59-0.221c-0.068,2.826,0.279,5.691,1.035,8.566
	c0.341,1.294,0.767,2.593,1.271,3.891c0.54,1.378,2.097,2.059,3.474,1.521c1.38-0.539,2.064-2.092,1.522-3.474
	c-1.305-3.33-1.954-6.646-1.945-9.872l0.368,0.232c2.675,3.89,1.773,14.316,6.165,17.587c4.511-1.421-0.167-8.205,2.572-10.663
	c0.295,5.429,2.268,12.268,7.183,12.707c1.064-1.61-2.165-5.725,0.646-6.315c1.222,4.51,2.829,8.354,6.767,8.206
	c0.083-1.371-1.977-3.992-0.413-4.501c1.832,2.771,2.476,7.572,6.391,6.77c0.117-1.147-1.816-3.492-0.227-3.781
	C758.952,605.114,770.77,609.057,782.195,614.606z M387.567,311.994c5.608-0.394,14.654,7.308,23.978,0.606
	c-2.356-4.995-7.594-5.061-10.211-9.607c7.873,4.77,28.531-2.11,15.92-7.187c-1.193-0.209-2.141-0.511-2.683-0.906
	c1.026,0.293,1.914,0.596,2.683,0.906c7.779,1.365,26.125-1.225,12.369-7.939c3.688-0.743,9.895,3.185,17.474-0.756
	c-1.607-4.542-5.37-5.391-8.206-7.829c4.689-1.076,10.773,4.458,19.286,0.304c-1.548-5.688-6.11-6.208-9.303-9.077
	c4.078-1.414,10.146,2.755,15.884,1.967c-3.17,4.437-6.339,8.874-5.938,15.392c-1.831-0.334-1.462-4.445-2.421-6.278
	c-5.641,2.588-7.817,7.198-8.13,12.896c-8.394-5.955-12.827,8.852-11.876,16.185c-3.736-2.829-1.206-9.938-3.934-12.025
	c-3.503-2.683-10.584,11.099-8.577,17.462c0.112,0.271,0.224,0.541,0.333,0.842c-0.136-0.262-0.239-0.547-0.333-0.842
	c-4.933-12.028-12.596,2.947-11.808,10.183c-0.451,1.148-1.559-7.615-3.708-8.246c-5.681-1.663-8.934,15.38-7.488,21.179
	c-2.882-3.293-2.644-10.079-5.898-10.74c-9.017-1.833-5.97,18.252-7.641,23.522c-1.47-8.601-5.594-12.653-8.698-18.456
	c15.976-2.084,1.8-11.664-3.403-12.934c2.558-1.648,20.072,9.503,23.449,1.514C400.74,317.27,389.583,313.812,387.567,311.994z
	 M373.082,335.782c-4.841-0.044-6.542-5.472-10.893-6.355C364.344,329.629,373.83,330.454,373.082,335.782z M221.656,288.803
	c7.849-4.662,21.613,11.464,31.541,0.153c-1.5,11.103,10.48,24.676,16.223,29.539c-3.395,0.607-4.893-2.041-8.131-1.703l0.043,0.37
	c-3.364-2.218-7.223-3.317-10.973-4.38c-3.459-0.981-6.752-1.926-9.594-3.661l0.066-0.008
	C258.528,301.138,228.389,290.374,221.656,288.803z M212.842,319.549c5.654,1.145,28.983,5.885,21.708-8.017
	c2.072-1.117,1.901,1.609,3.972,0.492l-0.044-0.383c3.379,2.202,7.229,3.3,10.966,4.36c3.479,0.987,6.791,1.938,9.624,3.69
	l-0.087,0.012c-9.305,0.91-26.479,5.43-28.479,14.407C228.706,322.879,216.029,324.946,212.842,319.549z M288.101,313.576
	c7.817-4.786,17.146,10.665,29.047,2.348c-0.238,9.98,2.933,23.514,12.024,25.265c-0.857,4.399-5.634-0.894-8.413-0.091
	c-2.498-1.667-5.31-2.637-8.043-3.574c-2.298-0.787-4.492-1.547-6.445-2.672C321.242,326.827,295.866,313.913,288.101,313.576z
	 M272.556,339.183c4.55,3.117,35.896,13.488,23.752-3.178c1.248-2.408,3.899,1.598,6.314,0.643l0.384-0.423
	c0.038,0.033,0.074,0.07,0.115,0.101c2.637,1.931,5.688,2.975,8.641,3.985c2.775,0.953,5.411,1.86,7.644,3.429l-0.293,0.097
	c-7.291,2.093-21.735,4.566-25.643,10.588C290.008,343.328,278.359,346.265,272.556,339.183z M359.995,356.129
	c18.333-4.955-8.748-17.385-13.917-17.852c8.34-2.471,13.774,9.053,25.111,4.918c1.621,7.747,2.282,20.326,9.454,21.33
	c-0.055,2.268-2.427,0.18-3.594,0.946l0.064,0.684c-3.564-3.117-8.13-4.781-12.566-6.393c-1.25-0.453-2.433-0.891-3.591-1.35
	l0.324-0.317C360.999,357.188,360.098,357.344,359.995,356.129z M345.547,368.382c2.485-2.278,19.798,4.757,15.051-7.034
	l-0.024-0.061c1.001,0.385,2.015,0.762,3.012,1.124c3.871,1.404,7.848,2.853,10.944,5.265c-6.439,3.127-14.22,5.475-18.962,9.595
	C353.63,371.904,349.537,370.231,345.547,368.382z M414.225,442.511c-3.135-5.402-7.671-8.4-12.747-10.477
	c2.276-2.879,7.648,2.805,10.1,0.417c6.003-5.849-10.181-14.083-13.539-16.414c3.177-0.75,7.946,3.442,10.287,1.135
	c3.766-3.712-3.58-11.223-7.904-12.517c13.943,0.227-0.032-14.938-6.503-15.962c3.4-0.718,22.222,5.692,14.144-7.563l-0.054-0.251
	c3.021,0.605,5.811,1.866,8.749,3.208c1.895,0.864,3.834,1.745,5.859,2.443l-0.069,0.007c-7.505,6.284-4.143,9.742-6.241,20.085
	c-1.186,5.842-9.063,20.209,4.122,12.744c-3.611,2.299-11.096,24.277-0.53,15.505C420.787,436.627,416.141,440.37,414.225,442.511z
	 M451.174,428.181c-3.837-2.113-6.157-6.825-10.552-7.981c1.481-2.22,5.496,3.137,7.755,0.265c2.782-3.542-3.767-8.906-5.56-12.367
	c6.446,4.559,13.518-3.046,5.673-7.639c3.219-2.021,7.437,3.222,11.042,4.009C452.956,410.16,455.177,420.986,451.174,428.181z
	 M635.538,486.469c-5.52,2.906-14.52,9.153-20.65,6.2C620.271,490.828,627.74,488.495,635.538,486.469z M592.426,483.214
	c10.479,7.18,5.303,28.141,4.801,38.688C596.441,507.615,595.729,495.902,592.426,483.214z M615.529,530.15
	c-2.918-9.414-1.705-21.676-4.008-32.753C620.598,504.065,614.65,520.429,615.529,530.15z"/>
</svg>
